<mxfile host="Electron" modified="2023-10-31T09:01:09.723Z" agent="Mozilla/5.0 (X11; Linux x86_64) AppleWebKit/537.36 (KHTML, like Gecko) draw.io/22.0.3 Chrome/114.0.5735.289 Electron/25.8.4 Safari/537.36" etag="d1h8jNAZz73Vkq8AFhFr" version="22.0.3" type="device">
  <diagram name="Seite-1" id="urBIo85hqzk9JVDrQqm7">
    <mxGraphModel dx="1434" dy="2171" grid="1" gridSize="10" guides="1" tooltips="1" connect="1" arrows="1" fold="1" page="1" pageScale="1" pageWidth="827" pageHeight="1169" math="0" shadow="0">
      <root>
        <mxCell id="0" />
        <mxCell id="1" parent="0" />
        <mxCell id="hxaAqSPLKP8gCyE8sNrA-1" value="" style="rounded=0;whiteSpace=wrap;html=1;rotation=330;fillColor=#808080;strokeWidth=2;" parent="1" vertex="1">
          <mxGeometry x="245.96" y="195" width="306.08" height="190" as="geometry" />
        </mxCell>
        <mxCell id="hxaAqSPLKP8gCyE8sNrA-2" value="" style="endArrow=classic;html=1;rounded=0;strokeWidth=2;" parent="1" edge="1">
          <mxGeometry width="50" height="50" relative="1" as="geometry">
            <mxPoint x="120" y="520" as="sourcePoint" />
            <mxPoint x="120" y="80" as="targetPoint" />
          </mxGeometry>
        </mxCell>
        <mxCell id="hxaAqSPLKP8gCyE8sNrA-3" value="" style="endArrow=classic;html=1;rounded=0;strokeWidth=2;" parent="1" edge="1">
          <mxGeometry width="50" height="50" relative="1" as="geometry">
            <mxPoint x="120" y="520" as="sourcePoint" />
            <mxPoint x="560" y="520" as="targetPoint" />
          </mxGeometry>
        </mxCell>
        <mxCell id="hxaAqSPLKP8gCyE8sNrA-16" value="" style="endArrow=none;dashed=1;html=1;dashPattern=1 3;strokeWidth=2;rounded=0;" parent="1" edge="1">
          <mxGeometry width="50" height="50" relative="1" as="geometry">
            <mxPoint x="400" y="520" as="sourcePoint" />
            <mxPoint x="400" y="290" as="targetPoint" />
          </mxGeometry>
        </mxCell>
        <mxCell id="hxaAqSPLKP8gCyE8sNrA-17" value="" style="endArrow=none;dashed=1;html=1;dashPattern=1 3;strokeWidth=2;rounded=0;" parent="1" edge="1">
          <mxGeometry width="50" height="50" relative="1" as="geometry">
            <mxPoint x="120" y="290" as="sourcePoint" />
            <mxPoint x="900" y="289" as="targetPoint" />
          </mxGeometry>
        </mxCell>
        <mxCell id="hxaAqSPLKP8gCyE8sNrA-18" value="Y" style="text;html=1;strokeColor=none;fillColor=none;align=center;verticalAlign=middle;whiteSpace=wrap;rounded=0;fontSize=20;strokeWidth=2;" parent="1" vertex="1">
          <mxGeometry x="90" y="50" width="60" height="30" as="geometry" />
        </mxCell>
        <mxCell id="hxaAqSPLKP8gCyE8sNrA-19" value="&lt;div style=&quot;font-size: 20px;&quot;&gt;X&lt;br style=&quot;font-size: 20px;&quot;&gt;&lt;/div&gt;" style="text;html=1;align=center;verticalAlign=middle;resizable=0;points=[];autosize=1;strokeColor=none;fillColor=none;strokeWidth=2;fontSize=20;" parent="1" vertex="1">
          <mxGeometry x="555" y="500" width="40" height="40" as="geometry" />
        </mxCell>
        <mxCell id="hxaAqSPLKP8gCyE8sNrA-21" value="&lt;font style=&quot;font-size: 20px;&quot;&gt;Pose x&lt;/font&gt;" style="text;html=1;align=center;verticalAlign=middle;resizable=0;points=[];autosize=1;strokeColor=none;fillColor=none;fontSize=20;strokeWidth=2;" parent="1" vertex="1">
          <mxGeometry x="359" y="525" width="80" height="40" as="geometry" />
        </mxCell>
        <mxCell id="hxaAqSPLKP8gCyE8sNrA-22" value="Pose y" style="text;html=1;align=center;verticalAlign=middle;resizable=0;points=[];autosize=1;strokeColor=none;fillColor=none;fontSize=20;strokeWidth=2;" parent="1" vertex="1">
          <mxGeometry x="40" y="270" width="80" height="40" as="geometry" />
        </mxCell>
        <mxCell id="hxaAqSPLKP8gCyE8sNrA-48" value="" style="rounded=0;whiteSpace=wrap;html=1;rotation=-15;fillColor=#000000;strokeWidth=2;" parent="1" vertex="1">
          <mxGeometry x="390" y="140" width="81" height="30" as="geometry" />
        </mxCell>
        <mxCell id="hxaAqSPLKP8gCyE8sNrA-49" value="" style="rounded=0;whiteSpace=wrap;html=1;rotation=-15;fillColor=#000000;strokeWidth=2;" parent="1" vertex="1">
          <mxGeometry x="490" y="300" width="81" height="30" as="geometry" />
        </mxCell>
        <mxCell id="hxaAqSPLKP8gCyE8sNrA-51" value="" style="rounded=0;whiteSpace=wrap;html=1;rotation=-30;fillColor=#000000;strokeWidth=2;" parent="1" vertex="1">
          <mxGeometry x="320" y="400" width="81" height="30" as="geometry" />
        </mxCell>
        <mxCell id="hxaAqSPLKP8gCyE8sNrA-52" value="" style="rounded=0;whiteSpace=wrap;html=1;rotation=-30;fillColor=#000000;strokeWidth=2;" parent="1" vertex="1">
          <mxGeometry x="230" y="245" width="81" height="30" as="geometry" />
        </mxCell>
        <mxCell id="hxaAqSPLKP8gCyE8sNrA-53" value="&lt;font style=&quot;font-size: 20px;&quot;&gt;Steering angle&lt;/font&gt;" style="text;html=1;strokeColor=none;fillColor=none;align=center;verticalAlign=middle;whiteSpace=wrap;rounded=0;fontSize=20;strokeWidth=2;" parent="1" vertex="1">
          <mxGeometry x="500.5" y="359" width="60" height="30" as="geometry" />
        </mxCell>
        <mxCell id="hxaAqSPLKP8gCyE8sNrA-54" value="" style="endArrow=none;html=1;rounded=0;dashed=1;dashPattern=1 4;strokeWidth=2;" parent="1" edge="1">
          <mxGeometry width="50" height="50" relative="1" as="geometry">
            <mxPoint x="401" y="290" as="sourcePoint" />
            <mxPoint x="860" y="20" as="targetPoint" />
          </mxGeometry>
        </mxCell>
        <mxCell id="hxaAqSPLKP8gCyE8sNrA-56" value="" style="endArrow=classic;html=1;rounded=0;strokeWidth=2;" parent="1" edge="1">
          <mxGeometry width="50" height="50" relative="1" as="geometry">
            <mxPoint x="401" y="290" as="sourcePoint" />
            <mxPoint x="630" y="-10" as="targetPoint" />
          </mxGeometry>
        </mxCell>
        <mxCell id="hxaAqSPLKP8gCyE8sNrA-57" value="" style="verticalLabelPosition=bottom;verticalAlign=top;html=1;shape=mxgraph.basic.arc;startAngle=0.1127813740139013;endAngle=0.24180339136387127;aspect=fixed;strokeWidth=2;" parent="1" vertex="1">
          <mxGeometry x="285.04" y="43" width="515.96" height="515.96" as="geometry" />
        </mxCell>
        <mxCell id="hxaAqSPLKP8gCyE8sNrA-59" value="" style="verticalLabelPosition=bottom;verticalAlign=top;html=1;shape=mxgraph.basic.arc;startAngle=0.06085751341161643;endAngle=0.15240501928634548;aspect=fixed;strokeWidth=2;" parent="1" vertex="1">
          <mxGeometry x="311" y="10" width="437" height="437" as="geometry" />
        </mxCell>
        <mxCell id="hxaAqSPLKP8gCyE8sNrA-60" value="&lt;span class=&quot;Grek&quot; lang=&quot;el-Grek&quot; style=&quot;font-size: 20px;&quot;&gt;Î¸&lt;/span&gt;" style="text;html=1;strokeColor=none;fillColor=none;align=center;verticalAlign=middle;whiteSpace=wrap;rounded=0;fontSize=20;strokeWidth=2;" parent="1" vertex="1">
          <mxGeometry x="670" y="195" width="60" height="30" as="geometry" />
        </mxCell>
        <mxCell id="hxaAqSPLKP8gCyE8sNrA-61" value="Slip angle" style="text;html=1;strokeColor=none;fillColor=none;align=center;verticalAlign=middle;whiteSpace=wrap;rounded=0;fontSize=20;strokeWidth=2;" parent="1" vertex="1">
          <mxGeometry x="590" y="90" width="60" height="30" as="geometry" />
        </mxCell>
        <mxCell id="hxaAqSPLKP8gCyE8sNrA-62" value="" style="verticalLabelPosition=bottom;verticalAlign=top;html=1;shape=mxgraph.basic.arc;startAngle=0.2889895651886847;endAngle=0.019007703923974835;aspect=fixed;strokeWidth=2;" parent="1" vertex="1">
          <mxGeometry x="351" y="242.02" width="100" height="100" as="geometry" />
        </mxCell>
        <mxCell id="GAuoqcm1p_Jp_WaCX0y3-2" value="" style="shape=image;verticalLabelPosition=bottom;labelBackgroundColor=default;verticalAlign=top;imageAspect=0;image=data:image/jpeg,/9j/4AAQSkZJRgABAQEAYABgAAD//gA7Q1JFQVRPUjogZ2QtanBlZyB2MS4wICh1c2luZyBJSkcgSlBFRyB2ODApLCBxdWFsaXR5ID0gOTAK/9sAQwADAgIDAgIDAwMDBAMDBAUIBQUEBAUKBwcGCAwKDAwLCgsLDQ4SEA0OEQ4LCxAWEBETFBUVFQwPFxgWFBgSFBUU/9sAQwEDBAQFBAUJBQUJFA0LDRQUFBQUFBQUFBQUFBQUFBQUFBQUFBQUFBQUFBQUFBQUFBQUFBQUFBQUFBQUFBQUFBQU/8AAEQgFEASwAwEiAAIRAQMRAf/EAB8AAAEFAQEBAQEBAAAAAAAAAAABAgMEBQYHCAkKC//EALUQAAIBAwMCBAMFBQQEAAABfQECAwAEEQUSITFBBhNRYQcicRQygZGhCCNCscEVUtHwJDNicoIJChYXGBkaJSYnKCkqNDU2Nzg5OkNERUZHSElKU1RVVldYWVpjZGVmZ2hpanN0dXZ3eHl6g4SFhoeIiYqSk5SVlpeYmZqio6Slpqeoqaqys7S1tre4ubrCw8TFxsfIycrS09TV1tfY2drh4uPk5ebn6Onq8fLz9PX29/j5+v/EAB8BAAMBAQEBAQEBAQEAAAAAAAABAgMEBQYHCAkKC//EALURAAIBAgQEAwQHBQQEAAECdwABAgMRBAUhMQYSQVEHYXETIjKBCBRCkaGxwQkjM1LwFWJy0QoWJDThJfEXGBkaJicoKSo1Njc4OTpDREVGR0hJSlNUVVZXWFlaY2RlZmdoaWpzdHV2d3h5eoKDhIWGh4iJipKTlJWWl5iZmqKjpKWmp6ipqrKztLW2t7i5usLDxMXGx8jJytLT1NXW19jZ2uLj5OXm5+jp6vLz9PX29/j5+v/aAAwDAQACEQMRAD8A/VGlxzRSdqADtRS0UAGOaTtR2paAEpcc0UnagA7UUtFABjmk7UdqWgBKXHNFJ2oAO1FLRQAY5pO1HaloASlxzRSdqADtRS0UAGOaTtR2paAEpcc0UnagA7UUtFABjmk7UdqWgBKXHNFJ2oAO1FLRQAY5pO1HaloASlxzRSdqADtRS0UAGOaTtR2paAEpcc0UnagA7UUtFABjmk7UdqWgBKXHNFJ2oAO1FLRQAY5pO1HaloASlxzRSdqADtRS0UAGOaTtR2paAEpcc0UnagA7UUtFABjmk7UdqWgBKXHNFJ2oAO1FLRQAY5pO1HaloASloooAPSjvRRQAdqPSiigA70dqKKAD0o70UUAHaj0oooAO9HaiigA9KO9FFAB2o9KKKADvR2oooAPSjvRRQAdqPSiigA70dqKKAD0o70UUAHaj0oooAO9HaiigA9KO9FFAB2o9KKKADvR2oooAPSj1oooAM0Ud6O1AB60ZozR3oAKPWjtRmgAzRR3o7UAHrRmjNHegAo9aO1GaADNFHejtQAetGaM0d6ACj1o7UZoAM0Ud6McUAH9KPejHSjHNABR/SjHFGOlAB70UY5oxxQAf0o96MdKMc0AFFAooAPaiiigAooooAPSiiigBaKSloASk/wA5oooAWikooAP85paSigBaT/OaKKAFopKKAD/OaWkooAWk/wA5oooAWikooAP85paSigBaT/OaKKAFopKKAD/OaWkooAWk/wA5oooAWikooAP85paSigBaT/OaKKAFopKKAD/OaWkooAWk/wA5oooAWikooAP85paSigBaT/OaKKAFopKKAD/OaWkooAWk/wA5oooAWikooAP85paSigBaT/OaKKAFopKKAD/OaWkooAWk/wA5oooAWikooAP85paSigBaT/OaKKAFopKKAD/OaWkooAWikpaACiiigAooooAKKKKACiiigAooooAKKKKACiiigAooooAKKKKACiiigAooooAKKKKACiiigAooooAKKKKACiiigAooooAKKKKACiiigAoo7dKKACiijt0oAKKKKACijt0ooAKKKO3SgAooooAKKO3SigAooo7dKACiiigAoxRRQAYo70UUAGKMUUUAHejFFFABijvRRQAUUUUAFFFFABRRQaADNFFFABR+FFH40AJRS0UAJRS0UAJRS0UAJRS0UAJRS0UAJRS0UAJRS0UAJRS0UAJRS0UAJRS0UAJRS0UAJRS0UAJRS0UAJRS0UAJRS0UAJRS0UAJRS0UAJRS0UAJRS0UAJRS0UAJRS0UAJRS0UAJRS0UAJRS0UAJRS0UAJRS0UAJRS0UAJRS0UAJRS0UAJRS0UAJRS0UAJRS0UAJRS0UAJRS0UAJRS0UAJRS0UAJS0UUAFFFFABRRRQAUUUUAFFFFABRRRQAUUUUAFFFFABRRRQAUUUUAFFFFABRRRQAUUUUAFFFFABRRRQAUUUUAFFFFABRRRQAUUUUAFFFFABzRR+NFABRzRR+NABRRRQAc0UfjRQAUc0UfjQAUUUUAHNFH40UAFHNFH40AFFFFABRmjt1pPWgBc0ZpPSigBc0ZpPWj0oAXNGaSj1oAXNGaT0ooAWik9aKAFoo70lAC0Gkpf89KACgUf56UUAFFAooAKPxoooAKKKKAD8aKKKACj8aKKACiiigA/GiiigAo/GiigAooooAPxooooAKPxoooAKKKKAD8aKKKACj8aKKACiiigA/GiiigAo/GiigAooooAPxooooAKPxoooAKKKKAD8aKKKACj8aKKACiiigA/GiiigAo/GiigAooooAPxooooAKPxoooAKKKKAD8aKKKACj8aKKACiiigA/GiiigAo/GiigAooooAPxooooAKKKKACiiigAooooAKKKKACiiigAooooAKKKKACiiigAooooAKKKKACiiigAooooAKKKKACiiigAooooAKKKKACiiigAooooAKKKKACiiigA7dKPwo5o5oAPXijt0o5o5oAPwo9eKOaOaADt0o/CjmjmgA9eKO3SjmjmgA/Cj14o5o5oAO3Sj8KOaOaAD14o7dKOaOaAD8KPXijmjmgA7dKT1pecUlAB6UUUUAHrR6UUUAFHrRRQAelFFFAB60Uvr9aKACkpaO1ACUtFFAB/nrRRRQAUUfzo+tABRRRQAUUUUAFFFFABRRRQAUUUUAFFFFABRRRQAUUUUAFFFFABRRRQAUUUUAFFFFABRRRQAUUUUAFFFFABRRRQAUUUUAFFFFABRRRQAUUUUAFFFFABRRRQAUUUUAFFFFABRRRQAUUUUAFFFFABRRRQAUUUUAFFFFABRRRQAUUUUAFFFFABRRRQAUUUUAFFFFABRRRQAUUUUAFFFFABRRRQAUUUUAFFFFABRRRQAUUUUAFFFFABRRRQAUUUUAFFFFABRRRQAUUUUAFFFFABRRRQAUUUUAFFFFABRRRQAUUUUAH40UYooAKPxooxQAUUUUAH40UYooAKPxooxQAUUUUAH40UYooAKPxooxQAUUUUAHbrSetLijHWgBPSilx0oxQAnrR6UuOtGOlACUetLijHWgBPSilx0oxQAnrRRR+FAC96SjNFABS/56Un4UtAB/npRRRQACijNBoAOKTtS0dqADijiiigBO1LxR2ooAOKTtS0dqADijiiigBO1LxR2ooAOKTtS0dqADijiiigBO1LxR2ooAOKTtS0dqADijiiigBO1LxR2ooAOKTtS0dqADijiiigBO1LxR2ooAOKTtS0dqADijiiigBO1LxR2ooAOKTtS0dqADijiiigBO1LxR2ooAOKTtS0dqADijiiigBO1LxR2ooAOKTtS0dqADijiiigBO1LxR2ooAOKTtS0dqADijiiigBO1LxR2ooAOKTtS0dqADijiiigBO1LxR2ooAOKTtS0dqADijiiigBO1LxR2ooAOKBRQKACijtRQAd6KO9HagAo70Ud6ACijtRQAd6KO9HagAo70Ud6ACijtRQAd6KO9HagAo70Ud6ACijtRQAd6KO9HagAo70Ud6ACijtRQAd6KO9HagAo70Ud6ACijtRQAd6KO9HagAo70Ud6ACijtRQAUd6O1HegAooo7UAHeijvRQAUd6O1HegAooo7UAHeijvRQAUd6O1HegAooo7UAHeijvRQAUUUUAFFFFABRRRQAUUUUAFFFFACHrRQevWj8f1oAO1FH40fj+tABSik/H9aWgAoNFBoAT+VFH86P0oAWjtRxSdqAFoo4o4oAO1FJ2peKACjtRxSdqAFoo4o4oAO1FJ2peKACjtRxSdqAFoo4o4oAO1FJ2peKACjtRxSdqAFoo4o4oAO1FJ2peKACjtRxSdqAFoo4o4oAO1FJ2peKACjtRxSdqAFoo4o4oAO1FJ2peKACjtRxSdqAFoo4o4oAO1FJ2peKACjtRxSdqAFoo4o4oAO1FJ2peKACjtRxSdqAFoo4o4oAO1FJ2peKACjtRxSdqAFoo4o4oAO1FJ2peKACjtRxSdqAFoo4o4oAO1FJ2peKACjtRxSdqAFoo4o4oAO1FJ2peKACijigUAH40fjRRQAd6Pxo70UAH40d6KO9AB+NH40UUAHej8aO9FAB+NHeijvQAfjR+NFFAB3o/GjvRQAfjR3oo70AH40fjRRQAd6Pxo70UAH40d6KO9AB+NH40UUAHej8aO9FAB+NHeijvQAfjR+NFFAB3o/GjvRQAfjR3oo70AH40fjRRQAUUUd6ACiiigAoo70UAFFFHegAooooAKKO9FABRRR3oAKKKKACijvRQAUUUUAFFFFABRRRQAUUUUAFFFFACHrRQetFAB2oo7UUAFKKSlFABQaKDQAn+c0frR/KigBaO1FHagAooooAO1FHaigAo7UUdqACiiigA7UUdqKACjtRR2oAKKKKADtRR2ooAKO1FHagAooooAO1FHaigAo7UUdqACiiigA7UUdqKACjtRR2oAKKKKADtRR2ooAKO1FHagAooooAO1FHaigAo7UUdqACiiigA7UUdqKACjtRR2oAKKKKADtRR2ooAKO1FHagAooooAO1FHaigAo7UUdqACiiigA7UUdqKACjtRR2oAKKKKADtRR2ooAKBRRQAdqKPxo/GgA70dqO9H40AFHej8aO9AB2oo/Gj8aADvR2o70fjQAUd6Pxo70AHaij8aPxoAO9HajvR+NABR3o/GjvQAdqKPxo/GgA70dqO9H40AFHej8aO9AB2oo/Gj8aADvR2o70fjQAUd6Pxo70AHaij8aPxoAO9HajvR+NABR3o/GjvQAdqKPxo/GgA7Ud6KKACjtRRQAd6KKKADtR3oooAKO1FFAB3ooooAO1HeiigAo7UUUAHeiiigAooooAKKKKACiiigAooooAKKKKAEPXrR+P60HrRQAfjR+P60dqKAD8f1paSlFABQaKDQAn86P0o/zmj9aAF4pO1LR2oAOKOKKKAE7UvFHaigA4pO1LR2oAOKOKKKAE7UvFHaigA4pO1LR2oAOKOKKKAE7UvFHaigA4pO1LR2oAOKOKKKAE7UvFHaigA4pO1LR2oAOKOKKKAE7UvFHaigA4pO1LR2oAOKOKKKAE7UvFHaigA4pO1LR2oAOKOKKKAE7UvFHaigA4pO1LR2oAOKOKKKAE7UvFHaigA4pO1LR2oAOKOKKKAE7UvFHaigA4pO1LR2oAOKOKKKAE7UvFHaigA4pO1LR2oAOKOKKKAE7UvFHaigA4pO1LR2oAOKOKKKAE7UvFHaigA4oFFAoAKKO1FAB3oo70dqACjvRR3oAKKO1FAB3oo70dqACjvRR3oAKKO1FAB3oo70dqACjvRR3oAKKO1FAB3oo70dqACjvRR3oAKKO1FAB3oo70dqACjvRR3oAKKO1FAB3oo70dqACjvRR3oAKKO1FABR3o7Ud6ACiijtQAd6KO9FABR3o7Ud6ACiijtQAd6KO9FABR3o7Ud6ACiijtQAd6KO9FABRRRQAUUUUAFFFFABRRRQAUUUUAIetFB69aPx/WgA7UUfjR+P60AFKKT8f1paACg0UGgBP5UUfzo/SgBaO1FFABRRRQAdqKKKACjtRRQAUUUUAHaiiigAo7UUUAFFFFAB2ooooAKO1FFABRRRQAdqKKKACjtRRQAUUUUAHaiiigAo7UUUAFFFFAB2ooooAKO1FFABRRRQAdqKKKACjtRRQAUUUUAHaiiigAo7UUUAFFFFAB2ooooAKO1FFABRRRQAdqKKKACjtRRQAUUUUAHaiiigAo7UUUAFFFFAB2ooooAKKKP5UAH40fjRRQAd6Pxo/lRQAfjR3oo/lQAfjR+NFFAB3o/Gj+VFAB+NHeij+VAB+NH40UUAHej8aP5UUAH40d6KP5UAH40fjRRQAd6Pxo/lRQAfjR3oo/lQAfjR+NFFAB3o/Gj+VFAB+NHeij+VAB+NH40UUAHej8aP5UUAH40d6KP5UAH40fjRRQAUUUUAFFFFABRRRQAUUUUAFFFFABRRRQAUUUUAFFFFABRRRQAUUUtACUUUUAFFLSUAFFFLQAlFFFACHrRSmjigBO1FLxRxQAlKKOKKACg0UUAJ/nNH60tHFABRRRQAUUUUAFFFFABRRRQAUUUUAFFFFABRRRQAUUUUAFFFFABRRRQAUUUUAFFFFABRRRQAUUUUAFFFFABRRRQAUUUUAFFFFABRRRQAUUUUAFFFFABRRRQAUUUUAFFFFABRRRQAUUUUAFFFFABRRRQAUUUUAFFFFABRRRQAUUUUAFFFFABRRRQAUUUUAFFFFABRRRQAUUUUAFFFFABRRRQAUUUUAFFFFABRRRQAUUUUAFFFFABRRRQAUUUUAFFFFABRRRQAUUUUAFFFFABRRRQAUUUUAFFFFABRRRQAUUUUAHaijtRQAUdqKO1ABRRRQAdqKO1FABR2oo7UAFFFFAB2oo7UUAFHaijtQAUUUUAFLSUtACUtJS0AFJS0lAC0UUUAJS0lLQAho/Cg0UAHfpR+FHeigA/Cj8KKKAD8KKKKACj8KKKACiiigA9KKKKACj0oooAKKKKAD0ooooAKPSiigAooooAPSiiigAo9KKKACiiigA9KKKKACj0oooAKKKKAD0ooooAKPSiigAooooAPSiiigAo9KKKACiiigA9KKKKACj0oooAKKKKAD0ooooAKPSiigAooooAPSiiigAo9KKKACiiigA9KKKKACj0oooAKKKKAD0ooooAKPSiigAooooAPSiiigAo9KKKACjt7UUUAFHf3oooAO3tRRRQAd/ejt7UUUAFHf3oooAO3tRRRQAd/ejt7UUUAFHf3oooAO3tRRRQAd/ejt7UUUAFHf3oooAO3tRRRQAd/ejt7UUUAFHf3oooAO3tRRRQAd/ejt7UUUAFHf3oooAO3tRRRQAd/ejt7UUUAFFFFABRR2ooAKKKO1ABRRRQAUUdqKACiijtQAUUUUAFFHaigAooo7UAFFFFABRRS0AJRRS0AJRS0lABRS0UAJRRS0AIaOKDR+FABxRxR36UfhQAcUUfhR+FAB60UfhRQAUCij8KACiiigAoo9KKACiij0oAKKKKACij0ooAKKKPSgAooooAKKPSigAooo9KACiiigAoo9KKACiij0oAKKKKACij0ooAKKKPSgAooooAKKPSigAooo9KACiiigAoo9KKACiij0oAKKKKACij0ooAKKKPSgAooooAKKPSigAooo9KACiiigAoo9KKACiij0oAKKKKACij0ooAKKKPSgAooooAKKPSigAooo9KACiijt7UAFFFHf3oAKKO3tRQAUUd/ejt7UAFFFHf3oAKKO3tRQAUUd/ejt7UAFFFHf3oAKKO3tRQAUUd/ejt7UAFFFHf3oAKKO3tRQAUUd/ejt7UAFFFHf3oAKKO3tRQAUUd/ejt7UAFFFHf3oAKKO3tRQAUUd/ejt7UAFFFFAB2ooooAKO1FFABRRRQAdqKKKACjtRRQAUUUUAHaiiigAo7UUUAFFFFABS0lFABS0lFAC0lFFAC0UlFABS0lFAAaKDRxQAd6KOKOKACijiigAoo9aKACiigUAFFFFABRRRQAUUUUAFFFFABRRRQAUUUUAFFFFABRRRQAUUUUAFFFFABRRRQAUUUUAFFFFABRRRQAUUUUAFFFFABRRRQAUUUUAFFFFABRRRQAUUUUAFFFFABRRRQAUUUUAFFFFABRRRQAUUUUAFFFFABRRRQAUUUUAFFFFABRRRQAUUUUAFFFFABRRRQAUUUUAFFFFABRRRQAUUUUAFFFFABRRRQAUUUUAFFFFABRRRQAUUUUAFFFFABRRRQAUUUUAFFFFABRRRQAUUUUAFFFFABRRRQAUUUUAFFFFABRRRQAdqKO1FABR2oo7UAFFFFAB2oo7UUAFHaijtQAUUUUAHaijtRQAUdqKO1ABRRRQAUtJS0AJS0lLQAUlLSUALRRRQAlLSUtACGj8KDRQAd+lH4Ud6KAD8KPwoooAPwooooAKPwoooAKKKKAD0ooooAKPSiigAooooAPSiiigAo9KKKACiiigA9KKKKACj0oooAKKKKAD0ooooAKPSiigAooooAPSiiigAo9KKKACiiigA9KKKKACj0oooAKKKKAD0ooooAKPSiigAooooAPSiiigAo9KKKACiiigA9KKKKACj0oooAKKKKAD0ooooAKPSiigAooooAPSiiigAo9KKKACiiigA9KKKKACj0oooAKO3tRRQAUd/eiigA7e1FFFAB396O3tRRQAUd/eiigA7e1FFFAB396O3tRRQAUd/eiigA7e1FFFAB396O3tRRQAUd/eiigA7e1FFFAB396O3tRRQAUd/eiigA7e1FFFAB396O3tRRQAUd/eiigA7e1FFFAB396O3tRRQAUUUUAFFHaigAooo7UAFFFFABRR2ooAKKKO1ABRRRQAUUdqKACiijtQAUUUUAFFFLQAlFFLQAlFLSUAFFLRQAlFFLQAho4oNH4UAHFHFHfpR+FABxRR+FH4UAHrRR+FFABQKKPwoAKKKKACij0ooAKKKPSgAooooAKKPSigAooo9KACiiigAoo9KKACiij0oAKKKKACij0ooAKKKPSgAooooAKKPSigAooo9KACiiigAoo9KKACiij0oAKKKKACij0ooAKKKPSgAooooAKKPSigAooo9KACiiigAoo9KKACiij0oAKKKKACij0ooAKKKPSgAooooAKKPSigAooo9KACiiigAoo9KKACiij0oAKKKO3tQAUUUd/egAoo7e1FABRR396O3tQAUUUd/egAoo7e1FABRR396O3tQAUUUd/egAoo7e1FABRR396O3tQAUUUd/egAoo7e1FABRR396O3tQAUUUd/egAoo7e1FABRR396O3tQAUUUd/egAoo7e1FABRR396O3tQAUUUUAHaiiigAo7UUUAFFFFAB2ooooAKO1FFABRRRQAdqKKKACjtRRQAUUUUAFLSUUAFLSUUALSUUUALRSUUAFLSUUABooNHFAB3oo4o4oAKKOKKACij1ooAKKKBQAUUUUAFFFFABRRRQAUUUUAFFFFABRRRQAUUUUAFFFFABRRRQAUUUUAFFFFABRRRQAUUUUAFFFFABRRRQAUUUUAFFFFABRRRQAUUUUAFFFFABRRRQAUUUUAFFFFABRRRQAUUUUAFFFFABRRRQAUUUUAFFFFABRRRQAUUUUAFFFFABRRRQAUUUUAFFFFABRRRQAUUUUAFFFFABRRRQAUUUUAFFFFABRRRQAUUUUAFFFFABRRRQAUUUUAFFFFABRRRQAUUUUAFFFFABRRRQAUUUUAFFFFABRRRQAUUUUAFFFFAB2oo7UUAFHaijtQAUUUUAHaijtRQAUdqKO1ABRRRQAdqKO1FABR2oo7UAFFFFABS0lLQAlLSUtABSUtJQAtFFFACUtJS0AIaPwoNFAB36UfhR3ooAPwo/CiigA/CiiigAo/CiigAooooAPSiiigAo9KKKACiiigA9KKKKACj0oooAKKKKAD0ooooAKPSiigAooooAPSiiigAo9KKKACiiigA9KKKKACj0oooAKKKKAD0ooooAKPSiigAooooAPSiiigAo9KKKACiiigA9KKKKACj0oooAKKKKAD0ooooAKPSiigAooooAPSiiigAo9KKKACiiigA9KKKKACj0oooAKKKKAD0ooooAKPSiigAo7e1FFABR396KKADt7UUUUAHf3o7e1FFABR396KKADt7UUUUAHf3o7e1FFABR396KKADt7UUUUAHf3o7e1FFABR396KKADt7UUUUAHf3o7e1FFABR396KKADt7UUUUAHf3o7e1FFABR396KKADt7UUUUAHf3o7e1FFABRRRQAUUdqKACiijtQAUUUUAFFHaigAooo7UAFFFFABRR2ooAKKKO1ABRRRQAUUUtACUUUtACUUtJQAUUtFACUUUtACGjig0fhQAcUcUd+lH4UAHFFH4UfhQAetFH4UUAFAoo/CgAooooAKKPSigAooo9KACiiigAoo9KKACiij0oAKKKKACij0ooAKKKPSgAooooAKKPSigAooo9KACiiigAoo9KKACiij0oAKKKKACij0ooAKKKPSgAooooAKKPSigAooo9KACiiigAoo9KKACiij0oAKKKKACij0ooAKKKPSgAooooAKKPSigAooo9KACiiigAoo9KKACiij0oAKKKKACij0ooAKKKPSgAooo7e1ABRRR396ACijt7UUAFFHf3o7e1ABRRR396ACijt7UUAFFHf3o7e1ABRRR396ACijt7UUAFFHf3o7e1ABRRR396ACijt7UUAFFHf3o7e1ABRRR396ACijt7UUAFFHf3o7e1ABRRR396ACijt7UUAFFHf3o7e1ABRRRQAdqKKKACjtRRQAUUUUAHaiiigAo7UUUAFFFFAB2ooooAKO1FFABRRRQAUtJRQAUtJRQAtJRRQAtFJRQAUtJRQAGig0cUAHeijijigAoo4ooAKKPWigAoooFABRRRQAUUUUAFFFFABRRRQAUUUUAFFFFABRRRQAUUUUAFFFFABRRRQAUUUUAFFFFABRRRQAUUUUAFFFFABRRRQAUUUUAFFFFABRRRQAUUUUAFFFFABRRRQAUUUUAFFFFABRRRQAUUUUAFFFFABRRRQAUUUUAFFFFABRRRQAUUUUAFFFFABRRRQAUUUUAFFFFABRRRQAUUUUAFFFFABRRRQAUUUUAFFFFABRRRQAUUUUAFFFFABRRRQAUUUUAFFFFABRRRQAUUUUAFFFFABRRRQAUUUUAFFFFABRRRQAUUUUAHaij/ADmigAo7UUf5zQAUUUUAHaij/OaKACjtRR/nNABRRRQAdqKP85ooAKO1FH+c0AFFFFABRmij0oAM0ZoooAM0Zo9KKADNGaKPSgAzRmiigAoo7UUAFFFFABRRRQAUUUUAFH4UUUAFFFHegAooooAKKO9FABRRR3oAKKKKACijvRQAUUUd6ACiiigAoo70UAFFFHegAooooAKKO9FABRRR3oAKKKKACijvRQAUUUd6ACiiigAoo70UAFFFHegAooooAKKO9FABRRR3oAKKKKACijvRQAUUUd6ACiiigAoo70UAFFFHegAooooAKKO9FABRRR3oAKKKKACijvRQAUUUd6ACiiigAoo70UAFFFFABRRRQAUUUUAFFFFABRRRQAUUUUAFFFFABRRRQAUUUUAFFFFABRRRQAUUUUAFFFFABRRRQAUUUUAFFFFABRRRQAUUUUAFFFFABRRRQAdvajv70fzooAKO3tRR/OgA7+9FFFAB29qO/vR/OigAo7e1FH86ADv70UUUAHb2o7+9H86KACjt7UUfzoAO/vRRRQAdvaj0oo9KACiiigA9KKPSigAo9KKPSgAooooAKKKKACiiigAooooAKKKKACijvRQAUUUUAFFFFABRRRQAUUUUAFFFFABRRRQAUUUUAFFFFABRRRQAUUUUAFFFFABRRRQAUUUUAFFFFABRRRQAUUUUAFFFFABRRRQAUUUUAFFFFABRRRQAUUUUAFFFFABRRRQAUUUUAFFFFABRRRQAUUUUAFFFFABRRRQAUUUUAFFFFABRRRQAUUUUAFFFFABRRRQAUUUUAFFFFABRRRQAUUUUAFFFFABRRRQAUUUUAFFFFABRRRQAUUUUAFFFFABRRRQAUUUUAFFFFABRRRQAUUUUAFFFFABRRRQAUUUUAFFFFAB/nNFHb2o7+9ABR/nNFHb2oAKKO/vRQAf5zRR29qO/vQAUf5zRR29qACijv70UAH+c0Udvajv70AFH+c0UdvagAoo7+9FABR6Udvaj0oAKKKKAD0oo9KKACj0oo9KACiiigA7UUUUAFFFFABRRRQAUUUUAFFFFABR3oooAKKKKADvRRRQAUd6KKACiiigA70UUUAFHeiigAooooAO9FFFABR3oooAKKKKADvRRRQAUd6KKACiiigA70UUUAFHeiigAooooAO9FFFABR3oooAKKKKADvRRRQAUd6KKACiiigA70UUUAFHeiigAooooAO9FFFABR3oooAKKKKADvRRRQAUd6KKACiiigA70UUUAFHeiigAooooAO9FFFABRRRQAUUUUAFFFFABRRRQAUUUUAFFFFABRRRQAUUUUAFFFFABRRRQAUUUUAFFFFABRRRQAUUUUAFFFFABRRRQAUUUUAFFFFABRRRQAUUUUAH86KP85ooAKP50Uf5zQAUUUUAH86KP8AOaKACj+dFH+c0AFFFFAB/Oij/OaKACj+dFH+c0AFFFFABR6UUelABRRRQAelFHpRQAUelFHpQAUUUUAFFHaigAooooAKKKKACiiigA70UUUAFFFHegAooooAKKO9FABRRR3oAKKKKACijvRQAUUUd6ACiiigAoo70UAFFFHegAooooAKKO9FABRRR3oAKKKKACijvRQAUUUd6ACiiigAoo70UAFFFHegAooooAKKO9FABRRR3oAKKKKACijvRQAUUUd6ACiiigAJxzSZFD9DWZrmvaf4Z0q61LVbyDTtPtIzNcXNxII44kHVmJ6AYNAGjJKkaMzMFVRksTgAUkFxHcRq8ciyIwyGQgg/jX49/tuf8FR9T8fx6j4K+FF0+leHZcxXeuIuLi7XPKxk8xqe5GGx3wTXuH/BJ79riX4i+Frz4YeKdQNx4g0ZBcaZNO+6W5tiSHUk8sUbbz1/ee1AH6MUU1BgU6gAoo70UAFFFHegAooooAKKO9FABRRR3oAKKKKACijvRQAUUUUAFFFFABRRRQAUUUUAFFFFABRRRQAUUUUAFFFFABRRRQAUUUUAFFFFABRRRQAUUUUAFFFFABRRRQAUUUUAFFFFABRRRQAUUUUAFFFFAB29qO/vR/OigAo7e1FH86ADv70UUUAHb2o7+9H86KACjt7UUfzoAO/vRRRQAdvajv70fzooAKO3tRR/OgA7+9FFFAB29qPSij0oAKKKKAD0oo9KKACj0oo9KACiiigAooooAKKKKACiiigAooooAKKO9FABRRRQAUUUUAFFFFABRRRQAUUUUAFFFFABRRRQAUUUUAFFFFABRRRQAUUUUAFFFFABRRRQAUUUUAFFFFABRRRQAUUUUAFFFFABRRRQAUUUUAFFFFABRRRQAUUUUAFFFFABRRRQAU1yAvJxSM2Dwa+Wf2wv2+PB37L2jXFhFt8ReNZU22ujwygCNv78zYO1R1wASenGcgA9d+Ov7QXgv9njwdL4i8Y6vFYQ4YW1qDvnu3A+7FGMse2TjAyMkZFfiH+2J+3R4u/ao1qW0Mkui+C4JP8AQ9FjfhgOjzEcMx698dB0ryb43/Hrxj+0B4wuPEXi7VJL24dj5NuCVhtk7LGueB+tec5zQAV1vwr+I+rfCbx7ovizQ7l7XUtMuFmjdDgkfxKfYjIrkqM8UAf0s/s8fHDRf2hPhLoHjXRZlKX0IFzDn5re4UlZI2HbDA49Rg969MU5PFfhv/wTC/a0PwN+J6+D9eudnhDxJMsbSSvhbO4OFWTHoflB9hX7jRSCQZByp5BFAElFFFABRRRQAUUUUAFFFFABRRRQAUUUUAFFFFABRRRQAUUUUAFFFFABRRRQAUUUUAFFFFABRRRQAUUUUAFFFFABRRRQAUUUUAFFFFABRRRQAUUUUAFFFFABRRRQAUUUUAFFFFABRRRQAUUUUAH+c0Udvajv70AFH+c0UdvagAoo7+9FAB/nNFHb2o7+9ABR/nNFHb2oAKKO/vRQAf5zRR29qO/vQAUf5zRR29qACijv70UAFHpR29qPSgAooooAPSij0ooAKPSij0oAKKKKADtRRRQAUUUUAFFFFABRRRQAUUUUAFHeiigAooooAO9FFFABR3oooAKKKKADvRRRQAUd6KKACiiigA70UUUAFHeiigAooooAO9FFFABR3oooAKKKKADvRRRQAUd6KKACiiigA70UUUAFHeiigAooooAO9FFFABR3oooAKKKKADvRSE4Ge1JuGCe386AHVFPOkETySMFRAWZicAD1NYPjz4h+Hfhn4XvvEXijV7bRdHs0LzXV0+FHoAOpY9AoBJJwBX41/tvf8FLdb+OM134T8AzXOheBwWSa4BKXGodhu7qnX5e+eRwKAPo/9uD/AIKjW3geTUvBXwlu4L7XoswXWvqizQ2r91izlWde5IIB4xwa/JHXvEOpeKNXutU1e/uNT1G5cyTXV3IZJZGPUsx5JrPJz2pCc0ALuOD/ADpKKKACiiigB0bmNgwJBHcdq/dP/gmf+1o/7QHwqHh/Xrr7R4y8OQpFcySY33MAwqS47n7oJ9Wr8KwcfX1r1D9mz456r+zx8YfD/jTTGkK2U227t0bAnt3BWVCO/wArEjPcA9qAP6VA5JGcCnVyvwy+IWj/ABU8D6P4p0K7jvNL1KBZopIznHqp9CDkV1VABR3oooAKKKKADvRRRQAUd6KKACiiigA70UUUAFFFFABRRRQAUUUUAFFFFABRRRQAUUUUAFFFFABRRRQAUUUUAFFFFABRRRQAUUUUAFFFFABRRRQAUUUUAFFFFABRRRQAUUUUAFFFFABRRRQAfzoo/wA5ooAKP50Uf5zQAUUUUAH86KP85ooAKP50Uf5zQAUUUUAH86KP85ooAKP50Uf5zQAUUUUAFHpRR6UAFFFFAB6UUelFABR6UUelABRRRQAUUdqKACiiigAooooAKKKKADvRRRQAUUUd6ACiiigAoo70UAFFFHegAooooAKKO9FABRRR3oAKKKKACijvRQAUUUd6ACiiigAoo70UAFFFHegAooooAKKO9FABRRR3oAKKKKACijvRQAUUUd6ACiiigAoo70UAFFFHegApCQKWmuSAMCgAJDA814z+0h+1R4H/AGY/C0mreKL8S3jKfsmk2zD7RcsOgA7DP8R/WvFv21/+Cifhv9m21n8OeGmt9f8AHkikfZlYNFY+jTY7+i5Ffi18Uviv4p+M3i+98T+LtXuNY1a6bLSzEBY17IijhFHYAAd+pNAHpP7Uf7ZPjn9qbxE9zrkw03QYnJs9DtZCYYV7bjxvb3IH0FeCk5NFFABRRRQAUUUUAFFFFABSqdpzSUCgD9JP+CSn7W//AAh3iS4+E3ia7xpGquJ9HmkbiC5xh4zns42kehQ9c8fsEGBA561/LLo+rXeg6paajYTva3lrKssU0bYZGByCK/oG/YP/AGnbf9pr4H6bqV3NGfFWmAWOrxAjcZU4EuB0Drtb0yxoA+laKKO9ABRRRQAUUd6KACiijvQAUUUUAFFHeigAooooAKKKKACiiigAooooAKKKKACiiigAooooAKKKKACiiigAooooAKKKKACiiigAooooAKKKKACiiigAooooAKKKKACiiigAooooAKKKKADt7Ud/ej+dFABR29qKP50AHf3ooooAO3tR396P50UAFHb2oo/nQAd/eiiigA7e1Hf3o/nRQAUdvaij+dAB396KKKADt7UelFHpQAUUUUAHpRR6UUAFHpRR6UAFFFFABRRRQAUUUUAFFFFABRRRQAUUd6KACiiigAooooAKKKKACiiigAooooAKKKKACiiigAooooAKKKKACiiigAooooAKKKKACiiigAooooAKKKKACiiigAooooAKKKKACiiigAooooAKKKKACio9xx1/pXF/Fn4w+Fvgn4RuvEni3VotM02FTgufnkb+6i9WJoA6zUdRtdLs5bu9uYbS1gUvLPO4RI1HVmY8AD1r8r/23/8AgqcL6DUfBXwevH8pswXniaMFCw6MtvnDe2/A9s5r56/bQ/4KIeKv2k9UudG0ATeGfAcblIrJJsz3YHG+ZgBjPXYOnTJ618dufegCa9up764luLiRpp5XLySO25mY8kk1XozRQAUUUUAFFFFABRRRQAUUUUAFFFFAAOtfQH7Ff7Td3+y/8ZbDX3kkbw9dsttq9vHk74CeWC92XJI96+f6MmgD+pXQ9asvEWl2up6bdx32n3cSzwXMLZSRGGVYHuCO9aI4Ar8xf+CSP7Ww1vTW+D3iS7JvrONptEnmf/WRKMtBz3Vckeymv05QggYoAdRRRQAUUUUAFFFFABRRRQAUUUUAFFFFABRRRQAUUUUAFFFFABRRRQAUUUUAFFFFABRRRQAUUUUAFFFFABRRRQAUUUUAFFFFABRRRQAUUUUAFFFFABRRRQAUUUUAFFFFABRRRQAf5zRR29qO/vQAUf5zRR29qACijv70UAH+c0Udvajv70AFH+c0UdvagAoo7+9FAB/nNFHb2o7+9ABR/nNFHb2oAKKO/vRQAUelHb2o9KACiiigA9KKPSigAo9KKPSgAooooAO1FFFABRRRQAUUUUAFFFFABRRRQAUd6KKACiiigA70UUUAFHeiigAooooAO9FFFABR3oooAKKKKADvRRRQAUd6KKACiiigA70UUUAFHeiigAooooAO9FFFABR3oooAKKKKADvRRRQAUd6KKACiikZgoyTxQAMcDNNMuD0psk6RozM21QMknoK+BP22v+CnGh/Bv7b4R+HF3B4g8ZopjuL2P57TT3I6bvuyOM9FyAeCQQQAD3n9rH9s3wX+yx4akl1W4TUfE1xH/oGhxOPNmbszf3UHUnv0zzX4eftGftQeOv2mPF76x4t1V5bWJmFlpkJ2W1ohPRVHUnAyxyT68CvPfF/jTWvHviK913xBqNxq2rXshluLu6kLySMeuWPNYhOTmgBdx46ce1ISTRRQAUUUUAFFFFABRRRQAUUUUAFFFFABRRRQAUUUUAdD4D8cav8ADfxjo/ijQbprLVtLuUureZf4WU9D6gjKkdwSO9f0T/stfH7TP2jvg5o/i/TpENy6+RfwL1guFA3qR26g/jX83BYdhX1//wAE3f2rT+zt8Xhper3Dp4P8SGO2vVJJSCUE+XNj23MD/vD0oA/eZTkUtQWt1FdQRTQypLFIodJEYFWU8gg9wRUwbNAC96KKKACjvRRQAUUUUAHeiiigAooooAKKKKACiiigAooooAKKKKACiiigAooooAKKKKACiiigAooooAKKKKACiiigAooooAKKKKACiiigAooooAKKKKACiiigAooooAKKKKAD+dFH+c0UAFH86KP85oAKKKKAD+dFH+c0UAFH86KP85oAKKKKAD+dFH+c0UAFH86KP85oAKKKKACj0oo9KACiiigA9KKPSigAo9KKPSgAooooAKKO1FABRRRQAUUUUAFFFFAB3ooooAKKKO9ABRRRQAUUd6KACiijvQAUUUUAFFHeigAooo70AFFFFABRR3ooAKKKO9ABRRRQAUUd6KACiijvQAUUUUAFFHeigAooo70AFFFFABRR3ooAKKKCcUAJkCsrxP4o0nwfod3q+tX8GmaZaRmWe6uG2oigck/4VxXx4+P/AIN/Z48GzeI/GGpR2VuARBbAgzXTj+CNerH6etfh/wDteft2+Nv2p9XktJbiTQ/Bkcm620O2barAH5WmYcyN3wTtB6AYFAHv37b/APwVE1L4gtd+CvhY0mk+HRuivNdL/wCkXo6bYwBiNOvOSTkfdxz+dU073EjSSyM8jEksxyWJOSSaYzZXHem0AFFFFABRRRQAUUUUAFFFFABRRRQAUUUUAFFFFABRRRQAUUUUAFOSQxkMpKsOhB5FNooA/bL/AIJY/taL8X/hlF8P9fuAfFHhqPyoZHfLXdpkmNuf4kHyd+EB7195r198c1/Mv8D/AIw698CfiVo3jLw9cNDfafOrtH/DPHn5o2HdWHBr+jb4P/FHRfjN8PNF8YeH5fN0vU7dZowWy0ZIGUb/AGhnBoA7SijvRQAUUUd6ACiiigAoo70UAFFFFABRRRQAUUUUAFFFFABRRRQAUUUUAFFFFABRRRQAUUUUAFFFFABRRRQAUUUUAFFFFABRRRQAUUUUAFFFFABRRRQAUUUUAFFFFABRRRQAdvajv70fzooAKO3tRR/OgA7+9FFFAB29qO/vR/OigAo7e1FH86ADv70UUUAHb2o7+9H86KACjt7UUfzoAO/vRRRQAdvaj0oo9KACiiigA9KKPSigAo9KKPSgAooooAKKKKACiiigAooooAKKKKACijvRQAUUUUAFFFFABRRRQAUUUUAFFFFABRRRQAUUUUAFFFFABRRRQAUUUUAFFFFABRRRQAUUUUAFFFFABRRRQAUUUUAFFFFABRRRQBGTtwck/rXyt+2P+3z4M/Ze0p9Nt54/EHjidG+z6PbHIg/6aTuOEHPCk7j6YzX0v4l0qbWfD+qWFrfS6bc3drLBFewgF4HZCokXPGVzkfSv5wP2k/h14p+F/wAZPEeg+MJ7m71eG5L/AGy4JJuUYkrICex/oaAM743fHHxb8ffHF34o8XapLqF7PxHEWPl26DpHGvRVHXA7knqa8+NK3WkoAKKKKACiiigAooooAKKKKACiiigAooooAKKKKACiiigAooooAKKKKACiiigBR3r9CP8Agk5+1RJ8O/iOnwv12526B4idvsTyH5YLwKWVfYPgr/vMtfntmvQv2eLS/wBQ+PHw9g01Xa+bX7Hy9nUYnQk/gATQB/TEvzYNPqtYh0tolk/1gVQ31xzVmgAooooAKKKKACiiigAooooAKKKKACiiigAooooAKKKKACiiigAooooAKKKKACiiigAooooAKKKKACiiigAooooAKKKKACiiigAooooAKKKKACiiigAooooAKKKKAD/OaKO3tR396ACj/OaKO3tQAUUd/eigA/zmijt7Ud/egAo/zmijt7UAFFHf3ooAP85oo7e1Hf3oAKP85oo7e1ABRR396KACj0o7e1HpQAUUUUAHpRR6UUAFHpRR6UAFFFFAB2ooooAKKKKACiiigAooooAKKKKACjvRRQAUUUUAHeiiigAo70UUAFFFFAB3ooooAKO9FFABRRRQAd6KKKACjvRRQAUUUUAHeiiigAo70UUAFFFFAB3ooooAKO9FFABRRRQAd6KKKAE2/iPSvg//AIKmfsnR/GH4bxeOvD1kG8W+GkczeUDvu7M4LJjuUIyPQM3rX3jUFxAlzFJFKgkjkBRkbkFSMEGgD+WButJX2H/wUo/ZRn/Z/wDjNd65pFoy+DPEkhu7SRFwlvMeZYT6fNlh2ww+lfHpUjrQAlFFFABRRRQAUUUUAFFFFABRRRQAUUUUAFFFFABRRRQAUUUUAFFFGPcUAFKBkUbTnHFfUn7K/wDwT6+I/wC0ldQ6h/ZzeHPCAYebrWojYJB/0xT7zn3A2+9AHzZ4f8N6n4q1i20rR7C41PUrlxHBaWkZklkY9Aqjkmv11/4J5f8ABOHUPg94ks/iR8R40HiKCJjpukDDC0Z1KmST1cKzAA9M9MgV9Wfs1/sg/D79mLQo7bwzpqTawyYudauUBuZz3+bkhfRQcCvcI1GSf50AOVADTqKKACjvRRQAUUUUAHeiiigAooooAKKKKACiiigAooooAKKKKACiiigAooooAKKKKACiiigAooooAKKKKACiiigAooooAKKKKACiiigAooooAKKKKACiiigAooooAKKKKAD+dFH+c0UAFH86KP8AOaACiiigA/nRR/nNFABR/Oij/OaACiiigA/nRR/nNFABR/Oij/OaACiiigAo9KKPSgAooooAPSij0ooAKPSij0oAKKKKACijtRQAUUUUAFFFFABRRRQAd6KKKACiijvQAUUUUAFFHeigAooo70AFFFFABRR3ooAKKKO9ABRRRQAUUd6KACiijvQAUUUUAFFHeigAooo70AFFFFABRR3ooAKKKO9ABRRRQAUUd6KACkOe3X3paO9AHkX7T/7PmkftJ/CTV/B+p7YJpoy9jeFdxtrgD5Hx3AOMjPNfzqeOvBOr/DvxXqfhvXbRrLVtOna3uIG/hdTg/hxX9Qr4JweK/Mv/AIK3fsmprOgf8Lh8O2WL6w2Ra3FAvMsLMFWYgd1YqD7Ek0AfkfjFFOYHnJptABRRRQAUUUUAFFFFABRRRQAUUUUAFFFFABRRRQAUYzRT4ozK4UAljwAOpPpQAwV2Pwz+Eviz4v8AiK30Pwlot1rOoSsFEcCZVR6s3QfnX1r+yT/wS88ZfG02uv8AjZbjwh4RbbIiyJtu7xf9hSPlH+0QQc8V+vHwX/Z/8C/AHwxDongrw/baRAqgSzgF5527tJIxLNk5OM4GcAAUAfG/7Jf/AASe8OfDaSx8S/E+5i8U+IUw6aRCpFlbP23MfmlI6g4UZHQ1+glhptrpFpFa2cEdrbRKEjiiUKij2ArH8deP9A+Gnhq81/xLqtto+kWi7prq6kCIPQZOOSeAPWvyr/a3/wCCtmr+JFuvDfwgB0bTjujl8QTRq9xKOn7pWBCDryQT0wRQB+hfxc/a/wDhd8FvEuleH/EniSKLVr+4SAW1uBI0AY43y8gKo6nvjtXtMLrIu9SGVuQQ2Rj2r+W3Wtb1DxHqtxqWq3s+o6hdP5k11dytJJK3qzE5P41+2H/BLz9rR/jd8ND4M8RX32jxd4chVRLL9+6tQQqyH1IyoJ7k0Afc+aKavXNOoAKKKO9ABRRRQAUUd6KACiiigAooooAKKKKACiiigAooooAKKKKACiiigAooooAKKKKACiiigAooooAKKKKACiiigAooooAKKKKACiiigAooooAKKKKACiiigAooooAO3tR396P50UAFHb2oo/nQAd/eiiigA7e1Hf3o/nRQAUdvaij+dAB396KKKADt7Ud/ej+dFABR29qKP50AHf3ooooAO3tR6UUelABRRRQAelFHpRQAUelFHpQAUUUUAFFFFABRRRQAUUUUAFFFFABRR3ooAKKKKACiiigAooooAKKKKACiiigAooooAKKKKACiiigAooooAKKKKACiiigAooooAKKKKACiiigAooooAKKKKACiiigAooooAKKKKACs/X9Fs/Eei32lahAt1YX0EltcQvyHjdSrKfqCRWhTXGRQB/PB+2/+zLf/ALMfxmvdIMDf8I9qRa80i5zlZIs/MnsVJGR2DL61881/Qp+3d+y9Z/tN/Ba70+JEi8S6SGvNKuimSHx88Z/2WAH4qK/n51nRrvQNVvNNv7d7S9tJWgnhkGGR1OGB/EGgCjRRRQAUUUUAFFFFABRRRQAUUUUAFFFFABSgfrV7RtDvvEWo2+n6ZZzX19O4SK3gQu7k9AAK/R79kn/gklqnib7J4m+Ltw+j6ZlXh8PWq7riYHn97ITiMdOAGznqMcgHxR8CP2ZPiH+0Z4gTTvBmgTXsIcCfUZcRWluO5eViF4HO0Zb0Br9hv2Tv+CbHgT9nk2eu62sPizxnEAy380eYbZz1MKMOo6b8A4r6j8BfDvw38MfDlpoXhjSbbR9Ktl2RwW6YHXqT1Jz3NYHxn+Pvgj4B+GLjXPGOtQ6dbxj5LdSGnmbsqJnkn8B70AegFhEhbIRQM+gHvXx3+1b/AMFLPh9+z/8Aa9D0K5j8ZeM412/YbFibe3Y9PNmHy/UKSR3Ar4K/a1/4Ki+NPjWbnQPBUcngzwkSyM6S77y8X1dgAEH+yAT/ALVfDk9xJcyvLLI8sjnczuxLMfUk9aAPUvjz+0t48/aO8RHVPGesS3yxuWt7FWIt7bP9xOg+o615UxyTSZooAK9D+AHxm1f4BfFnw/420aR1n02fdLCjY8+FgVkjP+8jMPrivPk29wT7DvXc/CP4JeMvjh4ot9A8HaJPq19M2CyKRFGO7O/QADk9/agD+jj4RfE/RvjH8P8ARPFug3K3WnalAJVK/wADfxKe4IPY12lfL/7B37MGv/sq/Cy+0TxB4n/ty5v50uzZxxlbewbaQyoxJLZ+XJwPujium+MP7bvwg+B2qnS/EviuEasgBexs186RB6tg4H0zQB71RXhHws/bb+DnxgmW30DxpZC9b/l0vT5Eo/Pj9a9ttNRt76AS29xFcRno8Thx+YoAtUUinIpaACiiigAooooAKKKKACiiigAooooAKKKKACiiigAooooAKKKKACiiigAooppbHXoKAHUVFJMsalmYKFGSScDFeafEP9pj4ZfCq2km8TeNNK07YM+X53mOT6bVzQB6h/OjNfAfxI/4LGfCnwuzweGdF1jxZcrn5gyWsB9MOd5P/fNfNfjX/gtN8Q9Tkl/4RfwXomhRt90308l6w98gRUAfscWHrS7gK/BDWv8AgqT+0BrLlk8TW2m5/hsrTaB/30zVjQ/8FJv2hYpQ7fEG5kA/haBCP5CgD+ggMD6Utfh14J/4K7/GzwzKg1SPRfElsPvrdW7xyEezK+B+Rr7M+Bf/AAV4+G/xGvLbTPGGl3PgLUpiFE8kwu7Mn3kCoy57fKaAPvmis3QfEWn+JtMg1DSr2DULGYBo7i2kDqwPuK0utABRRRQAUUUUAFFFFABRRRQAUUUUAH+c0Udvajv70AFH+c0UdvagAoo7+9FAB/nNFHb2o7+9ABR/nNFHb2oAKKO/vRQAf5zRR29qO/vQAUf5zRR29qACijv70UAFHpR29qPSgAooooAPSij0ooAKPSij0oAKKKKADtRRRQAUUUUAFFFFABRRRQAUUUUAFHeiigAooooAO9FFFABR3oooAKKKKADvRRRQAUd6KKACiiigA70UUUAFHeiigAooooAO9FFFABR3oooAKKKKADvRRRQAUd6KKACiiigA70UUUAFHeiigApCMilooAYUwDX5Bf8Fav2Sk8I+Jz8XfDdiYtL1Zlj1mOMfJFc4CiTHbeAuf9rce9fr+eRXN/EPwDpHxM8Gat4X161S80nU7d7a4icZ+VgRke/NAH8v22kIwa9S/aR+A+t/s6/FjWfBusozfZZSbW6A+S6gJ+SRT7jBx1GecV5aaACiiigAooooAKKKKACgDNAGe9dH4B+HniX4m+JbXQfCui3eu6tcttjtbOPefck9FA7sxAHrQBzoXPA5PoK+hP2YP2IfiH+1BfRTaLYtpnhsPsm128jIgXBwQvTeR6A194/skf8EltO8NG08R/F4wanqXEsPh6FxJBCev75h8rn/ZGR71+kOlaVZ6HpttYWFtFZWNtGIoraBAqRqOAFUdB7UAeBfsxfsM/DX9mWxin0nS11XxMYwJte1EebOTjnywfli7j5ACQeTX0FdXUNjbSTTusEMal2dztAA6nNeKftIfti/Df9mTQ55/Eusxz60VzbaFZDzbqd/QqOEHU7nKj0OcA/jh+1Z/wUA+IH7TVxNpr3Mnh7wduOzRbSQhZR2MpH3z7HOOcdaAPvX9rL/gq94d+G0l54b+Fy2/ifxBHmJ9Uky9nbPjnbg/vCPqRngjivyZ+J3xc8X/ABh8STa94w16717UpCSJbphiMH+FFACoPZQBXH7uRx09aQnNACliRikoAzTthBx3oABGSeh6Z4HanxW7zyIkal3dgqgDqfSvYf2ef2T/AIiftLa/DZeE9DkbTd+LnWbr91aWy9yXP3j/ALKbmPpX7D/sqf8ABPb4ffsy20WtahHB4k8XIoZ9XvUGy2wOfJDfcA5+bgnv0oA+DP2S/wDglZ4r+LCWPiL4im68I+GZcSR2eNl7cp2IDD5ARyCRyCCK/US20r4QfsWfC+WeC20vwR4atECvMx/e3DdlLuS8rnsCSa+f/wBrH/gqJ4G+CpvfD/giWLxp4tiGx2tmJsrV8fxy/dcj0TdzwcHIr8g/jP8AHjxr8e/E7674z1u41W8yfLjZiIoAf4Y06KPYUAfZn7W//BV3xR8QjdeHfhaX8LaAS0curFQby6X/AGSw/dr/ALoDe9fn1f6ldapeTXd7cS3d3MxeWedy8kjHqWYnJP1qvvOPwxSUAOSV43DKxDA5DDqD65r0vwV+0t8VPh/tXw/4/wDEFhGuNsIvnkiGP9hyV/SvMq1/CGgz+KPFGk6RbRtLPfXUduqL1O5gP8aAP34/4J5eJvHfjj9mfQfFHxA1ufXNX1ma4uIpbiKONo4FleNFwiqOQm7JGfmr6XY4Fcp8KPBsXw8+GnhfwzCqomk6bb2ZC9NyRgMfxOT+NdU/SgBDJjBIx9aVX3Z4FfkJ/wAFQf2svGfg/wDaN07QfAnizU/D8ehaeBc/2bdvEHnkYlg4UjOFROv96vFvBf8AwVT+PXhNEhuNettdt1GNuo2yyO31c5NAH7x+Z2xz6Gnj3/KviD/gn9+3Z4j/AGs/EHiDRNe8PWWlHSrIXQu7OVm80+Yi7SpAA+8T+FfbyjAAFAC0Vg+OPHOifDfwvqHiLxHfLpmi2ETTXV26M4iQDJJVQWPTsDXmGjftqfA/XiPsnxO0AZ6C5nNuf/IgWgD23PNFcLYfHb4caogaz8feF7oHp5WsW5P5b67OzvrfULWK5tZo7i3lUPHLEwZXU9CCOCKAJ6KKgmvre3OJZo4z/tsB/OgCeiqT61YR/evLdfrMo/rUVv4l0q7ultoNRs5rls7YY7hGc4GThQc8AE/hQBpUU0PnHHPpTJ7mO2geaVtkaAlmPYCgCQUhbHavmHxD/wAFK/2dfD0beb8RYLqQdI7PTryUn8Vhx+teW+Jv+CxXwU0dXGmWviDXmH3fs1l5QP8A39KmgD7xBpC20ZPT1r8rfFf/AAWzVVceGvh5I+R8randBCPqELV4d4x/4K8fGvXxImkDSfDsb/8APC2WV1HszAGgD9wvMGMjkZxxXJeN/i/4L+G8TSeKPFGlaBGBndqF2kP/AKERX89vjv8AbE+MnxG3prXxC12e2bObVL2RIeevyA4FeQXN5NeXEk88ryzSHc8jnLMfc0Afux8RP+Cq3wN8EiSOw1ifxPeLnbHpkRaNv+2nIr5V+Jv/AAWn8R34lh8CeC7HTFbKi51Z2uJAOxCqQv5g1+ZhbJNJmgD374nft3/HL4ryTLrHxA1K1tHOBaaUEskUemYVVj+JNeE3uoXOo3L3F3cS3M7nLSTOXYn3Jyar5ooAXdRmkooAM0ZoooAM0oYjpxSUUAfRX7KX7bnj/wDZe1+FdN1GTVPCkrj7XoF4fMhYZ+9HnmNuT90jPfOBj90PgD+0B4W/aK+Hll4s8LXaywS/u7m1LAy2kw+9E47EdfcEHvX80or3n9j79qbWf2Wviha65aPJcaFcssWq6crcTw55wOm4DOM/nQB/RdRWP4U8WaV428O6fruh3sepaVfwrcW1zF92RGGVIz7HvWwDmgAooooAKKKKACiiigAooooAP50Uf5zRQAUfzoo/zmgAooooAP50Uf5zRQAUfzoo/wA5oAKKKKAD+dFH+c0UAFH86KP85oAKKKKACj0oo9KACiiigA9KKPSigAo9KKPSgAooooAKKO1FABRRRQAUUUUAFFFFAB3ooooAKKKO9ABRRRQAUUd6KACiijvQAUUUUAFFHeigAooo70AFFFFABRR3ooAKKKO9ABRRRQAUUd6KACiijvQAUUUUAFFHeigAooo70AFFFFABRR3ooAKKKO9ABRRRQAUUd6KAPiv/AIKY/smj49fCK48S6LAD4w8NRm6gVEybq3H+tiJ65C5YepQDvmvwvnhe3mkikQo6MVZT1BHUV/U9NGsqMjAMGBBUjIP1Ffh9/wAFQP2TR8C/ifF4u0Cz8jwh4md3CRg7LW6GC6ewYMGA9m9KAPh+ilfg8UlABRRRQAYpyRtIwVFLMTgADJNehfBX4E+M/j74ri8P+DNFuNVvHOZZEU+Vbr/fkboo+vrX67/sl/8ABLnwP8GUtvEPjmGLxn4tADIk+TZ2jf7MfRznu+4cDGOcgHwX+yh/wTV8fftB/Zdb1pm8GeEGYEXt3AXnuFzz5UWR7jLEfQ1+wvwG/Zi+H/7Omgppvg7RUtn27Zb+fD3U5xjLvgYP0AFepQwR28MUUSLFGgCqijAUDoAOgHtXy3+1Z/wUI8Afs0213pizx+I/GSgqmjWsgPlN0zMR9wDrg4JxxQB9I+KvF2i+CNFudW13UbbStOt1LSXFzIFVR/X6V+Yf7Wf/AAVzkL3vhn4OW20LmKTxPd9z0zBF7dnY/wDAa+Hv2jP2vPiP+01rZuPFWsyLpMbE22jWY8m0iHui43t/tPuPJwRmvFN3PrxQBp+I/FOq+L9Yn1TWtRuNU1Cdi8lxdOXZiev/AOoVknrxRRQAUYpyDIOOtfTP7K37BnxB/acv7e8tbV9E8Ilsy65dxkIVHURA/fPbjOM57UAfO3h7w1qvizVrfTNH0+41K/nYLHb2yFnYn2Ffph+yZ/wSNuNTisPE3xju2s7d8Sx+GrMfvCOwnkPC57qoPH8Xp9t/AD9kX4VfsleGZb7TLCD+0oot994j1Vt84UDkhm+WJevChQeM5xXy3+1n/wAFatN8KPe+HPhAtvq+qR5jk8QTqJbaNu5iU/K5Hqcr7UAfXHxN+M/wk/Y38AKt/LZaDZW8YW00bTkBnmIHCqmeT7sa/Jf9rD/gpb48/aDln0bQN/gzwdkgWltMXubkessmB6fdUDGTya+WvHXxC8S/EzxBca54q1u813VZzl7i8lLEc5wo6KP9kAAelc2wwTQBI8zSEl2LEkkljnJphxikooAKKKKACvq3/gmZ8Lv+Fm/tW+HfNiMtloscmqzgjKkLhFB9OXz+FfKVfqZ/wRE0DTZrn4q6u4V9UgXTreM5+ZI3+0lsfUov5UAfqzGML0qrq+pQaRpd3fXL+XbWsLzyueyKpYn8hVtenHSvnj9v34nf8Kq/ZQ8farDL5V7dWa6bbgdWaeRIWx7hHc/hQB+Ev7Q3xAm+KXxq8Y+KJyS+oajIwJOflU7R+iivOqdKxdixJJJyc9abQB+n3/BE2zz4m+Id36WcUX5yIf6V+tIHFflh/wAER7TNj8SrrHKyW8f5jP8ASv1PoA+av+Cil99i/ZF+ITZ/1lg0P/fQIr+e9mye/tX76/8ABT66+x/sdeMWzjzGhi/NsV+BBOSaALNvqFzbsPKnlT/dcj+Rr+jr9j69bUP2YfhnMzM7NodupZjkkgYJz+FfzeqMsK/or/YUuTd/slfDGQnP/EqC/wDfMrr/AEoA97PSvx5/4LHeIdZ0H45+E20/VL6wil0Q5S2uXjUkSnnAPXmv2FNfj3/wWvtvL+KXw+nx/rNLuUJ/3ZI//iqAPz7k8e+JZMBvEWqtj1vZf/iq+kv+CcHxC1ay/bN+Hn2zVLy5trmS7t3Wa4Z1O6znA4JPcivk+vW/2SdcPh39pn4Z3ocpjXrWIsPSRxGf0c0Af0kL0HH5Uy4jWaJo5F3I42kHuKfGwZVI6EcfSnMM7aAP5dfGmjnw/wCLNW0xhhrS6khIIx91iKxSa9a/a00E+Gf2lfiXpuwIsGvXYRR2XzWxXklAAaKKKACiiigAooooAKKKKACiiigAooooAKKKKAClz370lFAH6+f8Ed/2hJ/FHhHWPhdqk5ludFT7bpzO/JtywV0x/sllx7Cv0qHIHavwI/4Je+K7nw3+2b4Ighcrb6kt7Z3KA8On2SZhn6Mqn8K/fdfuj+VAC0UUUAFFFFABRRRQAUUUUAHb2o7+9H86KACjt7UUfzoAO/vRRRQAdvajv70fzooAKO3tRR/OgA7+9FFFAB29qO/vR/OigAo7e1FH86ADv70UUUAHb2o9KKPSgAooooAPSij0ooAKPSij0oAKKKKACiiigAooooAKKKKACiiigAoo70UAFFFFABRRRQAUUUUAFFFFABRRRQAUUUUAFFFFABRRRQAUUUUAFFFFABRRRQAUUUUAFFFFABRRRQAUUUUAFFFFABRRRQAUUUUAFFFFABRRRQAUUUUAFeaftC/BbSPj/wDCrXPBusxhobyPdBJjJhmAOx19CMkZ9Ca9LpGUN25oA/mG+LHw01v4P/EPXfB/iC1e11TSbloJA3R16o4PdWUqw9mFcmozmv37/bF/YB8H/tX7NWe9fwx4whiEUesQQCZZFHRZY9y7gOxDA18KWv8AwRc+JT6wsU/jHw/Dpm4A3aRyvJj1EXAz7bqAPz5sdPudTu4rWzglurqVgkcEKl3dj2UDkn2FfoD+yd/wSh8UfEhLLxJ8URL4V8Oy4ki0vePt1wvoyqf3QPT5iGHpX3p+yz/wT3+HX7NNut6sX/CVeKWA36xqEKrs9RFHkhB9Sx47V9SqgAxjigDj/hn8KfC3wg8LwaB4R0e20TS4V4gtkChz/eYgcse5PNQ/FT4w+Dvgr4Zk17xpr9roWnqDtadiXlIH3Y0ALOenCg9a2vGx1seEdabw2bca+LSU2Au0LRGfafLDgEHBbAODX85/7R/xN+I/xC+I+qj4kajc3Gt2Vw8D2khKxQYP3UTsPfk4IoA+sP2tP+CrHif4lyXvh74Ym68LeHDmJtUz5d7cjoSCDmMHnHOcYyBX593ErzyvJIxeRmLMzdSajJOc0hOaACiipEiMsiois7tgKqjJJoAjrrfht8LPFfxc8SW+g+ENCute1OVgPJtkyEB/idj8qL7sQK+r/wBk7/gmB43+Oclnrni95fBfg98Sb5Yt95dL12xxkgLkfxMeM/dPSv1a8FfDn4R/sZfDuZrOKx8M6VAm641G8YedcMB1ZsZY+yjFAHyn+yb/AMEnNC8CRWfiL4si28Q65xINEjPm2lueoV+0hHGRgjPQmvor9pL9tn4Yfsr6FJZXuoRX/iCKPy7Xw5pQ3zAgYAfHyxKOvzEHA4BPFfDn7Wf/AAVu1LxHJfeGvhDbPpGmjMT+I7og3E3YmKMcIPQksT1wOlfm3q+t32v38t9qN3Pe3szFpJ55C7uT3JNAHvn7Uf7cHxC/ahvzDq98+l+GYnLW+h2khEPs0nTe3uemTXzsTmjNFABRRRQAUUUUAFFFFABXvf7HH7U+p/so/E//AISG2ga/0i9iFtqdgpwZowchh23Lzj/eNeCUZoA/e3Rf+CpX7O+qeHI9TufGk2l3Gzc+n3OlXbTRt/d+SJlJ9wSPevzd/b9/bwP7U13ZeHvDdrc6f4K0yfz4xdALJdygEB2UE7RgnAPPPIFfGmaCSe9ACnnmkozmigD9RP8Agit8RNJsNV8deDbi5jh1fUFjv7WN/laZYxhgvqQGzj0BPav1eJBGR0P4V/L34J8a638O/FFh4g8PajNper2MglguoDhlI/mCMjHvX2ppP/BYv4yaf4dFhcaV4evr1U2LqEsEgc8dWUPgn8RQB9hf8Fe/iZpnh79nAeFJLlP7X129iaC3z83lxsCzY7Drz7V+JhOceld18ZPjZ4v+PHjCfxJ4y1aTVNRlAVR92OJQMBUXsB+NcJQAq/eFf0Gf8E49atdc/Y0+HElvMsxht7mCQKclGS7mBBHY8Z+hFfz5DrX11+xF+3/rP7KEtxol9pbeIfBl5N50lks/lS2znALxkgg5xkqRz6jNAH72HgE1+Qn/AAWx1G0n+Inw4so5Q17b2F5JNEOqI7whD+JR/wAq9v8AGH/BZz4X2HhuSbw54a8QatrRjzFaXojtot/+1IGcgDrwvOO1flN8dfjd4j/aC+I2o+MPE0yvfXR2pDGT5cEQztjTPYZP4k0Aeft1rW8IeIJPCfirRtbhXfNpt5DeIPVo5Fcf+g1kUUAf0rfs9/G7wz8ePhlpHiXw3qUV8kkKJcxIf3lvLt+ZHXqpyO/UV1HxB+Ivh34W+Fr/AMR+KNUt9I0exjMktxcNgcDOFUcsx7AAknpX82Hw++LnjL4VXr3fhLxHf6DO/DG0lwG+qnI/SrvxE+O/xA+LJT/hLvFepa6qfdS5l+X/AL5UAH8qAF+OnxJf4v8Axe8WeM2jaAazqE16sLfejR3JC/ka4I9aMk96KACiiigAooooAKKKKACiiigAooooAKKKKACiiigAooAycV2nwp+EPij40eMLLwz4U0uTU9Tu3CALkJGO7O2OFHegD6o/4JJ/Cq98Z/tR2Hif7MzaX4XtLm7mmbhN8kLwIoPrmXOPQE1+5S8KK8I/ZB/Zb0f9lf4W2/h20lXUdXuNs2p6mE2faJsc4HOFBJwM17uv3RzQAtFFFABRRRQAUUUUAFFFFAB/nNFHb2o7+9ABR/nNFHb2oAKKO/vRQAf5zRR29qO/vQAUf5zRR29qACijv70UAH+c0Udvajv70AFH+c0UdvagAoo7+9FABR6Udvaj0oAKKKKAD0oo9KKACj0oo9KACiiigA7UUUUAFFFFABRRRQAUUUUAFFFFABR3oooAKKKKADvRRRQAUd6KKACiiigA70UUUAFHeiigAooooAO9FFFABR3oooAKKKKADvRRRQAUd6KKACiiigA70UUUAFHeiigAooooAO9FFFABR3oooAKKKKADvRRRQAUd6KKAEK5pNgHOBn6U6igBNuCKWiigBmwAev1r8rP+Cun7JaJ9l+MfhqyCA5ttfiiHBPBinx2/iVj/ALlfqtWP4t8MWHjTw5qWh6pAl1p1/C0E8UgDBlI9PyP4UAfy4ntRt/H6V73+1h+y54g/Z/8Ajxqng220661CyupRPor28bSNd28nKBFGSWUkoRjOUPbBr6p/ZN/4JLa74rksvEfxdD6Bo/EqaDHIDdTjHAkKkiMdyM7uxHWgD4o+BH7OXjn9ovxN/Y3gzRpr9oyv2m72kQWynoZH6L0OM9cGv2B/ZS/4Jk+APgXBZ634rt4vGnjFQJDPejda2rekcP3Wx6uGOemOK9r8UeNvhD+xh8MoIr240zwdoVspFtp9vGDLOwHOyJAWcnjLAY5GSM1+V37Wv/BUXxn8Z5r7QPAz3Pg/wi2Y/MR9l5dp33lT8gPPyg9OtAH3p+1h/wAFJfAn7O8N9oehPB4r8ZxAxrYW77oLVxwfOZfTuuQa/Hv4+/tQfEP9pDxC2o+M9emvLdGJttNixHaW49EjXAz/ALRyx7mvKC5LZPJptAC7ue1ITmiigAooooAKKKKACiiigAooooAKKKKACiiigAooooAXd680maKKAAnNFFFABS7uMUlFAC7qTrRRQAUUUUAFFFFABRRRQAUUUUAFFFFABRRRQAUUUUAFFFFABRRShSfSgBAM07ZXbfCf4L+NfjZ4ji0LwV4fu9dv5GCssChY4895JGIRB7sRX63/ALJf/BKnwt8K5bHxH8Rja+LfEkeJY7EDzLK2fsfmHzkdQSOCARQB8Efsn/8ABPDx9+0lNb6tcwTeGfBu4FtVuoiGnHpCp+/3+YZA/Gv2W/Z4/Ze8Bfsz+FItI8I6QkVyy/6Xqk/z3V2/q7noP9lcKPTrXrcNpHbxpFGoSNFCqo6Aen8qcI+O3XNADtg55xThRRQAUUUUAFFFFABRRRQAUUUUAH86KP8AOaKACj+dFH+c0AFFFFAB/Oij/OaKACj+dFH+c0AFFFFAB/Oij/OaKACj+dFH+c0AFFFFABR6UUelABRRRQAelFHpRQAUelFHpQAUUUUAFFHaigAooooAKKKKACiiigA70UUUAFGaSigBaKSigBc0UlFAC0ZpKKAFopKKAFzRSUUALRmkooAWikooAXNFJRQAtGaSigBaKSigBc0UlFAC0ZpKKAFopKKAFzRSUUALRmkooAWikooAXNFJRQAtGaSigBaKSigBc0UlFAC0ZpKKAFopKKAFzRSUUALTCeTTqjY4OfwoA5/X/DPhqfVLbxDrFjYveadGVhvrtVzAp5OGbgdTXwl+1j/wVh8NfDeK98N/C+3i8UeIQDC2qyuVsrVuhKjG6UjpjKjvk4wfmv8A4Kdftk+JfGvxX1r4a+HtVn0zwhobLa3Udo3ltfT7FMhkYckAkptzj5enJr8/2/D8KAOx+KHxc8V/GPxLNrvi7W7nWdQlJ+aZvlQeir0A+npXHlsnmm0UAFFFFABRRRQAUUUUAFFFFABRRRQAUUUUAFFFFABRRRQAUUUUAFFFFABRRRQAUUUUAFFFFABRRRQAUUUUAFFFFABRRRQAUUUUAFFFFABRRRQAUYNA6ivX/wBn39lrx/8AtKa//Z/g/SJbi0jcJc6nKpFtbj/afpnHbPNAHktraTXs8cMELzSyHakcalmY+gA6194/slf8ErfF3xf+y+IfiDNJ4P8ACx2yR2vl7728X0AJAjX3O4+1fen7Kv8AwTh+HX7Okdrq+o2yeLvGSAZ1S/XdFA2OfJiPyr7EgsOxr66jUKgAAAHHFAHB/CP4GeDPgd4Wt9A8HaJBpVlEuGkUAzSnuzv1JJ5Pb2rvVG0dMe1O9Ka5x9fpQAuQe9Ln3r5G/ae/4KPfDj9nO4k0eKUeK/FCZDaZp0oItz6SvyFP+ycGvjub/gtf4zGonyvAWgixLcKzTNLt+vmYz+FAH6+bh0zS/jXxz+yt/wAFKPAH7Rer23hu8hbwp4suARBZXcoaO5YDJWNu54J28nAPpX2In3BQA6ij0ooAKKO1HpQAUUUdqACij0o70AH8qO/vRRQAUfyoooAO/vRRRQAfyo7+9FFABR/KiigA7+9FFFAB/Kjv70UUAFH8qKKADv70UUUAFFFFABRRR2oAKKKKACijtRQAUUUdqACiiigAooooAKKKTvQAtFJRQAtFFFACUUUUAFFFFABRRRQAUUUUAFFFFABRRRQAUUUUAFFFFABRRRQAUUUUAFFFFABRRRQAUUUUAFFFFABRRRQAUUUUAFFFFABRRRQAUUUUAFFFFABRRRQAUUUUAFFFFABRRRQAUx+9PpMCgD+en/goF8LNX+F37VHjiLUbd47XVbw6pZXB+5PHMA5ZT7MWU+6mvnFv61+8H/BSn9ldPj/8Gp9Y0e2DeLvDsb3NpsTc9xEPmeH6nnHua/CGRChwwIPoe1ADKKKKACiiigAooooAKKKKACiiigAooooAKKKKACiiigAooooAKKKKACiiigAooooAKKKKACiiigAooooAKKKKACiiigAooooAKKKKACiinKoYdMn60AIvI/zxWn4f8Oap4r1e00rR9PudU1O6YRwWlpE0kkh9AoBNfQP7MH7BfxG/aZu4rqytv+Ed8Mbts2uahESgHfy0yC5x2yAfWv2R/Zp/Yq+HP7M2mxjQdP8A7R1wpibWr9Q08h77eyD2HI9TQB8Lfslf8EkNQ1Q2niX4xEWFodskfhuCVWlbv++ZThR04BJ65Ar9S/B/gnRPAHhyx0Lw9p1tpGk2SbILS0jCRxjOeAPUkkn3rdCgClwOKAFqNmO7Gar6hqdvpVpNd3lxFa2sK7pJpXCqg9ST2r8+/wBrX/grF4b+HH2rw38L7aPxT4hXdHLq0z7bO1PT5VHMp691A45NAH2V8Yvj34F+A3h2TWvG3iC10a3Clo4Xy88+O0cSgu34DFfkV+1n/wAFR/GHxnivvDvgU3XhDwnLmN5lk2Xl1H6OVPygjgqCcg4NfInxR+Lvi74x+J7nXvF2t3OsahO27dM3yIOyqvRQBx+HeuOoAkmkaVnZ2yzHcT6nvmo6KKALNheT6feQXVrM8FzDIskcsZwyOCCGB7EEZzX9Bn7AHx5uP2gP2ctG1rUJfN1nTpG0zUHPVpEVSG/FWH5Gv57ev5dq/aX/AII2eHL7Sv2c9e1G5Vkt9Q1tjArD7ypGuWH1LfpQB9/D9KWkFLQAdqPSiigAo7UUUAHpR3oooAKKKKACiiigAooooAKKKKACiiigAooooAKKKKACiiigAooooAKKKOKACjtRxSUALRRxRxQAdqKSl4oAKO1HFJQAtFHFFABRRR6UAFJS0lABS0naigBaKT+dLQAlFFFABRRRQAUUUUAFFFFABRRRQAUUUUAFFFFABRRRQAUUUUAFFFFABRRRQAUUUUAFFFFABRRRQAUUUUAFFFFABRRRQAUUUUAFFFFABRRRQAUUUUAFFFFABRRRQAUUUUAFFFFADZBnj+lfgz/wUp/ZlT4BfHC51DSLT7P4U8RO95ZpGp2QSE5eIHsAScD0FfvOy56fn6V87/t2fs9RftEfs9eINGhhWTXtPj/tHSnxyJo+SgP+2m9P+B0AfzxYoqxf2M2m3lxa3EZiuIHaKRG6qwOCPzFV6ACiiigAooooAKKKKACiiigAooooAKKKKACiiigAooooAKKKKACiiigAooooAKKKKACiiigAooooAKKKKACiiigAoooAzQAUYp6RNI4VRuYnaFXkk+gr7T/ZQ/4Jj+PfjqtprviqCXwZ4PkIZZ7tQLu5X1ji+8B6FgoPUUAfKHw7+GniT4r+KrPw74U0m51rV7psR21rGWbHdjjooGSSeABX6v8A7JP/AASX0HwZ9k8R/FoJ4h1ldskOiI5FpAev7zaf3h9s7favtT4Hfs7eBv2evDS6N4L0WHTYiB59xjdPcEd5H6t+NelbM9aAKukaTZaJp9vYadaQ2FjbKI4ba2jEccajoFUAAD6Vbxt6ZoJC1heNPHOg/D7w9ea34j1e00TSbVd813eyiNFHoM9SewGSewzQBu7sda8L/aT/AGxvh7+zFpTSeJtSWfWXTdb6JasGupvT5eSqn+8RivhD9rX/AIK4zakbrw58G1kgtvmjl8R3EZjdu37lG+Yd/mIBr8z/ABD4j1LxZrV5q+sXs+paneOZbi7uXMksrnqzMeSaAPpD9qP/AIKA/Er9pS5utPl1B/DfhFmO3Q9NPlrIO3mv99z/ALJbb7V8vljQXyfTnPFNJyaAFZtxpKMUu36UAJTtv+TWj4c8Nar4t1i20vRNOuNV1K4YJFa2kZkkcn0UV+l37Jn/AASQvNSjsvEnxjP2CBsSR+HLaUNKy/8ATZ1OFyOwJ98GgD4r/Zg/ZT8ZftPeN7XSdCsZodIWUf2hrLIfItY+5LdNxHAHckV/QL8H/hbo/wAGfh1ong/QofJ0/TIBEvcu38TE9yTWz4R8FaJ4E0G10Tw/plrpGk2qbIbOziEcSDGMBRwK21GFAzmgAAxilo9KKADtR6UdqPSgAo7UUdqAD0o70elHegAooooAKKKKACiiigAooooAKKKKACiiigAooooAKKKKACiiigAooooAKO1FHagAooooAO1FHaigAo7UUdqACiiigAooooAKTvS0lABRRS0AFFFFACUUUUAFFFFABRRRQAUUUUAFFFFABRRRQAUUUUAFFFFABRRRQAUUUUAFFFFABRRRQAUUUUAFFFFABRRRQAUUUUAFFFFABRRRQAUUUUAFFFFABRRRQAUUUUAFFFFABRRRQAUUUUAFNkAKnIz7U6g9KAPwH/4KV/BFfgx+0vqxs4TFo+vxjVLQBcKm4lXQepBAP/Aq+Ua/Zb/gsp8I18U/Brw543toA174dvnt5nUc+ROoJJ9g0K/99V+NNABRRRQAUUUUAFFFFABRRRQAUUUUAFFFFABRRRQAUUUUAFFFFABRRRQAUUUUAFFFFABRRRQAUUUUAFFFFABRRVrTtPudVu4bO0ge5upnCRQxqWZmPQADqTQBVAycV6Z8Dv2dPHf7QviaHRvB2iy3jMf3t5IClvAO7O+OAPYE+1faH7Jf/BJrWvHUVj4k+K5uPD+jSYkj0SMmO6nT/poesYPpw2OQeRX6vfDv4X+FPhP4eg0LwjoVpoGlQgBbe0jxu46sxyzn/aYk+9AHyh+yZ/wTH8EfAlLbXfFTp4z8X7QwkmiC2loR2jTJLHnlmPPHAr7Vit0t4kjjjVEUBVRRgAelSL+H4U/0oAbuUdxSPIqKSzAAckk9K4D4y/G/wX8B/CVx4g8Z61b6TZRjEaSMPNnb+5GnV29h6V+Rf7Wf/BU3xp8XWufD/wAPpJfBvhViyPcxY+23a+7nmNfZNp65J4oA++f2rf8AgpB8Pf2dEudJ05h4w8YIvGmWU4SKJsZHmy4bHbgA/hX48ftAftW/EH9pLXHvfFusubMMWh0u0BjtYfYJkk/Uk15DdXEt1PJNPI8s0jF3kkbczEnJJJ6k9aioAcz5GM8U2iigAoxmiuw+GHwq8VfGHxPb+HvCOjXOtapMciK3jLbF6bmIHC+54oA5AA19Qfstf8E/viJ+0tqFvdR258NeFNwM+tX8JPy9/LjyC59iVHfPY/eH7Jv/AASd8M+AorLxF8VFi8UeIABIukByLK3bqAwU/vSO4JKn0r9C9P0+10y2jtLO3itLaFQsUMEYREUdAoHAFAHh37Nn7F/w6/Zl0cReHtNF9rThRca1fqrzykenZF5OAOeepr3gLjOAeak7UelABRRR2oAKKPSigAoo7UelABRRR2oAKKPSjvQAUUUUAFFFFABRRRQAUUUUAFFFFABRRRQAUUUUAFFFFABRRRQAUcUUUAHFJS0dqADijiiigBKXijtRQAcUlLR2oAOKKKKACj0oooAKSlpO9AB2ooooAP50tFFACUUUUAFFFFABRRRQAUUUUAFFFFABRRRQAUUUUAFFFFABRRRQAUUUUAFFFFABRRRQAUUUUAFFFFABRRRQAUUUUAFFFFABRRRQAUUUUAFFFFABRRRQAUUUUAFFFFABRRRQAUUUUAFBooxmgDzn9oT4dwfFb4MeLvC06K6ajp8iLkfxgbl/VRX81utaTcaDq97pt4nlXdnO9vNGequjFSPzBr+pZ1DIQRwa/n//AOCkfwgb4R/tWeK44I/L0zW3TV7Q7cAiVFMv/kXzR+FAHy3RRRQAUUUUAFFFFABRRRQAUUUUAFFFFABRRRQAUUUUAFFFFABRRRQAUUUUAFFFFABRRRQAUUAVJDbvcSLHGrO7HAVVySfQDvQBGKfgtjPT1r6E+BX7CHxc+Pc0cmjeHn0vSiwD6rq2YYVz6DBYnHt+Nfpl+zh/wSh+Hfwm+yar4zuX8eeIUO8rLF5FnEewWPcxYj1Lc+goA/NP9mz9hP4oftJajbS6Zo8mjeG2IMuu6oPJgC9/LB+aQ+m0EepAr9gv2WP2Dvh5+zFaR3un2i6z4rKgS65eRgyqe4iznYPXHXjPSvo7T9MtdLto7aztorS3jGEihQIqj2A4qztFACIMD+vrQxx9abIdo4PP1rwz9pH9sj4d/szaFNceI9TF5q5Ui20WyYNczN0APZR6k9Bng9KAPar/AFC20u0murueK2tolLyTTMERFHdmPAHua+AP2sP+Cr/hX4bNe+HPhg0XizxFFmOXUwh+w2zf7LEfvSOuVBU+tfBX7VH/AAUH+In7S13LZCc+FvCasfK0ewlJMg7GWTALn6BRz3r5aLEnJPNAHY/E/wCLXiz4y+KZvEPjDWrrWtUlz+9uHJEa/wB1AT8o9AK409eKM0UAFFFKuCeaAEHWpYoZLiRUiRpJGOFVRkk/T1r1n4AfssfED9pHxAuneENIeS2Qr9o1O5BS2gUnqWxz0PAzX7B/sp/8E2vAP7PVtaarrKr4y8YqA7X93CFggb+7FFk9PVic9cDpQB8Ffsn/APBLPxv8YZrLXvHkUvgvwmxEghuBi+uh12rF1QHoS+046Zr9dvgv8CPBfwC8LJoPgvRbfSrRsNO8ajzbhgMb5G6sfc136qI12qvA6AdhXG/FX4w+Efgv4Xn1/wAX6zBpGnQg8yP+8c/3UXqxoA7Zc96dXyL+y1/wUR8J/tO/FDxD4S0/S5tENsfM0qW8nBfUIgo3EoB8jAhvly3GOecV9cI24Z60AO7UelFFABR2oooAPSiiigA7UelFFABR2oooAPSjvRRQAUUUUAFFFFABRRRQAUUUUAFFFFABRRRQAUUUUAFFFFABRRRQAUUUcUAFHajikoAWijijigA7UUlLxQAUdqOKSgBaKOKKACiij0oAKSlpKAClpO1FAC0Un86WgBKKKKACiiigAooooAKKKKACiiigAooooAKKKKACiiigAooooAKKKKACiiigAooooAKKKKACiiigAooooAKKKKACiiigAooooAKKKKACiiigAooooAKKKKACiiigAooooAKKKKACiiigAPIr85f+CyHwXHiT4Y6H8QrOAte6DL9lupFGSbd2+XPsGZjX6NVyHxZ+HVh8WPhz4g8I6mFNlq9lJaOxGdm9SNw9xmgD+Yiit3xx4M1T4feL9X8N61bm11XTLmS0uYj/AAyIxVh78isKgAooooAKKKKACiiigAooooAKKKKACiiigAooooAKKKKACiil2mgBKBzS7T/WvQfhN8APiD8b9Zj03wV4Vv8AXZXbaZoUCQR/78zkRr+LCgDz4gZ65o289fzr9SPgf/wRku7hIr74n+JUtScMdK0cmQj1V5OAD7qSK+4vhV+w78GfhDFEdE8EadNeRAbb/UIluLjPrvYEigD8DPAfwP8AHvxOeNfCvhHWNe3nAaws3lX6kqDgV9GeA/8AglX8dvGDI97olv4ctTjMmpThHGf9g4Nfu9FbJCipGoRVGAqjgU4RhenH04FAH5dfDX/gipYRNBN458c3NyMhmttGhWP8Czhv0r7E+Ev7B/wR+Dhin0XwNY3Woxj/AI/tVZ72Td/eAlZlU/7oFfQe3nNGMHpQBFBaxW8KRxxqkaDCqowAPQDtUgQDFO7UxpQvXP5UAKX61jeLPGOj+BtBu9Z17UbbStKtVLzXd1KI40+pPFfL37Vf/BRr4cfs72l5pem3kXizxoARHpenNvjhb1mlHyLjuoJb261+O/7RP7Vnj/8AaX15b3xbq0kljA5a00qJiLa2z12p0z0y2MnFAH3N+1l/wV0uZZb7w58GlFtGuYm8TXMIdye5hjcFRzxuYHOMjrX5l+JPE+r+L9XuNV1zUrrV9SuGLS3d7M0sjk9SWJrMD7TkZB9RxTSc/SgBd3y4/WkooxQAUuOnBo2nn2r6c/Zb/YG+JH7S91FeW+mtoHhJWXzdc1EeWjD0iU/NIfcDb6mgD5x0XQr/AMR6nbadplnPf39y4jhtrZC8kjHgKqjkk1+l37Jn/BI261SSw8SfGUy2dkMSr4agcxySegmcfMo9VUqc9+tfdv7Mv7GXw9/Zi0eNfD2npda+6bbrXbhQbmbPUA87V/2QcV71sCZ9M9KAMDwT4C8P/Dnw/baH4a0e10TSrdcR2tnGEUe57kn1OTW6HyRzk/y4ri/iv8Z/B3wS8LS6/wCM9ettD09AdjTMTJMwH3Y0UFnPT7oOM84r8hv2vf8AgqR4q+MEl74d+HzXXhXwkwMTXQbZeXi9yxB+RTzxnp1FAH29+15/wUq8G/s/x3+geGXg8VeN0Bi+zxvut7OToTMV7g/w5BzX45/G39oPx1+0F4ok1vxrrs+qTAnyLbhLe3U9o41wq9skDJwMk4rzrfk5Oc+1NoA6T4e/EHW/hf4y0vxR4fvXsdW02dbiCVD/ABKQcEdwccjvX9F37Nnx70j9oz4U6T4x0kojXUYF1aq2TbTgfPGfocjnriv5rlOK+wv+Ca/7WJ/Z6+MVtomuXjQ+CvEbi1vd2StvMRiGbHs21SewYntQB+8QJPanelV7a5iu4YpoZFeORQ6upyGUjIP4g1Y9KACjtRR2oAPSij0ooAO1HpR2o9KACjtRR2oAPSjvR6Ud6ACiiigAooooAKKKKACiiigAooooAKKKKACiiigAooooAKKKKACiiigAo7UUdqACiiigA7UUdqKACjtRR2oAKKKKACiiigApO9LSUAFFFLQAUUUUAJRRRQAUUUUAFFFFABRRRQAUUUUAFFFFABRRRQAUUUUAFFFFABRRRQAUUUUAFFFFABRRRQAUUUUAFFFFABRRRQAUUUUAFFFFABRRRQAUUUUAFFFFABRRRQAUUUUAFFFFABRRRQAUUUUAFBGaKKAPxy/4LAfs9N4R+Ien/E7TYNum6+wtr7Ynyx3IUkNn/aCsfrX5zHrX9Jv7T/wP0/8AaG+CvibwXfQq017bb7KU8GK5Qh4mB7fOqg+oJHev5yvGHha/8FeKNU0LVIWt7/T7h7eaNxghlOOnv1/GgDHooooAKKKKACiiigAooooAKKKKACiiigAooooAKKKKAClXqKSrekWLalqllaL964nSIY/2mA/rQB+iv/BPX/gm/o/xn8H2nxI+Iktw+hXUrjTtFgAT7SkblC8jnPyllYbQOgznnj9ZfBvgDw98PdJh0vw5pFro2nwqESC0jCgAe/U/jWL8CPB8HgH4M+CfD9vCIY9P0i1hZQMfP5alz+LFj+Nd5QAwLjH1p/pR2o9KACiijtQAhIGKCwHU0jZ4/nXy1+3h+2ZZ/so+AEFhFFfeM9WBj0y0m5SMfxTOvcKOg6Zx16UAe0fGD45+C/gX4Ym1zxjrcGl2iA7I2YGWY4+6idSf096/I/8Aaw/4KreLfi3Le+H/AIewy+D/AArzF9sMm6+vFPUkgYiB/ujcf9qvj74sfGfxl8bfEkuu+M9futcv2J2eewEcKn+GNFAVB04AHSuIoAsXV095K8s0zzSudzPISSx75J5P1qvRRQAUUU+JGkcKoLM3AA6mgBmO/auv+G3wo8V/F3xFb6H4S0S61rUJWCrHAmQvuzdB+Jr64/ZL/wCCXnjL42fZte8bLceD/CLbXQSJtu7tT/cUj5R0+Yg5zxX66/BX9nzwJ+z/AOGIdE8FeH7fSYVUCW4AMk87d2kkYlmycnGcDoABQB8afsnf8EmNA+Hz2PiT4pXMXibXowJI9Ht1xZW79tzH5pSOvReR0NfoRpmlW2j2MNnZW8VrbQjbHFCgRVHoAKugYzS9qAGoOOeDUN+sz2cy20iRXBRhHJIu9UbBwSuRkZ7ZH1qx6U16AP53f23Nb+J8/wAdNf0n4m6pcX2oWU7C2j5S3EJJKtEvYH8Twea+fhyePzr9tf8AgqR+yVH8aPhtH478P2Ibxd4bR2mMQ+a6tDgshHcqQCPZnr8SjkHjtQA2iiigAp0bbHBBII7g4IptKDg+tAH7X/8ABLL9rlfjB8Ppfh/4iuf+Kr8ORr9nllfLXtocgH/eQjB9mX3r72UggV/Mt8FPi3rfwO+JGi+L9BuDBe6fMHI/hkjP30I7gj9QK/oq+Bnxe0f46fC3QPGuiTLLZanbiRkX/llICVkjPurqy/hQB6BRRR2oAKKPSigAoo7UelABRRR2oAKKPSjvQAUUUUAFFFFABRRRQAUUUUAFFFFABRRRQAUUUUAFFFFABRRRQAUcUUUAHFJS0dqADijiiigBKXijtRQAcUlLR2oAOKKKKACj0oooAKSlpO9AB2ooooAP50tFFACUUUUAFFFFABRRRQAUUUUAFFFFABRRRQAUUUUAFFFFABRRRQAUUUUAFFFFABRRRQAUUUUAFFFFABRRRQAUUUUAFFFFABRRRQAUUUUAFFFFABRRRQAUUUUAFFFFABRRRQAUUUUAFFFFABRRRQAEZFfk5/wV6/ZWlstSs/jH4dsy1tcf6JryxDBR+sUxHoRvUn/ZX1r9Y6wPHfgzSviF4T1Tw7rVql5pmowNBNE65BBHUe4PNAH8vLAg4PWkr239rj9mzVf2Y/jHq3he833Gls32jTL4ptWe2blf+BLyp91PrXiZxgY696AEooooAKKKKACiiigAooooAKKKKACiiigAooooAK9M/Zq8IyeO/jv4H0OOMyNdapF8oHZTuP8AKvNduQP85r9Fv+CS/wCy3rus/FJvihrmnTWGgaLCVsGuIypubl/4kz/Cqg5OP41x3oA/YyFBFGqKAqqMADsO1PpkYwuKfQAdqPSiigAo7UUUARynAHbPevwS/wCCoXjS98XftbeJobh2+z6UEsYIz0QKMEj64zX73SdPwr8Uf+CuPwO1DwZ8dB45gt3k0PxHEu6YL8sVwq/MpPqfmI+lAHwTRTiF28dfem0AFKq7iBWjoXh7UfFGq2+m6TY3GoX9wwSK3t0Lu7HpgCv0k/ZJ/wCCSF/rf2XxN8YLptNs8rJD4csxmaQdf30h4Tt8oDZz1GKAPiP4Cfsu/ET9o/Xk0/wboUt1bq2J9TnxFaW47lpGwCQOdq5b0FfsP+yh/wAE2fAf7PLWet6ykHizxnEN639xHmK2cjnyVYcem7AOPrX1F4G+H/h/4ceHbTRPDek22kaZarsit7dAoA9z1J9zXR4H5UAMjXYAPTipPSkxS0AFHaiigA9KKKKAIriFLiF45EEkbqVZTyCCMEGvwq/4KW/smzfAP4wXPiPRrMr4M8SyG6t2jGEtrg/62E+nzZYdsOBX7snoa8r/AGkPgPov7Rfwp1fwbrQEYuoibW7VNzW04+7IPXBwSO+KAP5raK6f4j/DzWfhX401bwv4gtTZ6vps7QTx9sg4yPUHHBrmKACiiigAHBr7t/4Jdftcp8FfiH/wg3iS/aDwl4inURvIT5drdthQ59FbCgntivhKnJK8Th0Yo4OQynBBoA/qgU5HB596kHSvjL/gmz+1un7Qvwsj0DXLkHxr4fiWG53tlruIYCzfXpu9zX2av3aAF9KKKKADtR6UUUAFHaiigA9KO9FFABRRRQAUUUUAFFFFABRRRQAUUUUAFFFFABRRRQAUUUUAFFFFABRRRxQAUdqOKSgBaKOKOKADtRSUvFABR2o4pKAFoo4ooAKKKPSgApKWkoAKWk7UUALRSfzpaAEooooAKKKKACiiigAooooAKKKKACiiigAooooAKKKKACiiigAooooAKKKKACiiigAooooAKKKKACiiigAooooAKKKKACiiigAooooAKKKKACiiigAooooAKKKKACiiigAooooAKKKKACiiigApCue5/OlooA+d/wBtX9k/Sf2p/hbcaSY4rfxRZK02k6iwwY5OyMe6McAg++MGv5+vF3hHVfA3iPUdC1yzk0/VbCZoLm2mXa0bqcEEH3Ff1GMu6vg//gpF+wmPjr4dufHvg2zQ+OtMh3zWqAK2pQL95fd1HK55OMDkgUAfiXtwKSrOoWNxpt3NbXULwXELmOSKRSrKwOCCD3FVqACiiigAooooAKKKKACiiigAoAzQBmpIoXllWNULuxChQMkkngAd6AGhPw9zxXUfDv4YeJfix4ntvD/hPSLrW9VuGAW3tYy5A/vNjoB619afsm/8Ew/Hfxwe317xhDL4M8IEqytdALeXQ9I4vvKMd325zxnBx+v3wQ/Z88Ffs+eFYtB8GaNDptuAPOuAoM9y39+R+rH69BgdqAPi/wDZM/4JN+HvAklj4k+Kwj8Ta5FiSPRkkP2KBsfx7SPNI9ztPcGv0P0zSrPSLCCzsbWGytIF2RW9ugRI19FUcAVZ2cYzTlGFAoAFG0AUtHpRQAdqPSjtR6UAFHaijtQAhXNcP8Y/g34V+OfgLUfCPi7TI9R0m8XoSVeGQHKyRsMFWBAPHXocgkHufSkIzQB+OHxi/wCCN/jvRdVnl+H2sWniDSnYtFb6hIsE8Q9Gc4DH6DtXNfD3/gj58X/EOoRDxLdaX4ZsCfnmE63L49lU1+2YTGT39RSFO/egD5//AGaf2Jvhr+zLp0cmgaQt/wCIdmJtd1A+bcucYO3Pyxg8/cC19ABBjNLs/HHT2pe1AABilo9KKADtR6UdqPSgAo7UUdqAD0oo9KKADtTPLGQe9P7UelAH5u/8FZf2SU8YeD2+LXhuwH9taMirq0cK5a4tSQvmEdyhKknsu6vx7I596/qb1LTYNVsLmyu4lntbmJoZonGVdGGGUj0IJGPevwE/b/8A2V7v9mj4xzpa2znwnrhku9Kuv4RgjzIvYqWU49GGO+AD5eNFBooAKKKKAPUv2a/jtrX7Ovxe0Lxlo8zKLWXy7y36rcWzDbLGR7qSR6MAe1f0VfDD4iaR8VfAej+KdCuVu9N1KBZopEORz1X6g5FfzCZwOpr9Fv8Agk7+1wvgHxZcfCzxPf8AlaFrUgl0qWZvkt7rGGTnoJBt56Zj96AP2PVt1LTIuFGTk0+gA7UelHaj0oAKO1FHagA9KO9HpR3oAKKKKACiiigAooooAKKKKACiiigAooooAKKKKACiiigAooooAKKKKACjtRR2oAKKKKADtRR2ooAKO1FHagAooooAKKKKACk70tJQAUUUtABRRRQAlFFFABRRRQAUUUUAFFFFABRRRQAUUUUAFFFFABRRRQAUUUUAFFFFABRRRQAUUUUAFFFFABRRRQAUUUUAFFFFABRRRQAUUUUAFFFFABRRRQAUUUUAFFFFABRRRQAUUUUAFFFFABRRRQAUUUUAFFFFABTWXdxjOadRQB+av/BSH/gniPG8N18TvhxZiPXYlZ9X0aJPlu1HIljx0cc5HRgR0xz+Q9xby2lxJBNG0U0TFHRxhlIOCCK/qgdQ6kEAgjkGvzj/AG//APgmxb/EmS/+IXww05bXxQw83UNFtxiPUGA5kjX+GQgcheGIzjJJIB+O+KKs31lcafeTW1zC8FzExWSJ12srDqCO1VqACiiigAooooAMHNGCauabplzrF9b2dnBJdXVxIIooYVLO7nooA6knoK/Rf9kn/gkzq/jI23iT4tG40LSflkh0KI+Xczr/ANNT1Qe3BPrQB8W/A39m7x/+0N4gTSfBmiSXh3Dzb2XKW0I9XfB6e2T7V+wf7KP/AATK8CfAL7LrniJk8aeL0G4XNxCEtrZiOfLjJOT1GWP4Cvqj4d/DLwv8KvDNr4f8JaHZ6DpFuuEtrVMZ/wBpmOWdj/eYk+9dQvX1PegBkMCwIqIioi9FUYFS0UUAFL2pKXtQAUUelFABRR2o9KACiijtQAUUelFABRR2o9KACiijtQAUUelFABRR2o9KACiijtQAUUelFABRR2o9KACvCP2x/wBm3Tf2nPg5qXhu4VY9XtwbvS7srkwzqDx9GHBH09K93pjKDnjk+lAH8uXi3wrqXgrxLqWg6tbNaanp0721zC45V1OD+Hoe4rIr9VP+CuH7JKkn4y+GrLa7IkOvQwJw20BUuCOx2gAn/Zz3Jr8rCu0c0AJRRRQAVZ03UZ9Jvre8tZWguYJFlilQ4KsDkEVWooA/f/8A4J8ftV237SvwWsf7QlSPxhoiiy1SDfkybeEmHsy7Sf8Aa3V9TggjI6V/OJ+yR+0hq37Mnxe0zxPZO8ulu6w6pZDkXFuT8wx/eAJwexr+iPwj4o0zxp4e0/XNGvEv9L1CBbi2uYyCssbDIYY9QaANmijtR6UAFFFHagAoo9KO9ABRRRQAUUUUAFFFFABRRRQAUUUUAFFFFABRRRQAUUUUAFFFFABRxRRQAcUlLR2oAOKOKKKAEpeKO1FABxSUtHagA4ooooAKPSiigApKWk70AHaiiigA/nS0UUAJRRRQAUUUUAFFFFABRRRQAUUUUAFFFFABRRRQAUUUUAFFFFABRRRQAUUUUAFFFFABRRRQAUUUUAFFFFABRRRQAUUUUAFFFFABRRRQAUUUUAFFFFABRRRQAUUUUAFFFFABRRRQAUUUUAFFFFABRRRQAUUUUAFIRmlooA+Jf25P+CduiftGWl74p8KJb6L8Qo13hiNkOo+qSEcBj2c98ZIBJr8WviF8N/Enwr8T3nh7xVpFzo2rWzFXt7lMZGfvKejKf7wJFf0/bR6V5X8cP2Zvh5+0LpIsfGegw3zoD5N7EAlxCT1Kv/jmgD+a9hg4ByKSv1i+If8AwRM027vJbjwd8R59Ptifks9V0wTso/66rKuf++K5TQv+CJWu3F8g1f4nWVpag5Y2ujtKxH4zLigD8yVPNfQ37N37DfxO/aVvrebRtGk0vw4zfvdd1MeTbhc8lM/NJ/wANX6qfBP/AIJY/B34TXEN/qVvdeNNVQhlm1UhYVYd1iXp+LGvsDTNJs9GsorSxtYbO1iG2OGBAiKPYDigD53/AGXf2Fvh5+y/bRXemWaav4pCbZddvIx53Iw2zr5YPPAPNfSKDgf0pdoJ6UtABRRRQAUUUUAFL2pKXtQAelFFFAB2o9KKKACjtRRQAelFFFAB2o9KKKACjtRRQAelFFFAB2o9KKKACjtRRQAelFFFAB2o9KKKACjtRRQBmeI9BsPFGi3mkapbJeabfQtb3NvKu5JI2GGUjuCDiv54f2xv2Z9R/Zf+L2oeHJY5JNEmZp9JvX58+3J45/vAEAj1r+jAgGvmX9vj9la1/aa+CmoWtnGkfi7SVN7pNxtyXdOWhPs67lHoxU9sUAfz50V7NN+x38ZIpXT/AIV9rLFSRkRL9P71M/4Y9+Mv/RPNa/79L/8AFUAeOUV7H/wx78Zf+iea1/36X/4qj/hj34y/9E81r/v0v/xVAHjo6Gv1C/4JI/tbpp1//wAKb8TX22G5DzaHNM/yq4BZoM9sqGI/3QO9fD//AAx98Zv+iea1/wB+l/8Aiq0fD37L3x08Ka7p+s6Z4E1201GwnS4t50jUFJFOVP3vWgD+jBTk/j1FP9K8l/Zi+I2v/Ez4R6PqfirQbrw34khX7Lf2VyOfMQD51PdWBH4g161QAUdqKKAD0o70UUAFFFFABRRRQAUUUUAFFFFABRRRQAUUUUAFFFFABRRRQAUUUUAFFFHFABR2o4pKAFoo4o4oAO1FJS8UAFHajikoAWijiigAooo9KACkpaSgApaTtRQAtFJ/OloASiiigAooooAKKKKACiiigAooooAKKKKACiiigAooooAKKKKACiiigAooooAKKKKACiiigAooooAKKKKACiiigAooooAKKKKACiiigAooooAKKKKACiiigAooooAKKKKACmlwCfanV+Xn/BRn9uT4sfs9/H+Hwv4M1e1sdIbSILsxzWiSt5jSSqTk+yCgD9QVYkZ6Uua/Bk/8FWf2hu3iSw/8FsdH/D1r9ob/AKGSw/8ABdHQB+82aM1+DP8Aw9a/aG/6GSw/8F0dH/D1r9ob/oZLD/wXR0AfvNmjNfgz/wAPWv2hv+hksP8AwXR0f8PWv2hv+hksP/BdHQB+82aM1+DP/D1r9ob/AKGSw/8ABdHR/wAPWv2hv+hksP8AwXR0AfvNmjNfgz/w9a/aG/6GSw/8F0dH/D1r9ob/AKGSw/8ABdHQB+82aSvwa/4etftDf9DJYf8Agujo/wCHrX7Q3/QyWH/gujoA/eYUmB/k1+DX/D1r9ob/AKGSw/8ABdHR/wAPWv2hv+hksP8AwXR0AfvKOBS5r8Gf+HrX7Q3/AEMlh/4Lo6P+HrX7Q3/QyWH/AILo6AP3mzRmvwZ/4etftDf9DJYf+C6Oj/h61+0N/wBDJYf+C6OgD95s0Zr8Gf8Ah61+0N/0Mlh/4Lo6P+HrX7Q3/QyWH/gujoA/ebNGa/Bn/h61+0N/0Mlh/wCC6Oj/AIetftDf9DJYf+C6OgD95s0bq/Bn/h61+0N/0Mlh/wCC6Oj/AIetftDf9DLYf+C6OgD95t1G6vwZ/wCHrX7Q3/Qy2H/gujo/4etftDf9DLYf+C6OgD95t1G6vwZ/4etftDf9DLYf+C6Oj/h61+0N/wBDLYf+C6OgD95t1G6vwZ/4etftDf8AQy2H/gujo/4etftDf9DLYf8AgujoA/ebdRur8Gf+HrX7Q3/Qy2H/AILo6P8Ah61+0N/0Mth/4Lo6AP3m3Ubq/Bn/AIetftDf9DLYf+C6Oj/h61+0N/0Mth/4Lo6AP3m3Ubq/Bn/h61+0N/0Mth/4Lo6P+HrX7Q3/AEMth/4Lo6AP3m3Ubq/Bn/h61+0N/wBDLYf+C6Oj/h61+0N/0Mth/wCC6OgD95t1G6vwZ/4etftDf9DLYf8Agujo/wCHrX7Q3/Qy2H/gujoA/ebdRur8Gf8Ah61+0N/0Mth/4Lo6P+HrX7Q3/Qy2H/gujoA/ebdRur8Gf+HrX7Q3/Qy2H/gujo/4etftDf8AQy2H/gujoA/ebdRur8Gf+HrX7Q3/AEMth/4Lo6P+HrX7Q3/Qy2H/AILo6AP3m3Ubq/Bn/h61+0N/0Mth/wCC6Oj/AIetftDf9DLYf+C6OgD95t1I2GHNfg1/w9a/aG/6GWw/8F0dH/D1r9ob/oZbD/wXR0AfvGEUY68e5pdo9/zNfg3/AMPWv2hv+hlsP/BdHR/w9a/aG/6GWw/8F0dAH7ybR7/maXaPf8zX4Nf8PWv2hv8AoZbD/wAF0dH/AA9a/aG/6GWw/wDBdHQB+8m0e/5mgqpGOfzNfg3/AMPWv2hv+hlsP/BdHR/w9a/aG/6GWw/8F0dAH7ygAfWl3V+DP/D1r9ob/oZbD/wXR0f8PWv2hv8AoZbD/wAF0dAH7zbqN1fgz/w9a/aG/wChlsP/AAXR0f8AD1r9ob/oZbD/AMF0dAH7zbqN1fgz/wAPWv2hv+hlsP8AwXR0f8PWv2hv+hlsP/BdHQB+8xfAzxQGyOnbPFfg2n/BVj9oZnUHxLYYJGf+JdHX7Z/BrxFfeMPhJ4L13UpBLqGp6NZ3lw6jaGkkhVmIHbkmgDs6KKKACiiigAooooAKKKKACiiigAooooAKKKKACiiigAooooAKO1FHagAooooAO1FHaigAo7UUdqACiiigAooooAKTvS0lABRRS0AFFFFACUUUUAFFFFABRRRQAUUUUAFFFFABRRRQAUUUUAFFFFABRRRQAUUUUAFFFFABRRRQAUUUUAFFFFABRRRQAUUUUAFFFFABRRRQAUUUUAFFFFABRRRQAUUUUAFFFFABRRRQAV+Hv/BYb/k7C3/7F+1/9Gz1+4Vfh7/wWG/5Owt/+xftf/Rs9AHw2aKDRQAUUUUAFFFFABRRRQAUUUUAFFFFABRRRQAUUUUAFFFFABRRRQAUUUUAFFFFABRRRQAUUUUAFFFFABRRRQAUUUUAFFFFABRRRQAUUUUAFFFFABRRRQAUUUUAFFFFABRRRQAUUUUAFFFFABRRRQAUUUUAFFFFABRRRQA+L/WL9RX9L37OP/Jv/wANf+xb0/8A9J0r+aGL/WL9RX9L37OP/Jv/AMNf+xb0/wD9J0oA9GooooAKKKKACiiigAooooAKKKKACiiigAooooAKKKKACjiiigA4pKWjtQAcUcUUUAJS8UdqKADikpaO1ABxRRRQAUelFFABSUtJ3oAO1FFFAB/OloooASiiigAooooAKKKKACiiigAooooAKKKKACiiigAooooAKKKKACiiigAooooAKKKKACiiigAooooAKKKKACiiigAooooAKKKKACiiigAooooAKKKKACiiigAooooAKKKKACvxD/4LAWc0/wC1fbtHDI4Ph+1HyoT/AMtZ/Sv28rJ1PwjoetXHn6ho9hfT7dvm3NskjY9MkZoA/l5bTbvP/HrNn/rmf8KT+zbv/n1m/wC/bf4V/T5/wrvwt/0Lek/+AUf/AMTR/wAK78Lf9C3pP/gFH/hQB/MH/Zt3/wA+s3/ftv8ACj+zbv8A59Zv+/bf4V/T5/wrvwt/0Lmk/wDgFH/8TR/wrvwt/wBC3pP/AIBR/wCFAH8wf9m3f/PrN/37b/Cj+zbv/n1m/wC/bf4V/T5/wrvwt/0Lek/+AUf+FH/Cu/C3/QuaT/4BR/8AxNAH8wf9m3f/AD6zf9+2/wAKP7Nu/wDn1m/79t/hX9Pn/Cu/C3/Qt6T/AOAUf+FH/Cu/C3/Qt6T/AOAUf+FAH8wf9m3f/PrN/wB+2/wo/s27/wCfWb/v23+Ff0+f8K78Lf8AQuaT/wCAUf8A8TR/wrvwt/0Lek/+AUf+FAH8wf8AZt3/AM+s3/ftv8KP7Nu/+fWb/v23+Ff0+f8ACu/C3/Qt6T/4BR/4Uf8ACu/C3/QuaT/4BR//ABNAH8wf9m3f/PrN/wB+2/wo/s27/wCfWb/v23+Ff0+f8K78Lf8AQt6T/wCAUf8AhR/wrvwt/wBC3pP/AIBR/wCFAH8wf9m3f/PrN/37b/Cj+zbv/n1m/wC/bf4V/T5/wrvwt/0Lmk/+AUf/AMTR/wAK78Lf9C3pP/gFH/hQB/MH/Zt3/wA+s3/ftv8ACj+zbv8A59Zv+/bf4V/T5/wrvwt/0Lek/wDgFH/hR/wrvwt/0Lmk/wDgFH/8TQB/MH/Zt3/z6zf9+2/wo/s27/59Zv8Av23+Ff0+f8K78Lf9C3pP/gFH/hR/wrvwt/0Lek/+AUf+FAH8wf8AZt3/AM+s3/ftv8KP7Nu/+fWb/v23+Ff0+f8ACu/C3/QuaT/4BR//ABNH/Cu/C3/Qt6T/AOAUf+FAH8wf9m3f/PrN/wB+2/wo/s27/wCfWb/v23+Ff0+f8K78Lf8AQt6T/wCAUf8AhR/wrrwt/wBC5pP/AIBR/wDxNAH8wf8AZt3/AM+s3/ftv8KP7Nu/+fWb/v23+Ff0+f8ACuvC3/QuaT/4BR//ABNH/CuvC3/QuaT/AOAUf/xNAH8wf9m3f/PrN/37b/Cj+zbv/n1m/wC/bf4V/T5/wrrwt/0Lmk/+AUX/AMTR/wAK68Lf9C5pP/gFH/8AE0AfzB/2bd/8+s3/AH7b/Cj+zbv/AJ9Zv+/bf4V/T5/wrrwt/wBC5pP/AIBR/wDxNH/CuvC3/QuaT/4BRf8AxNAH8wf9m3f/AD6zf9+2/wAKP7Nu/wDn1m/79t/hX9Pn/CuvC3/QuaT/AOAUf/xNH/CuvC3/AELmk/8AgFH/APE0AfzB/wBm3f8Az6zf9+2/wo/s27/59Zv+/bf4V/T5/wAK68Lf9C5pP/gFF/8AE0f8K68Lf9C5pP8A4BR//E0AfzB/2bd/8+s3/ftv8KP7Nu/+fWb/AL9t/hX9Pn/CuvC3/QuaT/4BR/8AxNH/AArrwt/0Lmk/+AUX/wATQB/MH/Zt3/z6zf8Aftv8KP7Nu/8An1m/79t/hX9Pn/CuvC3/AELmk/8AgFH/APE0f8K68Lf9C5pP/gFH/wDE0AfzB/2bd/8APrN/37b/AAo/s27/AOfWb/v23+Ff0+f8K68Lf9C5pP8A4BRf/E0f8K68Lf8AQuaT/wCAUf8A8TQB/MH/AGbd/wDPrN/37b/Cj+zbv/n1m/79t/hX9Pn/AArrwt/0Lmk/+AUf/wATR/wrrwt/0Lmk/wDgFF/8TQB/MH/Zt3/z6zf9+2/wo/s27/59Zv8Av23+Ff0+f8K68Lf9C5pP/gFH/wDE0f8ACuvC3/QuaT/4BR//ABNAH8wf9m3f/PrN/wB+2/wo/s27/wCfWb/v23+Ff0+f8K68Lf8AQuaT/wCAUX/xNH/CuvC3/QuaT/4BR/8AxNAH8wf9m3f/AD6zf9+2/wAKP7Nu/wDn1m/79t/hX9Pn/CuvC3/QuaT/AOAUf/xNH/CuvC3/AELmk/8AgFF/8TQB/MH/AGbd/wDPrN/37b/Cj+zbv/n1m/79t/hX9Pn/AArrwt/0Lmk/+AUf/wATR/wrrwt/0Lmk/wDgFH/8TQB/MH/Zt3/z6zf9+2/wo/s27/59Zv8Av23+Ff0+f8K68Lf9C5pP/gFF/wDE0f8ACuvC3/QuaT/4BR//ABNAH8wf9m3f/PrN/wB+2/wo/s27/wCfWb/v23+Ff0+f8K68Lf8AQuaT/wCAUf8A8TR/wrrwt/0Lmk/+AUX/AMTQB/MH/Zt3/wA+s3/ftv8ACj+zbv8A59Zv+/bf4V/T5/wrrwt/0Lmk/wDgFH/8TR/wrrwt/wBC5pP/AIBR/wDxNAH8wf8AZt3/AM+s3/ftv8KP7Nu/+fWb/v23+Ff0+f8ACuvC3/QuaT/4BRf/ABNH/CuvC3/QuaT/AOAUf/xNAH8wf9m3f/PrN/37b/Cj+zbv/n1m/wC/bf4V/T5/wrrwt/0Lmk/+AUf/AMTR/wAK68Lf9C5pP/gFF/8AE0AfzB/2bd/8+s3/AH7b/Cj+zLv/AJ9Zv+/bf4V/T5/wrrwt/wBC5pP/AIBR/wDxNH/CuvC3/QuaT/4BRf8AxNAH8w0Om3YkU/Zpuo/5Zn/Cv6Vf2dVZfgD8NgflI8OaeCCMEH7OnUetdIPh34WH/Mt6T/4Axf8AxNb0FvFbQxxQxrFFGoVEQAKoHQAdhQBJRRRQAUUUUAFFFFABRRRQAUUUUAFFFFABRRRQAUUUUAFFFHFABR2o4pKAFoo4o4oAO1FJS8UAFHajikoAWijiigAooo9KACkpaSgApaTtRQAtFJ/OloASiiigAooooAKKKKACiiigAooooAKKKKACiiigAooooAKKKKACiiigAooooAKKKKACiiigAooooAKKKKACiiigAooooAKKKKACiiigAooooAKKKKACiiigAooooAKKKKACiiigAooooAKKKKACiiigAooooAKKKKACiiigAooooAKKKKACiiigAooooAKKKKACl7UlL2oAPSij0ooAO1HpR2o9KACjtRR2oAPSij0ooAO1HpR2o9KACjtRR2oAPSij0ooAO1HpR2o9KACjtRR2oAPSij0ooAO1HpR2o9KACjtRR2oAPSij0ooAO1HpR2o9KACjtRR2oAPSij0ooAO1HpR2o9KACjtRR2oAPSjvR6Ud6ACiiigAooooAKKKKACiiigAooooAKKKKACiiigAooooAKKKKACiiigAo7UUdqACiiigA7UUdqKACjtRR2oAKKKKACiiigApO9LSUAFFFLQAUUUUAJRRRQAUUUUAFFFFABRRRQAUUUUAFFFFABRRRQAUUUUAFFFFABRRRQAUUUUAFFFFABRRRQAUUUUAFFFFABRRRQAUUUUAFFFFABRRRQAUUUUAFFFFABRRRQAUUUUAFFFFABRRRQAUUUUAFFFFABRRRQAUUUUAFFFFABRRRQAUUUUAFFFFABRRRQAUUUUAFFFFABS9qSl7UAFFHpRQAUUdqPSgAooo7UAFFHpRQAUUdqPSgAooo7UAFFHpRQAUUdqPSgAooo7UAFFHpRQAUUdqPSgAooo7UAFFHpRQAUUdqPSgAooo7UAFFHpRQAUUdqPSgAooo7UAFFHpR3oAKKKKACiiigAooooAKKKKACiiigAooooAKKKKACiiigAooooAKOKKKADikpaO1ABxRxRRQAlLxR2ooAOKSlo7UAHFFFFABR6UUUAFJS0negA7UUUUAH86WiigBKKKKACiiigAooooAKKKKACiiigAooooAKKKKACiiigAooooAKKKKACiiigAooooAKKKKACiiigAooooAKKKKACiiigAooooAKKKKACiiigAooooAKKKKACiiigAooooAKKKKACiiigAooooAKKKKACiiigAooooAKKKKACiiigAooooAKKKKACiiigAooooAKXtSUvagA9KKKKADtR6UUUAFHaiigA9KKKKADtR6UUUAFHaiigA9KKKKADtR6UUUAFHaiigA9KKKKADtR6UUUAFHaiigA9KKKKADtR6UUUAFHaiigA9KKKKADtR6UUUAFHaiigA9KO9FFABRRRQAUUUUAFFFFABRRRQAUUUUAFFFFABRRRQAUUUUAFFFFABRRRxQAUdqOKSgBaKOKOKADtRSUvFABR2o4pKAFoo4ooAKKKPSgApKWkoAKWk7UUALRSfzpaAEooooAKKKKACiiigAooooAKKKKACiiigAooooAKKKKACiiigAooooAKKKKACiiigAooooAKKKKACiiigAooooAKKKKACiiigAooooAKKKKACiiigAooooAKKKKACiiigAooooAKKKKACiiigAooooAKKKKACiiigAooooAKKKKACiiigAooooAKKKKACiiigApe1JS9qAD0oo9KKADtR6UdqPSgAo7UUdqAD0oo9KKADtR6UdqPSgAo7UUdqAD0oo9KKADtR6UdqPSgAo7UUdqAD0oo9KKADtR6UdqPSgAo7UUdqAD0oo9KKADtR6UdqPSgAo7UUdqAD0oo9KKADtR6UdqPSgAo7UUdqAD0o70elHegAooooAKKKKACiiigAooooAKKKKACiiigAooooAKKKKACiiigAooooAKO1FHagAooooAO1FHaigAo7UUdqACiiigAooooAKTvS0lABRRS0AFFFFACUUUUAFFFFABRRRQAUUUUAFFFFABRRRQAUUUUAFFFFABRRRQAUUUUAFFFFABRRRQAUUUUAFFFFABRRRQAUUUUAFFFFABRRRQAUUUUAFFFFABRRRQAUUUUAFFFFABRRRQAUUUUAFFFFABRRRQAUUUUAFFFFABRRRQAUUUUAFFFFABRRRQAUUUUAFFFFABRRRQAUvakpe1ABRR6UUAFFHaj0oAKKKO1ABRR6UUAFFHaj0oAKKKO1ABRR6UUAFFHaj0oAKKKO1ABRR6UUAFFHaj0oAKKKO1ABRR6UUAFFHaj0oAKKKO1ABRR6UUAFFHaj0oAKKKO1ABRR6Ud6ACiiigAooooAKKKKACiiigAooooAKKKKACiiigAooooAKKKKACjiiigA4pKWjtQAcUcUUUAJS8UdqKADikpaO1ABxRRRQAUelFFABSUtJ3oAO1FFFAB/OloooASiiigAooooAKKKKACiiigAooooAKKKKACiiigAooooAKKKKACiiigAooooAKKKKACiiigAooooAKKKKACiiigAooooAKKKKACiiigAooooAKKKKACiiigAooooAKKKKACiiigAooooAKKKKACiiigAooooAKKKKACiiigAooooAKKKKACiiigAooooAKKKKACl7UlL2oAPSiiigA7UelFFABR2oooAPSiiigA7UelFFABR2oooAPSiiigA7UelFFABR2oooAPSiiigA7UelFFABR2oooAPSiiigA7UelFFABR2oooAPSiiigA7UelFFABR2oooAPSjvRRQAUUUUAFFFFABRRRQAUUUUAFFFFABRRRQAUUUUAFFFFABRRRQAUUUcUAFHajikoAWijijigA7UUlLxQAUdqOKSgBaKOKKACiij0oAKSlpKAClpO1FAC0Un86WgBKKKKACiiigAooooAKKKKACiiigAooooAKKKKACiiigAooooAKKKKACiiigAooooAKKKKACiiigAooooAKKKKACiiigAooooAKKKKACiiigAooooAKKKKACiiigAooooAKKKKACiiigAooooAKKKKACiiigAooooAKKKKACiiigAooooAKKKKACiiigAooooAKXtSUvagA9KKPSigA7UelHaj0oAKO1FHagA9KKPSigA7UelHaj0oAKO1FHagA9KKPSigA7UelHaj0oAKO1FHagA9KKPSigA7UelHaj0oAKO1FHagA9KKPSigA7UelHaj0oAKO1FHagA9KKPSigA7UelHaj0oAKO1FHagA9KO9HpR3oAKKKKACiiigAooooAKKKKACiiigAooooAKKKKACiiigAooooAKKKKACjtRR2oAKKKKADtRR2ooAKO1FHagAooooAKKKKACk70tJQAUUUtABRRRQAlFFFABRRRQAUUUUAFFFFABRRRQAUUUUAFFFFABRRRQAUUUUAFFFFABRRRQAUUUUAFFFFABRRRQAUUUUAFFFFABRRRQAUUUUAFFFFABRRRQAUUUUAFFFFABRRRQAUUUUAFFFFABRRRQAUUUUAFFFFABRRRQAUUUUAFFFFABRRRQAUUUUAFFFFABRRRQAUUUUAFL2pKXtQAUUelFABRR2o9KACiijtQAUUelFABRR2o9KACiijtQAUUelFABRR2o9KACiijtQAUUelFABRR2o9KACiijtQAUUelFABRR2o9KACiijtQAUUelFABRR2o9KACiijtQAUUelHegAooooAKKKKACiiigAooooAKKKKACiiigAooooAKKKKACiiigAo4oooAOKSlo7UAHFHFFFACUvFHaigA4pKWjtQAcUUUUAFHpRRQAUlLSd6ADtRRRQAfzpaKKAEooooAKKKKACiiigAooooAKKKKACiiigAooooAKKKKACiiigAooooAKKKKACiiigAooooAKKKKACiiigAooooAKKKKACiiigAooooAKKKKACiiigAooooAKKKKACiiigAooooAKKKKACiiigAooooAKKKKACiiigAooooAKKKKACiiigAooooAKKKKACiiigApe1JS9qAD0ooooAO1HpRRQAUdqKKAD0ooooAO1HpRRQAUdqKKAD0ooooAO1HpRRQAUdqKKAD0ooooAO1HpRRQAUdqKKAD0ooooAO1HpRRQAUdqKKAD0ooooAO1HpRRQAUdqKKAD0o70UUAFFFFABRRRQAUUUUAFFFFABRRRQAUUUUAFFFFABRRRQAUUUUAFFFHFABR2o4pKAFoo4o4oAO1FJS8UAFHajikoAWijiigAooo9KACkpaSgApaTtRQAtFJ/OloASiiigAooooAKKKKACiiigAooooAKKKKACiiigAooooAKKKKACiiigAooooAKKKKACiiigAooooAKKKKACiiigAooooAKKKKACiiigAooooAKKKKACiiigAooooAKKKKACiiigAooooAKKKKACiiigAooooAKKKKACiiigAooooAKKKKACiiigAooooAKKKKACl7UlL2oAPSij0ooAO1HpR2o9KACjtRR2oAPSij0ooAO1HpR2o9KACjtRR2oAPSij0ooAO1HpR2o9KACjtRR2oAPSij0ooAO1HpR2o9KACjtRR2oAPSij0ooAO1HpR2o9KACjtRR2oAPSij0ooAO1HpR2o9KACjtRR2oAPSjvR6Ud6ACiiigAooooAKKKKACiiigAooooAKKKKACiiigAooooAKKKKACiiigAo7UUdqACiiigA7UUdqKACjtRR2oAKKKKACiiigApO9LSUAFFFLQAUUUUAJRRRQAUUUUAFFFFABRRRQAUUUUAFFFFABRRRQAUUUUAFFFFABRRRQAUUUUAFFFFABRRRQAUUUUAFFFFABRRRQAUUUUAFFFFABRRRQAUUUUAFFFFABRRRQAUUUUAFFFFABRRRQAUUUUAFFFFABRRRQAUUUUAFFFFABRRRQAUUUUAFFFFABRRRQAUUUUAFFFFABS9qSl7UAFFHpRQAUUdqPSgAooo7UAFFHpRQAUUdqPSgAooo7UAFFHpRQAUUdqPSgAooo7UAFFHpRQAUUdqPSgAooo7UAFFHpRQAUUdqPSgAooo7UAFFHpRQAUUdqPSgAooo7UAFFHpR3oAKKKKACiiigAooooAKKKKACiiigAooooAKKKKACiiigAooooAKOKKKADikpaO1ABxRxRRQAlLxR2ooAOKSlo7UAHFFFFABR6UUUAFJS0negA7UUUUAH86WiigBKKKKACiiigAooooAKKKKACiiigAooooAKKKKACiiigAooooAKKKKACiiigAooooAKKKKACiiigAooooAKKKKACiiigAooooAKKKKACiiigAooooAKKKKACiiigAooooAKKKKACiiigAooooAKKKKACiiigAooooAKKKKACiiigAooooAKKKKACiiigAooooAKXtSUvagA9KKKKADtR6UUUAFHaiigA9KKKKADtR6UUUAFHaiigA9KKKKADtR6UUUAFHaiigA9KKKKADtR6UUUAFHaiigA9KKKKADtR6UUUAFHaiigA9KKKKADtR6UUUAFHaiigA9KO9FFABRRRQAUUUUAFFFFABRRRQAUUUUAFFFFABRRRQAUUUUAFFFFABRRRxQAUdqOKSgBaKOKOKADtRSUvFABR2o4pKAFoo4ooAKKKPSgApKWkoAKWk7UUALRSfzpaAEooooAKKKKACiiigAooooAKKKKACiiigAooooAKKKKACiiigAooooAKKKKACiiigAooooAKKKKACiiigAooooAKKKKACiiigAooooAKKKKACiiigAooooAKKKKACiiigAooooAKKKKACiiigAooooAKKKKACiiigAooooAKKKKACiiigAooooAKKKKACiiigApe1JS9qAD0oo9KKADtR6UdqPSgAo7UUdqAD0oo9KKADtR6UdqPSgAo7UUdqAD0oo9KKADtR6UdqPSgAo7UUdqAD0oo9KKADtR6UdqPSgAo7UUdqAD0oo9KKADtR6UdqPSgAo7UUdqAD0oo9KKADtR6UdqPSgAo7UUdqAD0o70elHegAooooAKKKKACiiigAooooAKKKKACiiigAooooAKKKKACiiigAooooAKO1FHagAooooAO1FHaigAo7UUdqACiiigAooooAKTvS0lABRRS0AFFFFACUUUUAFFFFABRRRQAUUUUAFFFFABRRRQAUUUUAFFFFABRRRQAUUUUAFFFFABRRRQAUUUUAFFFFABRRRQAUUUUAFFFFABRRRQAUUUUAFFFFABRRRQAUUUUAFFFFABRRRQAUUUUAFFFFABRRRQAUUUUAFFFFABRRRQAUUUUAFFFFABRRRQAUUUUAFFFFABRRRQAUvakpe1ABRR6UUAFFHaj0oAKKKO1ABRR6UUAFFHaj0oAKKKO1ABRR6UUAFFHaj0oAKKKO1ABRR6UUAFFHaj0oAKKKO1ABRR6UUAFFHaj0oAKKKO1ABRR6UUAFFHaj0oAKKKO1ABRR6Ud6ACiiigAooooAKKKKACiiigAooooAKKKKACiiigAooooAKKKKACjiiigA4pKWjtQAcUcUUUAJS8UdqKADikpaO1ABxRRRQAUelFFABSUtJ3oAO1FFFAB/OloooASiiigAooooAKKKKACiiigAooooAKKKKACiiigAooooAKKKKACiiigAooooAKKKKACiiigAooooAKKKKACiiigAooooAKKKKACiiigAooooAKKKKACiiigAooooAKKKKACiiigAooooAKKKKACiiigAooooAKKKKACiiigAooooAKKKKACiiigAooooAKKKKACl7UlL2oAPSiiigA7UelFFABR2oooAPSiiigA7UelFFABR2oooAPSiiigA7UelFFABR2oooAPSiiigA7UelFFABR2oooAPSiiigA7UelFFABR2oooAPSiiigA7UelFFABR2oooAPSjvRRQAUUUUAFFFFABRRRQAUUUUAFFFFABRRRQAUUUUAFFFFABRRRQAUUUcUAFHajikoAWijijigA7UUlLxQAUdqOKSgBaKOKKACiij0oAKSlpKAClpO1FAC0Un86WgBKKKKACiiigAooooAKKKKACiiigAooooAKKKKACiiigAooooAKKKKACiiigAooooAKKKKACiiigAooooAKKKKACiiigAooooAKKKKACiiigAooooAKKKKACiiigAooooAKKKKACiiigAooooAKKKKACiiigAooooAKKKKACiiigAooooAKKKKACiiigAooooAKXtSUvagA9KKPSigA7UelHaj0oAKO1FHagA9KKPSigA7UelHaj0oAKO1FHagA9KKPSigA7UelHaj0oAKO1FHagA9KKPSigA7UelHaj0oAKO1FHagA9KKPSigA7UelHaj0oAKO1FHagA9KKPSigA7UelHaj0oAKO1FHagA9KO9HpR3oAKKKKACiiigAooooAKKKKACiiigAooooAKKKKACiiigAooooAKKKKACjtRR2oAKKKKADtRR2ooAKO1FHagAooooAKKKKACk70tJQAUUUtABRRRQAlFFFABRRRQAUUUUAFFFFABRRRQAUUUUAFFFFABRRRQAUUUUAFFFFABRRRQAUUUUAFFFFABRRRQAUUUUAFFFFABRRRQAUUUUAFFFFABRRRQAUUUUAFFFFABRRRQAUUUUAFFFFABRRRQAUUUUAFFFFABRRRQAUUUUAFFFFABRRRQAUUUUAFFFFABRRRQAUUUUAFL2pKXtQAUUelFABRR2o9KACiijtQAUUelFABRR2o9KACiijtQAUUelFABRR2o9KACiijtQAUUelFABRR2o9KACiijtQAUUelFABRR2o9KACiijtQAUUelFABRR2o9KACiijtQAUUelHegAooooAKKKKACiiigAooooAKKKKACiiigAooooAKKKKACiiigAo4oooAOKSlo7UAHFHFFFACUvFHaigA4pKWjtQAcUUUUAFHpRRQAUlLSd6ADtRRRQAfzpaKKAEooooAKKKKACiiigAooooAKKKKACiiigAooooAKKKKACiiigAooooAKKKKACiiigAooooAKKKKACiiigAooooAKKKKACiiigAooooAKKKKACiiigAooooAKKKKACiiigAooooAKKKKACiiigAooooAKKKKACiiigAooooAKKKKACiiigAooooAKKKKACiiigApe1JS9qAD0ooooAO1HpRRQAUdqKKAD0ooooAO1HpRRQAUdqKKAD0ooooAO1HpRRQAUdqKKAD0ooooAO1HpRRQAUdqKKAD0ooooAO1HpRRQAUdqKKAD0ooooAO1HpRRQAUdqKKAD0o70UUAFFFFABRRRQAUUUUAFFFFABRRRQAUUUUAFFFFABRRRQAUUUUAFFFHFABR2o4pKAFoo4o4oAO1FJS8UAFHajikoAWijiigAooo9KACkpaSgApaTtRQAtFJ/OloASiiigAooooAKKKKACiiigAooooAKKKKACiiigAooooAKKKKACiiigAooooAKKKKACiiigAooooAKKKKACiiigAooooAKKKKACiiigAooooAKKKKACiiigAooooAKKKKACiiigAooooAKKKKACiiigAooooAKKKKACiiigAooooAKKKKACiiigAooooAKKKKACl7UlL2oAPSij0ooAO1HpR2o9KACjtRR2oAPSij0ooAO1HpR2o9KACjtRR2oAPSij0ooAO1HpR2o9KACjtRR2oAPSij0ooAO1HpR2o9KACjtRR2oAPSij0ooAO1HpR2o9KACjtRR2oAPSij0ooAO1HpR2o9KACjtRR2oAPSjvR6Ud6ACiiigAooooAKKKKACiiigAooooAKKKKACiiigAooooAKKKKACiiigAo7UUdqACiiigA7UUdqKACjtRR2oAKKKKACiiigApO9LSUAFFFLQAUUUUAJRRRQAUUUUAFFFFABRRRQAUUUUAFFFFABRRRQAUUUUAFFFFABRRRQAUUUUAFFFFABRRRQAUUUUAFFFFABRRRQAUUUUAFFFFABRRRQAUUUUAFFFFABRRRQAUUUUAFFFFABRRRQAUUUUAFFFFABRRRQAUUUUAFFFFABRRRQAUUUUAFFFFABRRRQAUUUUAFFFFABS9qSl7UAFFHpRQAUUdqPSgAooo7UAFFHpRQAUUdqPSgAooo7UAFFHpRQAUUdqPSgAooo7UAFFHpRQAUUdqPSgAooo7UAFFHpRQAUUdqPSgAooo7UAFFHpRQAUUdqPSgAooo7UAFFHpR3oAKKKKACiiigAooooAKKKKACiiigAooooAKKKKACiiigAooooAKOKKKADikpaO1ABxRxRRQAlLxR2ooAOKSlo7UAHFFFFABR6UUUAFJS0negA7UUUUAH86WiigBKKKKACiiigAooooAKKKKACiiigAooooAKKKKACiiigAooooAKKKKACiiigAooooAKKKKACiiigAooooAKKKKACiiigAooooAKKKKACiiigAooooAKKKKACiiigAooooAKKKKACiiigAooooAKKKKACiiigAooooAKKKKACiiigAooooAKKKKACiiigAooooAKXtSUvagA9KKKKADtR6UUUAFHaiigA9KKKKADtR6UUUAFHaiigA9KKKKADtR6UUUAFHaiigA9KKKKADtR6UUUAFHaiigA9KKKKADtR6UUUAFHaiigA9KKKKADtR6UUUAFHaiigA9KO9FFABRRRQAUUUUAFFFFABRRRQAUUUUAFFFFABRRRQAUUUUAFFFFABRRRxQAUdqOKSgBaKOKOKADtRSUvFABR2o4pKAFoo4ooAKKKPSgApKWkoAKWk7UUALRSfzpaAEooooAKKKKACiiigAooooAKKKKACiiigAooooAKKKKACiiigAooooAKKKKACiiigAooooAKKKKACiiigAooooAKKKKACiiigAooooAKKKKACiiigAooooAKKKKACiiigAooooAKKKKACiiigAooooAKKKKACiiigAooooAKKKKACiiigAooooAKKKKACiiigApe1JS9qAD0oo9KKADtR6UdqPSgAo7UUdqAD0oo9KKADtR6UdqPSgAo7UUdqAD0oo9KKADtR6UdqPSgAo7UUdqAD0oo9KKADtR6UdqPSgAo7UUdqAD0oo9KKADtR6UdqPSgAo7UUdqAD0oo9KKADtR6UdqPSgAo7UUdqAD0o70elHegAooooAKKKKACiiigAooooAKKKKACiiigAooooAKKKKACiiigAooooAKO1FHagAooooAO1FHaigAo7UUdqACiiigAooooAKTvS0lABRRS0AFFFFACUUUUAFFFFABRRRQAUUUUAFFFFABRRRQAUUUUAFFFFABRRRQAUUUUAFFFFABRRRQAUUUUAFFFFABRRRQAUUUUAFFFFABRRRQAUUUUAFFFFABRRRQAUUUUAFFFFABRRRQAUUUUAFFFFABRRRQAUUUUAFFFFABRRRQAUUUUAFFFFABRRRQAUUUUAFFFFABRRRQAUvakpe1ABRR6UUAFFHaj0oAKKKO1ABRR6UUAFFHaj0oAKKKO1ABRR6UUAFFHaj0oAKKKO1ABRR6UUAFFHaj0oAKKKO1ABRR6UUAFFHaj0oAKKKO1ABRR6UUAFFHaj0oAKKKO1ABRR6Ud6ACiiigAooooAKKKKACiiigAooooAKKKKACiiigAooooAKKKKACjiiigA4pKWjtQAcUcUUUAJS8UdqKADikpaO1ABxRRRQAUelFFABSUtJ3oAO1FFFAB/OloooA/mLooor2DMWkoooAKWkooAKKKKAFpKKKAClpKKACiiigBaSiigApaSigAooooAWkoooAKWkooAKKKKAFpKKKAClpKKACiiigBaSiigApaSigAooooAWkoooAKWkooAKKKKAFpKKKAClpKKACiiigBaSiigApaSigAooooAWkoooAKWkooAKKKKAFpKKKAClpKKACiiigBaSiigApaSigApe1JS9qBB3o9aO9HrQAdqO9HajvQAetHaj1o7UAHej1o70etAB2o70dqO9AB60dqPWjtQAd6PWjvR60AHajvR2o70AHrR2o9aO1AB3o9aO9HrQAdqO9HajvQAetHaj1o7UAHej1o70etAB2o70dqO9AB60dqPWjtQAd6PWjvR60AHajvR2o70AHrR2o9aO1AB3oPWjvSH+tABRS96T1oAPSij0pe9ACUelHrR6UAFFL3pPWgA9KKPSl70AJR6UetHpQAUUvek9aAD0oo9KXvQAlHpR60elAC96KO9FABRRRQAUUUUAFFFFABRRRQAClpKWgAopO1LQAUlLScUAFB+tHFBoAKWm06gBtFLijFAxKKXFGKAEopcUYoASilxRigBKKXFGKAEopcUYoASilxRigBKKXFGKAEopcUYoASilxRigBKKXFGKAEopcUYoASilxRigBKKXFGKAEopcUYoASilxRigBKKXFGKAEopcUYoASilxRigBKKXFGKAEopcUYoASilxRigBKKXFGKAEopcUYoASilxRigBKKXFGKAEopcUYoASilxRigBKKXFGKAEopcUYoASilxRigBKKXFGKAEopcUYoASilxRigBKKXFGKAEopcUYoASl7UYo7UCDvR60d6PWgA7Ud6O1HegA9aO1HrR2oAO9HrR3o9aADtR3o7Ud6AD1o7UetHagA70etHej1oAO1HejtR3oAPWjtR60dqADvR60d6PWgA7Ud6O1HegA9aO1HrR2oAO9HrR3o9aADtR3o7Ud6AD1o7UetHagA70etHej1oAO1HejtR3oAPWjtR60dqADvQetHeigBKKWjFACUUtFACUUp745PWtyx8B+JtUslvLPw7qt3aMCy3EFlK8bAdcMFwaAMKinPG0TlWUq44KkYI9aTFACUUtFACUUuKKAEopaMUAJRS0hOPf2FABRS9s5GPXNGOB6+lACUtHHr+Xaj/P8An0oAKKXFGKAEopcUhwASelABRSgZzxzSZFABRS4oxQAgpaSjP/1qAFopAePfpS0AFJRmjPT3oAPwoNGaOtABS0mKKAClpKKAFpKKDjv0oAM9OaM16L4U/Zz+KXjzRINY8O/D7xHrelTZEV7YaZLLDJj0YKQTVLxz8DviD8MdOhvvF3gvXPDVlM+yOfU7KSBGbj5QWAB6/rSuu4HD596Dwa7qH4E/ES58KnxLF4J11/Dwj8z+01sHa3Cdd5fbjH49642x0+61O+is7S3kuLqZ9kcEalnZvQAd6LoCuDnmgnFdZ41+E3jT4cQW0/irwrq3h6G6GYH1G0eASj1BYDNHgf4S+NfiSJz4U8K6v4jFvzMNMtHnCfXaDii6A5PPvRn3q/rOg6j4b1SfTdVsZ9P1GBtkttcRmORT6FT0rq5vgT8RLfwqPEsvgjXU8PGPzf7TawcW5Trv37cY/HtTugOFo711vgL4ReNvij9rHg/wpq/iY2oHnjTLN7jy8njdtBxWr4w/Z4+J3w+0WTWPE3gHxDoWlRkK95qGnyxRBjnA3MPY0rrYDz2jPbvXU+B/hT4y+Jbzp4T8Mar4je3/ANb/AGdaNOU7/NtBrH1/w9qfhbV7jS9Z0+40vUbc7ZrS8jMciH0YHBFO6vYDOzS13Gl/Av4ia74ZPiHT/BOu3mhBS51GCwkeAKP9vGP1rB0XwVrniPT9YvtN0q6vbTR4RcahNBGXFtHyNzkcAcHk0roDEpaSimAtJRRQAtFJRQAUUUh79hjtigBc0evt1rZv/Bev6X4Y0zxHd6Pe22g6o8kVjqckDfZ7l4yVcI54YqQQRz0rGPOOw7AUALRSUUAFFFdz4U+BfxD8d6Q+q+HfBOu65pqDLXdhYyyxjH+0oxRe24HDUVPfWFxpd7PZ3cL291AxjljlXa6sOoI7EdKgoAWikooAKWkooAWk6Citrwv4L1/xtc3UHh7R73Wbi0t3u50sYGlaKFBl5GABwoHUmgDF60Z704RuZvL2ZcnaFxyT0xj61s+KfBHiDwNdWlv4h0a90W5urdLqBL6FomlicZV1DDlSOmKV0BiUtJRTAWkoooAWikooAKWkooAWkoooAWikooAKWkooAWkoooAWikooAKWkooAWkoooAWikooAKWkooAWkoooAWikooAKDRRQAUlLRQAlLSdqWgBKKWk7UALSUtFACUtJ2paAEopaTtQAtJS0UAJS0naloASilpO1AC0lLRQAlLSdqWgBKKWk7UALSUtFACUtJ2paAEopaTtQAtJS0UAJS0naloASilpO1AC0UUUAFFH+elH+elABRR/npR/npQB1Hwu0S08TfEfw1pN+jPY3uoQwTqjbSyM4BAOPSvqT4QunjTwT/b9/HosVzIuqrcLqTTxTeZHZ3E1utgkbbcJ5QLb8/d6nofjmzvZ9Nu4bu1me3uYXEkcsZwyMDkEHsfevUn+MWmanNZ3+qaZfRalZLMIrfS7s29lIZVImLR9U8wFtwiKDk4AqJK4GL8VSmox+H9bkiWDUNRsy10FGPNZXIEuP8AaBA/4Aa4H19q9h+Gn7RE/gr4pWvifU/Dmh+INJWNbSXRNS0+K5t0tgSRHGJFYoQSTkHPJyTmvtv44fsr+AP2xPhVa/Fb4FWVnpmuJBtu9B0+NYo5HQYMRhXASQY/hA3cHBzky58jSYWucL+yh8Afh745/Yr+JHi/XvC9nqfiXTbS+e01GVnEkLJFIUIw2OCB1Havz9/Ov1J/Y00+50r9gD4xWl5A9vdQWmpxzW8i7WRhFKCpHYivm/8AZG+OXwI+EfgDVX+IfgCHxX4wF6HtHlhaZXgK/dIfdGuCP7uTu9qiMmubqVY+Rhycc0A5A681+q/w+8cfsr/tr3Z8Gz/D6y8FeI7lSLMWkS2jluxV4Qis3+ywOe4NfA/7Q/7OWt/AX4z3PgOUPqLyzINNnAyblJGATgcEnIGOxNXGd3ZqzE0eQZ6deeaDx1yK/UfQPgP8Ef2FfhFo/iz4taRD4u8aayN1vZXWZAWABaOOE/Lhd67mZTgsBnmpvh18av2Xf2vNcj8C6v8ACuw8GanqDeRYywxJatJJ0UCSBY8NnGASc+lT7XqloFj8su+O5OK+8f8Agmr8CfAXxi8GfFu78Z+GbTX7nSYbRrGS6LgwFkuixXaw6mNOv90V5d8RvhVbfsNftU6X/wAJJpC+NPCtpJJd21veRxlb6Bo2VVcMpQspdSeOor9Ef2Q/2h/A/wAfvBXxLl8F/Diy+Hy6XaxC6Wzigj+1+ZHcbM+Ui/d8t+ufv8d6mrNuPu/eNbn5h/s5/s5Wv7RXxs1DwefEVt4VtYHnlM8sPnHy0ZshV3KOAO7CvrnUNJ/Yj/Z1lbRNZt7z4h6pH+7uJUAuCj9D0aMAfQmvzw1XWL/QvFus3OnX9zp9wbi4jM1pM0TlGYgjcpBwRwfWvS/hR+xx8W/jNHDceHvCN4dPmwU1C8Q29sw9RIQAfzrSSvq3oJH2Xc/sp/s8/te+Bta1T4I3tz4Z8TaXGJDpjr8gyCVDxkk/NtIDBzjByORX5r65o914e1rUNLv4zDfWM8ltPGf4HRirD35Br9ev2Qv2UIf2HvD3ij4hfEDxHbx3k1mI5Eik228CLliCSTuYnABz6+tfnfpX7Q2h6B8bPHvim98C6J4z0XxHqNzMLTWInLQQvM7AxFWUq5VuWrOnLV21Q2jwj/HFH4196X3gX4N6r+xp8afHPw8tEEkv9mbdL1NBPeaI7X1uHSOZhvCsCw3ZyQepzXkX7OXwQ8Hp8N9d+MPxUSabwTpVylhYaVBKYm1W9KlzHuXBAVQCcEZz9a151a4rHzRmjj6ivqyX9uPSLW4az034GfDmLw8pKR211pRmuGj6DdOX37vcEUz4yfCLwL8S/grcfGf4T6dJoNrptxFb+I/DRmacWLSMEWVCxJCliBjPQ5HSnzNPVCON/Yo8CaD8R/j9pGieJdMh1fSpred5LWfdtYquQcgivKPiDp9vpPj3xLZWkQgtbbU7mGGJTwiLKwUD6AAV9qfsC/tGT6n498M/D8+BvB8EUNjPGNeh0pBqTgAnJn6k84/AV85aX4/8O/Dj44eNNV8Q+DbLxrGNSvVtrO/kkSKOTznwxEbLuHTg1N3zPQfQ8YzRketfVEX7b+lapKLLX/gd8ObnQZGxPb6fpTWtwif7EyOHDehJNYP7SfwO8MaR4N8OfFX4aee/gDxC720llNIZH0y8XDGBmPOCpyN3Pynk8YpS1s0Kx865FBPf0r6m+Bfw78D/AA2+Ckvxr+JOjDxIl3ePY+HNAllaKG7ljO1pX2kFlVsgrnHynNXdE/a78EfELVodC+I/wc8FWXhW8byZbzw7YtYXlkD92RJEYEhTgkNnOMd6Tk+iC3c5r4RfDrw18Vv2XviTHa6RDF4+8JXNtq0N+pYz3Vk4kSSEDOMKyo2cfxV8419r+AvB0f7JH7Xul6JNe/b/AAL4x09raK9kwyzWVx93PbcrKo9ea+YPjj8OpvhN8XfFnhGaNov7Kv5IokfqYSd0R/FGQ/jRF3bGcroOjXXiTXNP0qyTzby/uI7WFAMku7BVH5kV9Dftv+CvBvwq8VeE/A/hbSLez1DSNJSTWdQjLeZdXUuCVkBJA2BeMY++am/4J9eArTxL8d08T6xEJPD/AIKsLnxDfAj5cQxN5Zz6iQxt+FeK/GHx9d/E/wCJ3iXxTeymefUrx5i+c5XO1P8Ax0CnvO3YRx/fI7+tHrRxnA6evrR61YBR3oo70AFLSUtACUEfiB2paKAPtD9lzxzrnxQ/Z08c/CnS9avNM8WaIV8Q+HmtbhonmjAKXEO/I4H7pgueTnivAPBnxW1DWPiT4Tb4j65qWteGbHVYJdQtNQleZREJB5mUOcnAPGKxfgn8Tb34P/E/QfFVictYzgyxk8SRNw6n1GCfyFe1fHf9npPGf7Rwtvh9f6W2jeMbNfEemteXaRJAksYklicjO1hJ5gCntisdIt36lI9R/bA+MPx3+EXx6n8Yad4m1L/hBbm68/QJ9PuWl0qe1JJSMhCUOVxkHr71m/sPR63461L44/E7R9MtLz4gaZpsD6Va26JEqz3Dyb2jBwFIEXtyfeu+/Z6+EHxW8DJH4I8c3fhDxX8LtSb7PfaZd64he1Q/8toH2nayHDAYwQCOM5Hlfwh8W+Gv2Yf2nPiP8O9Q1Yt4I1tW0l9VtZB+4Iw8EwK53BS7DA6561nuuVbj6nZ+EL/4nXP7L3xwl+Oj6uNInsm/sMeJyyytqeGwIkk+bGdmCBjPQ1V8VeJ/HM37GHw3v/gpqd9ZaRodvs8VQaDOYruG74zLKiEOU3ZOQCOh6DNeZftJ/BX4j6B4Sn1/X/idpHjXwraSrHp6waozzzxMcI/k7eCBjOScc9a674Ofs1/Hj4IeI4da8LeJPCdvni4s59aR7e5QjlJI8cg/nT0te4jzXwd+0TdfFD48/C/U/izcw6jp+gTrbXF9NADNLGSSDM2CXw23rnHPrXq37TXxs/aA+Bv7Quo+JW8R6mfC91dfadFkguGm0i6szholUKSmNpAYdc5OOcmf9qb9lIeNPiH4Lu/Bx8OaH4g8S6Xd3usaTDqiNaWlxbvCrFZcD7/nqQCB9w9a9E/Z7+EHxK0Gxt/h78Trvwl4q+F94TDPb3Gto1xp6seZIGK8YyW2nr0yKG4/EvuBK585/sVeMviTN8erq88HaM2qWeppKdf060kjtLUWb/6xizsscYXIK5I5CgVU/bTsNc+H3xFufDsHxCl8W+GL5Be29vHqou0gySDFIAxAdTkemCOa9F+BFvoHhR/jx8CIvFtroOuaxN9i0bxPMdsMxtrhWMRZT8qyLGRkHGD3ryz4ofslXHwj8Eahrvi74heG31kOo0/RtMuGvJb0c7yX4CY+XHBzk9Mc0mue4uh6l+0N8RvEX7O3wI+CvgLwNq134bj1Tw8viO/udNlaGS6luJZGw7L97GABnsBVr4teJbb4q/s//Ab4ueNwL+/t/Ei6HrF3Km6S7tomZnaTuxKxH161HrXgu0/bS+B/w0ufDviXRdL8c+EtN/sLUdK1q6+zh4I5H8l43wc5VgSMVV+M3hmyvfBHwt/Zq8Ha/pWua9ZXNxqmp6j9o8qyju/JkZ41kIORgvg8c445qVbRdRnR/tj/ABX+NHw6+J+l+NPCfiTU4fhjcQRN4fn0e6Y6eIgo3RSKhwGz1DAZAHXaceUfsw/F/wD4Tj9p6/Pi37Nb2PxCWTR9UitoVihLXC+WHKjjqxYn1JJ617h+z58HvjD8Kmfwzr974P8AFPw71FhHqGh32towVTwZIm2/I4/Livkr9pLwRYfA79ovxRoPhbUlubDSr2K40+8t5A4VZIo51UMODs8zb1/h/CnGz91B5md4I+A+u+MfjvZfCw7bPW5dSfT5jIeIvL3GRj/uqjH8K980b9hvwb8SPGNxofw7+KltrraJIw8R/bLOS1ks4gDumiDKBMgKMp2kkHHGDXpnhn+y7j9v/wCEPxOilt9P0XxtYzay5kkVVinewmMwZicA73xzXmP7FGuW2mftPfEua4v4LW2n0PWkEksqojkyrgAk4JPahyk9V2FoX/hZ+xF8MPjr8QBofgH4vPrNnaF11FJtNe3u4wOBJCkgVZEyDnByAM4rx34Ifs4Wnj3wZq/j7xt4mi8EfD7SpFgm1N4WnnnmY7UjgiUEyHPXHAAJJAFdt/wTR1qDRP2sdAubq9isLU2lyskk0oROY+ASSB1rR+Dlxo/x5/ZXuPg2mv2XhvxfpWsf21pY1N/Kt9QB3CSNnGdpCuxGQclQOOtNuSbV+wHG/En9mLw/B8OD8Qfhh43Txx4Rs7pbPVnntXtbrTnYZR5ImUHYQG5XPStnwx+z58DfED6doR+OSQ+Lr6ONUB0m4XTkmkUERtO0Y243AFiMDnJ4Ndi+g6Z+yn+zj4+8Fa/4o0nV/GPxFns7X7DpUxnh062gaQmd3xySZsYA6L1rlvDf7Ct7falY6pcfEjwhH4IYJPLrsN6wkWHq2ICobeOcDPbrQpaasDwL4pfDPXfg9471bwn4ktvs2rabMY5AjhlYdAy46qeoruvgT8DdJ+OekeJdNsNdks/iDZQC70rRZo1WHU4xnzFSQn/WL8p29weM4Nd18fdai/bS/bDvI/BlzYadBqmbSxvdYn8i3ZYIXPmSOAdu5UOBg8kD3q/+yp4f0r4Laf4x+Mnie7tpZfCztpmh6dBcDfeai24FweuxFXP3cNvHTFU5Pl8xHXeNvACXX7Hf7O3hnxbqA8FRtr2sx3d1qtvKPs4+0vyyKhbkHjjFcVbfsr/Df4oaTq8Hwg+KT+LfFum2z3n9ianp0tk95FGNzmBnUB2CgttJB46V6V8UfEF1+09+zL8DE8V+NtM07xDqOs609zfX7DZCRM4iV1TlVICqDjoO9Vf2f/goP2P/ABufiz8QfF3h4W2gWl0NP0rSL37TNqU8sEkCx42jav73OTnp0rNNpb6lHg3wM/Zs/wCFkaZ4l8T+K9eh8E+B/DbpDqOrXKNI5mYtiKKNQS7/ACMSAOOK3vH37Mfhi6+GepePfhN44/4TrQtHbbq1rc2j2d7ZjtL5bKN0eOdwz37giu2+DHibQvjn8CvH/wAI7nWrTwpr9/4hXxJo8+oPtgu2KyK8DsPu7QykHnOe1aOl+G7L9j34C/E3TvEviPSdY8X+OdOOj2ujaRcfaFghO4Gd5MAA/MSFA6Ac1Tk7iM74ZfAX4Ua7+xv8S/Gd14ttrnxLpttZyvKbC53aTO8kYFsT5XzmRiIt6blG/JIAJql8Fbj9p74vaRow8MeIda0bwjoSLEmq3Gp/YLC3jDEli7uokIzyFycYrSi8P2vwL/YY+IOka/r2l3Gv+P59Ln0vTdPuPOkSKK5imZpOBt+VDxXoPxG8Jar+1H8Nfh+nwr8eaDoPhTS9LW11Dw7qF+bJ7a7z88jYU+YGGPpt754lvf1GcT+0/qHwo+Mf7Rmm2eu+P4NNNloFrZaz4r06xkuYL/VI48NJ8ilmT7i7gD932rgvjN+xXq/wz8T/AAu8L6RqS+IvEHjW3LolvtMEbhlGUkBwUwS249hmvMvjp8KNM+DviW10Sw8Zad4yufsyyX0umxssVrOSd0QYk78DB3cZ3dBX1r4j+NumfDHXf2O/F9/cR6lb6L4cMN8scwd4VeJYWLDn5lDlsHGdtV8NuViPOn/ZJ+FEPiUeBJvjTBH8Sf8AUmzGnzHThcYBEP2nZjPv93tmuO+CHwD0OH9pSPwB8UdZi8O3mn6pDaf2dLazXA1GRpB+5Vo0YIHUqQzYGHHNeo3H7JdndfF4/ECP4k+HP+FcNf8A9rf2s92ftYj3CTy/IxnfnjG7GO9T+GpLb9pb9uLWPi5Z6tpfh7wfoutWV9cT6nceW7wWyRRhkTHJcQ7sf7VLmdnr0A4X4k/Az4R6N+0V8R9F1L4jQeF/Cmi3TokdtptxNcCXzNptokEeGMbHBbOCFJBI5rn/AIofsyaFZfDKT4i/C/xkvj3wjZTi11TzbdrW80+RhlDJE4B2thsMMjIIq74g+HNt+1Z8bvijr3hfxToum3N5rVxfafp+sTNA15BJKWyr4IBAPQ13uo6Npv7JP7MXxF8H634k0vX/ABt8QWtIBpekTedFYW9uZG81pO7MZcbQP4etO7VtdRnJeGf2S/C2i/D3wz4j+Jni/VPDt14lgN3p+naNo82oOltuZVlmKKVXdtJABJII4zxV/wAF+EtS/Ys/av8AAt3qV5DqvhjVXCw6jFkRXthcoYWZkYBvlWUEgjgj2rtPhla/Hzxj8PvC134W+Nvh7+xI7RYBa300Ub6WqEqImDxEsAADwe+Pc+e/t4/GPTfiP4v8I6HpOtHxMPCGljTZ/EAjEf2+f5fMkCjhRuU4x60JuT5XtqLYnj/Zucftyf8ACDlCNFXUP7U+1AYT7HjzfN/3c/LXmv7WvxNX4tftCeMddgbOnrdixsVX7gt7dVgTb7ER7v8AgVfYZ+Lfhsfszj43i/tz8RG8Pf8ACE/ZvMUSebv3+Zt+9jZxnH41+bjMzEsxycn5vU+tOHvO76aAwpaSlrYQlFLSUALSUtFACUtJS0AJRS0lAC0lLRQAlLSUtACUUtJQAtJS0UAJS0lLQAlFLSUALSUtFACUtJS0AJRS0lAC0lLRQAlFFBoAKKKSgBe1FJS0AFHakooAWiikoAXtRSUtABR2pKKAFoopKAF7UUlLQAUdqSigBaKKSgBe1FJS0AFHakooAWiikoAXtRSUtABR2pKKAFoopKAF7UUlLQAUdqSigBaKKKAD/PWj/PWiigA/z1o/z1oooAP89aP89aKCcDNAB+OP1r9D/wDgk58MfF9v4j1f4iPqU2h+BYI3gnEr7Ib5wDkYP8KH+I8ZBHUGvkr9mP8AZ81n9pH4pWPhjTFaOzUibUL3ZlbeDPJIz1PQc/yr7h/b9+O+jfs//DDTP2f/AIclbR47NIdTngfDwwsM7Tjq8gJZj/t1hUd/cjuNdz6o8W/EjwJ8V/2W/ir4k8BXdve2F1o+oC5uYYHiLzCFwSwZQxJOecc1+DnT2+pr9Qv2JDn/AIJ6fFodxYaiMf8AbGSvl39mn9hPW/2m/h1qniTRfFWmaTe2t59kg02+XJnwoZmLhsqBlQPkOcnkYqKdoc1xvU8N+EWo6hpHxR8K32lM66jb6lBJbmPlvMDgrj3zX6lftv6NpV3+2V+zo12I1ke8JYH+LbIrJn/gYUVxH7Ov/BOmz/Z98X2nxB+LvjDRo4NDcXlvY2xPl70+YO0j4JAIztCc+tfL37XP7W0nxi/aQ07xp4cDR6T4auIm0cyNy/lur7yO28oDjtnqab/eT93og23PT/8AgsBqF7N+0D4dspS39nwaEkkAP3Q7yuJMfgkf6V8Q+G9RvtJ8Qabe6azi/gnSWBk4YOCNpHvmv1Z+J3gTwT/wUz+EvhrxF4a8SWvh/wAe6NEYpba7wxJcLuikAIOMpuVhnGSMHPHCfAb/AIJkS/CXxtZeMvi34s0SHSNGlF4ljaOWSdkORvd9u1eBkBST7UQnGMLPdA1dlr/gsxZ2pHw9uztF6vnxqf4hGeT+oFVP+CRP/JP/AI5f9e1j/wCi72vIv2p/ih/w3f8AtSaD4S8IX1rZ6RAZNO0q91GQpFK20u7nCkjcUwvB5YCvqPwD4G8M/wDBNz9nPxtceI/E9prfizxCgj+y2w8ve6o6xxouSTt81yWOM5HAqNqah1Drc8V/4Jsfs9+G/iL8R/G3jjxTZwajaaDfPFaW9yoaMTbtxdlPHAZSPer3xt/4K6eIL3Ur2w+Gejw6fpyMyQ6rqEYeWVezeUeAPrg15z/wTn/a00f4K+Pdb0fxlL9m8O+JX8yS9I+W1nJxuYd1PAOOmM816P8AEz/glGfFWr3GrfCXxzo99ot25lhsb4keQp52iVC24D/dFNqKm/aB6HxP8V/j94++N15HP4y8S3uspGxaK3mlYwRE9SiZwv4V5/X6EeEv+CRWs21ysvjz4j6LoFmmGdLKLz2cem53jC/XB+lfGHxz8A2Hwu+LXiXwtpWqx63pum3Xl299EQRMhVXHI4yA2DjuDW8ZRekRM92+BH/JiP7Rv/XXR/8A0ut6tftHM2mfsTfs42ljxZ3/APa11ehOhnVrZU3e+0tVX4D/APJiX7Rv/XfR+c/9P1vVz4F63oH7Q/7P138EfEOrW/h/xRpN9/anhXU70/uZiy7ZbZz/AAD5UYHv7Y5z2d/P9APkMfdJP5+lfXX7CjNf+CP2gNLvOdJbwPd3TBh8nno8ZjP1z0rzi8/Yi+NVpq5sF8C3l2Q2FubeSNoZB/eVt3Q+9es+MU0r9j79nTxF4AGrWus/FDxt5SambB98WlWiushj3/xM20KRx1J7YNyakrIDiP8Agnlj/hp/Qe+LW55z/sV4j8UufiZ4u566vd/+jnr6j/Yp+HNx8KYtT+N/jOWLRPClhpUyaYZZFMuoXD/KojTrgbTkn1HFeA+BPhL4w/aK8VeJJ/C1jFeairvqE1q0yq7eY7HCZxuOc8cUJrmbDoeaV9cfCBzqX7APxfs785s7LWbG5sw/I89kmVtvvgLXnWj/ALEfxp1bV0sX8D3mnKz7ZLu+lSOCEf3mbJwPpmu+/aN8R+Hvgr8EdE+BPhbVodf1H7c2s+KNVtOIjc7AkUEZ5yFG8n6r6nBJqVkg2Om1HXPgT8V/2dvhV4R1/wCLx8Haj4YtZ/tNguh31wBNLPJIx3RwMpyHHQmuF/4Ur+zb1P7RLAnnH/CL6kP/AG2rk/D/AOxz8Q/Gnw70bxh4TtbTxRa6ijs9jp1wpurUrI6YkRiMfdzwehFbHgD9hb4l6/rELeKNNXwN4bhbfe6zrMqrHDEOWKqDlmwDgdz3paL7QHq/7b9poWg/AH9m288M+Iz4mt7SHU0stZe2lt3u40ktmDFJFVhtYkDIFcZ+2hZxfEfwX8LvjRYr5ieJdIj07VJOrG/tM27lvTKxJjPXiuT/AGw/i/ofj7xH4c8KeDix8E+C7E6Zpsj9bh2IM02OwYheP9nrXov7KuhTftFfs6+PfgzE6HXLCZdc0Myn5i+BviX2JTJ/3qlLlim/6uMdoOfgN/wT+1rUmPkeIviXqEVlb9pEtI33sw/2HRMf8CFfG3FfWH/BQ/xVYQ/EjQ/hpoUmfD/gPTo9JhIOMyqoEmR6gqR/hXyf2rSGqv3JfYKB3o5o9a0AKO9FHegAoopaAEooooAOP/rUY5paSgA7570en59KKWgBP/10YGc0UUAGKMYGBS0lABjnOaBx/wDqopaAExnGTwKAMDA/lRRQAYFGOvPXr70tJQBcutY1C+s7W0ub65uLW1BFvBLKzJCD1CKThc+2Kp4AxjjHTFFLQA0qMeh9RxS5Jzzz9KKKAADHSj+frS0lAB/njij0/pxRS0AIuVIwRkdOBxQAAB7dKKKADFHPPPXrS0lABig9MZopaADv2/HmkIyMZPTHWiigAIBoxnNLSUAHrkk598UY/wA4opaAuIOMegowMf5GaKKADGTk8nvxRS0lABRRS0AJRRRQAUUtJQAUUUtACUUUUAFFLSUAFFFLQAlFFFABRS0lABRRS0AJRRRQAUUtJQAUUUtACUUUUAFFLSUAFFFFABRRRQAnalo7UUAFJ2paO1ABRRRQAnalo7UUAFJ2paO1ABRRRQAnalo7UUAFJ2paO1ABRRRQAnalo7UUAFJ2paO1ABRRRQAnalo7UUAFJ2paO1ABRRRQAnalo7UUAFJ2paO1ABRRRQAf56Uf56Uf560f560AH+elH+elH+etH+etAB/npQODnvR/nrR/nrQBu+FfHvibwLJcP4b8Rat4fe4CrM2l30tsZAM4DFGGcZOM9Mn1rP1rW9R8SanPqOr391qmoTkNLd3szTSyYAA3OxJbgAcnoKpf560f560eYHQ6T8RPFWgaJc6NpnibWdO0i5DLNp9pfzRW8obqGjVgrZBIOQc55qt4d8Za/wCEJml0LXNS0SVvvPp13Jbs31KMKx/89aP89aVkB0fiP4keLfGMSxeIPFOt67EuMJqWozXAH4OxrnB2zyfpij/PWj/PWntsBo6F4k1fwtefa9F1W90i7xj7RYXDwSY/3kINa3iL4o+M/F9t9m17xdr2t22QfJ1HUprhOPZ2IrmP89aP89aLICzp2pXekX8F9YXM9leW7iSG4t5GSSJx0ZWByCPUVb8QeKta8W3a3WuaxqGs3K9JtQupJ3GeuGck88flWX/nrR/nrQAYFdL4e+JnjDwjD5OheK9c0WEdI9O1KaBR+CMK5r/PWj/PWk1fcDp9d+KXjPxREYtZ8Xa7q8R4Md9qU0y/kzGuZ/8A1D2pP89aWnsBo2fiTV9O0e/0m01W9ttLv9pu7GG4dYLgqwZTJGDtYggEZHBAxWcjGNw6kqw6MpIIoooA7KD41fEK1sFsYfHfiaKyVdotk1i5EYHpt34rkLi4lu55JppXmmc7nkkYszH1JPU0yilZIDQvPEerahplppt1ql7c6daZ+z2k1w7xQ567EJwufYUzR9c1Lw9drdaVqF1plyuMT2czRP8A99KQapUUwOz1D42fETVrJ7S+8e+J7y1YYaC41m5dGHoVL4NcYSWbcxLE5JJJoopJJbAbHh3xn4h8IStLoOu6lokrcs+nXcluzfUoRV7xF8UPGfi+1Ntr3i3XNbtzj91qOpTTpx04diK5mkosgDof/r1q+HPFet+D9QF/oOsX+iXwBUXOnXT28m08EbkIOD6Vl0lMC1qeqXmtahcX+oXc9/fXDmSa5upDLLKxOSzMxJYk9Seaq/jRRQAfjR60UDvQAUd6KO9ABS0lFAC0lFFAC0UlFABS0lFAC0lFFAC0UlFABS0lFAC0lFFAC0UlFABS0lFAC0lFFAC0UlFABS0lFAC0lFFAC0UlFABS0lFAC0lFFAC0UlFABS0lFAC0lFFAC0UlFABS0lFAC0lFFAC0UlFABS0lFAC0lFFAC0UlFABS0lFAC0lFFAC0UlFABS0lFAC0lFFAC0UlFABS0lFAC0lFFAC0UlFABQaKKACkpaKAEpaTtS0AJRS0nagBaSlooASlpO1LQAlFLSdqAFpKWigBKWk7UtACUUtJ2oAWkpaKAEpaTtS0AJRS0nagBaSlooASlpO1LQAlFLSdqAFpKWigBKWk7UtACUUtJ2oAWiiigAoo/wA9KP8APSgAoo/z0o/z0oAKKP8APSj/AD0oAKKP89KP89KACij/AD0o/wA9KACij/PSj/PSgAoo/wA9KP8APSgAoo/z0o/z0oAKKP8APSj/AD0oAKWk/wA9KWgAopKKAFoopKAFopKWgAopKKAFpKWkoAWkpaSgAoNFFABzR60fjR60AFHeijvQB//Z;aspect=fixed;clipPath=inset(25.67% 20.5% 33.33% 21.22%);" parent="1" vertex="1">
          <mxGeometry x="170" y="14.069999999999993" width="98.78" height="75" as="geometry" />
        </mxCell>
        <mxCell id="GAuoqcm1p_Jp_WaCX0y3-4" value="Inputs:" style="text;html=1;strokeColor=none;fillColor=none;align=center;verticalAlign=middle;whiteSpace=wrap;rounded=0;fontSize=20;strokeWidth=2;" parent="1" vertex="1">
          <mxGeometry x="240.5" y="-15.930000000000007" width="60" height="30" as="geometry" />
        </mxCell>
        <mxCell id="GAuoqcm1p_Jp_WaCX0y3-5" value="" style="shape=image;verticalLabelPosition=bottom;labelBackgroundColor=default;verticalAlign=top;aspect=fixed;imageAspect=0;image=data:image/jpeg,/9j/4AAQSkZJRgABAQEAAAAAAAD/4QBCRXhpZgAATU0AKgAAAAgAAYdpAAQAAAABAAAAGgAAAAAAAkAAAAMAAAABABgAAEABAAEAAAABAAAAAAAAAAAAAP/bAEMACwkJBwkJBwkJCQkLCQkJCQkJCwkLCwwLCwsMDRAMEQ4NDgwSGRIlGh0lHRkfHCkpFiU3NTYaKjI+LSkwGTshE//bAEMBBwgICwkLFQsLFSwdGR0sLCwsLCwsLCwsLCwsLCwsLCwsLCwsLCwsLCwsLCwsLCwsLCwsLCwsLCwsLCwsLCwsLP/AABEIAfAB2gMBIgACEQEDEQH/xAAfAAABBQEBAQEBAQAAAAAAAAAAAQIDBAUGBwgJCgv/xAC1EAACAQMDAgQDBQUEBAAAAX0BAgMABBEFEiExQQYTUWEHInEUMoGRoQgjQrHBFVLR8CQzYnKCCQoWFxgZGiUmJygpKjQ1Njc4OTpDREVGR0hJSlNUVVZXWFlaY2RlZmdoaWpzdHV2d3h5eoOEhYaHiImKkpOUlZaXmJmaoqOkpaanqKmqsrO0tba3uLm6wsPExcbHyMnK0tPU1dbX2Nna4eLj5OXm5+jp6vHy8/T19vf4+fr/xAAfAQADAQEBAQEBAQEBAAAAAAAAAQIDBAUGBwgJCgv/xAC1EQACAQIEBAMEBwUEBAABAncAAQIDEQQFITEGEkFRB2FxEyIygQgUQpGhscEJIzNS8BVictEKFiQ04SXxFxgZGiYnKCkqNTY3ODk6Q0RFRkdISUpTVFVWV1hZWmNkZWZnaGlqc3R1dnd4eXqCg4SFhoeIiYqSk5SVlpeYmZqio6Slpqeoqaqys7S1tre4ubrCw8TFxsfIycrS09TV1tfY2dri4+Tl5ufo6ery8/T19vf4+fr/2gAMAwEAAhEDEQA/APWWYgnmk3N60N1NJQAu5vWjc3rSUUALub1o3N60lFAC7m9aNzetJRQAu5vWjc3rSUUALub1o3N60lFAC7m9aNzetJRQAu5vWjc3rSUUALub1o3N60lFAC7m9aNzetJRQAu5vWjc3rSUUALub1o3N60lFAC7m9aNzetJRQAu5vWjc3rSUUALub1o3N60lFAC7m9aNzetJRQAu5vWjc3rSUUALub1o3N60lFAC7m9aNzetJRQAu5vWjc3rSUUALub1o3N60lFAC7m9aNzetJRQAu5vWjc3rSUUALub1o3N60lFAC7m9aNzetJRQAu5vWjc3rSUUALub1o3N60lFAC7m9aNzetJRQAu5vWjc3rSUUALub1qSoqloAjbqaSlbqaSgAooooAKKKKACiiigAooooAKKKKACiiigAooooAKKKKACiiigAoopkssMCNLPLHFEoyzzOqIB7sxAoAfRXKaj8QfBGnblOpC6lXI8vT0afkdt4xH/49XJX3xgjGV0zRmPXEl9Pj8fLhH/s9AHrFGCexrwG8+J3ji63CK5tbNT2tLZMgf7028/rWBdeJvFV7n7TrWpSA9V+0yqv/AHyhA/SgD6ZkmghGZZoowOvmSIn/AKEaoy694bgyJtZ0tCOzXlvn8t1fMDyzSndLI7n1kZmP5mm0AfSzeMPBSZzr+mcf3Zw3/oOaj/4TXwP/ANB6w/76f/4mvm2igD6UXxl4Jbpr+nf8Cl2/+hCrMXiTwpNjytc0ps9B9shB/JmFfMVFAH1ZFeWE/wDqLu1l/wCuU8T/APoLVPg+hr5MBKkFSQR0IOD+lX7bWdesyDa6pqEOOgiuplH5BsUAfUlFfPFp8RPHdoR/xNGuFH8N5FFMD9WK7v8Ax6uksfi/qabV1HSbScfxPaSSQN9dr7x/KgD2OiuG0/4oeDLwqtw93YSHj/Sod8ef+ukBb9QK66y1HS9SjEun3trdJjObaZJMfUKcj8qALdFFFABRRRQAUUUUAFFFFABRRRQAUUUUAFFFFABRRRQAUUUUAFFFFABUtRVLQBG3U0lK3U0lABRRRQAUUUUAFFFFABRRRQAUUUUAFFFFABRRRQAUU1mRFd3ZURAWd3IVVA5JZjxXB6/8TvD2l+ZBpg/tO8XK7om2WaN7y9T/AMBH40Ad70BJ4AGSTwAB3JrldZ8feENG3xvefbLpcj7Pp+JiGHZ5MiMf99V4xrfjLxTr5dby9eO1YnFpaZhtwPRlU5P4k1z1AHourfFfxDd749Kt7fT4jkCRgLi5x67nGwf98Vw1/qmr6pIZdQvrq6cnObiV3A/3VJwPwFU6KACiiigAooooAKKKKACiiigAooooAKKKKACiiigAp8M1xbyLLBLLFKvKvC7I6/RlINMooA7PSviT4y03Yk1ymoQLgGO/Xe+B2WZcP+ZNeg6P8UvDN/si1FJtMnbALSfvrUn2lQbh+K/jXhdFAH1db3FrdxJcWs8NxA4yksEiyRn6MhIqWvlvTNZ1rRphPpl9cWr5BYROfLfHZ4zlD+Ir03QfizG3l2/iG12HgfbbFSV+ssB5/FT+FAHq9FVbHUNN1O3W60+7gurdukkDhgD6MOoPsQKtUAFFFFABRRRQAUUUUAFFFFABRRRQAUUUUAFFFFABUtRVLQBG3U0lK3U0lABRRRQAUUUUAFFFFABRRRQAUUUUAFFFVb/UNO0u1lvdQuYre1iHzySnAz2VQOST2AFAFquS8S+PPD/h3zIA/wBt1JQQLS2YYjb/AKby8hfpyfavPvFXxM1HU/OstD8yxsDuR7jO28uF6cFT8qn0HPv2rzokkkkkkkkk8kk9yaAOh8QeMPEfiN2F5cmO03Zjs7bMduo7bhnLH3JP4Vz1FFABRRRQAUUUUAFFFFABRRRQAUUUUAFFFFABRRRQAUUUUAFFFFABRRRQAUUUUAFFFFAF3TNW1bR7hbrTbya2mGMmJvlcD+GRD8pHsQa9a8N/FKwvPLtPECJZ3Bwq3kQP2WQ9P3i8lT78j6V4xRQB9Yo8cqJLE6SRyKHjeNgyOp5BVl4Ip1fOPhrxnr3hqRVt5PtFgWzLY3DExHPUxHqre4/EGvcPDvirQ/EsHmWMuy5RQbizmIFxF747r7j9OlAG9RRRQAUUUUAFFFFABRRRQAUUUUAFFFFABUtRVLQBG3U0lK3U0lABRRRQAUUUUAFFFFABRRRQAUUVwnjTx9a+HxLp+nGO41krhs4aGyyPvSY6v6L+foQDY8T+LtH8MW+bhvPv5VJtrKJgJH9HkP8ACnv+QNeD6/4j1rxHdm51GclFJ+z28eVt7dT/AAxp/Mnk1m3V3eX1xPd3k8k9zO5eWWVizux9Sf0qGgAooooAKKKKACiiigAooooAKKKKACiiigAoq7baTrV5j7Jpt9PnoYbaZx+ariteHwJ47nxs0O7UH/nt5cP5iVgaAObors0+GXjxwCbG3T/rpeW4P5Kxqb/hVvjj/nnp/wD4Fp/hQBw1Fds/wv8AHS5xbWb/AO5eQ/8AsxFUpvh949hznRpXA7wzW8n6K+aAOWorUufDviezz9p0bUogOpa1m2/99BcVmMroSrqysOoYEEfgaAEooooAKKKKACiiigAooooAKKKKACprW7vLG4hurOeWC5hYPFLCxV1I9CKhooA9u8H/ABHtdV8nTtcaO21I7UhueEt7s9AG7K5/I+3SvRa+TK9N8FfEWWxNvpOvytJZfLHbXz5aW2HQJMepT36j3H3QD2aimo6SIkkbq8ciq6OhDI6sMhlYcYNOoAKKKKACiiigAooooAKKKKACpaiqWgCNuppKVuppKACiiigAooooAKKKKACiivOvH/joaOkujaRKDqsiYurhDkWKMPuqf+eh/T69ABvjvx8mlCbR9FlVtTIKXdymGWyB4KIehk/l9enijM7s7uzM7sWdnJZmYnJJJ5zQzMzMzEszEszMSSSeSSTSUAFFFFABRRRQAUUUUAFFFFABRW7ofhPxJ4hYHT7Nvs+cPd3GYrZf+Bt1+gBr1LRPhXoFj5c2rzPqVwMExDdDaKfTaDvb8SPpQB41Y6bqmpyiDT7O5upScbbeJ3x/vFRgfjXcaX8KPE13sfUZ7XTozglWP2i4A9NkR2/+P17XbWtnZQrb2dvBbQKMLHbxpGg7dEAqagDgtP8AhX4QtNrXjXl/IME+bJ5MRPskOG/8eNdTZeH/AA3pwH2LSNPhI/iW3jaT8XcFv1rUooABwABwB0A4H5CiiigAooooAKKKKADJ9TVW607Sr5St7Y2dypGCLiCKT9WGatUUAcff/DjwPfbitjJZyEH57GZ0AP8A1zfcn6Vx2p/CG+QM+kapDOOohvkML/QSR7lP5CvYaKAPmTVfDPibRS39o6bcxRgn98q+Zbn3EseU/WsevrIgMCrAFWBDKwBBB7EHiuS1r4feEdY8yQWv2C6bJ8/T8Rgse7w/6s/kPrQB89UV2uvfDfxPo4kntkGpWS5Yy2anzkUd5ID835ZriiCCQQQQSCDwQR2IoAKKKKACiiigAooooAKKKKAO88D+O59Cki03U3eXRpGwjHLSWLMfvJ3Kf3h+I9G9zilhniingkSWGZFkikjYMjowyGVhxivlCu88CeOJdCmj0zUpGfRpnwrHLNYyMfvp32H+IfiPRgD3eimo6SIkkbq8ciq8boQyurDIZSOMGnUAFFFFABRRRQAUUUUAFS1FUtAEbdTSUrdTSUAFFFFABRRRQAUUVieJvENl4a0ua/n2vM2YrK3JwZ5yMhfXaOrH0+vIBjeO/GMfhy0+yWbq2s3kZ8kcEWsR489x6/3B+PQc+BSSSSySSyuzySO0kjuSzO7HJZiecmrGoX99ql5dX97K0tzcyGSVz6noqjsB0A9qq0AFFFFABRRRQAUUUUAFFFd14S+Hmpa95N9qBkstJJ3KxXFxdL/0xVui/wC0fwB7AHKaVo+r63dLaaZaSXExwW2jCRqTjdI5+UD6mvYPDfww0jTvKutbZNQvBhvIGRZRN6EHBb8cD2rttM0rStGtUs9NtY7eBcZCD5pGH8cjn5ifcmr1ADUVI0SONVSNAFREUKiqOAFUcU6iigAooooAKKKKACiiigAooooAKKKKACiiigAooooAKKKKACuY8Q+CPDfiIPJND9lvyPlvbRVWQn/pqn3WH15966eigD5x8SeC/EHhtme4i+0WBbEd7bAtCc9BIOqn6/gTXNV9YukcqPHKiSRyKUkSRQyOp4IZW4Iry3xZ8MIpRNf+GlEcgBeXTWbEb9z9mZuh/wBknHoR0oA8gop8sM0EssM8bxTRMUkjlUq6MOCrK3OaZQAUUUUAFFFFABRRRQB6b8OvGpsZIdA1ab/QpW26dPIeLaRj/qXY/wADHp6H2Py+zV8mV7d8OPGB1W3XQ9RlzqVpH/okrn5ru3QfdJPV0H5jnsaAPRaKKKACiiigAooooAKlqKpaAI26mkpW6mkoAKKKKACiiigCKee3tYJ7m4kWK3t43mmkc4VI0G4sa+cvF3iW58TarLdHcllBuh0+A/8ALOEH7zD+83Vvy7V23xS8UFmHhqyk+VNk2quh6t95LfI9OGb8PSvKKACiiigAooooAKKKKAClVXdlRFZndgqqoJZmJwAAOc0scckrxxRIzySMqRogLM7McBVA5ya9w8C+A4dESHVdWjWTV3UNDE2GSwDDt2Mnqe3QepAM3wX8N44BBqviKEPP8sltpz8pF3D3I7t6L27+g9S4AAAAAAAA4AA7AUtFABRRRQAUUUUAFFFFABRRRQAUUUUAFFFFABRRRQAUUUUAFFFFABRRRQAUUUUAFFFFAHKeLfBWleJ4mmGy11aNMQ3arxJgcR3AHVffqP0PgmqaVqejXs9hqMDQ3ER6HlXXs8bdCp7GvqasLxL4Z0vxNZG1u12TxhjZ3SAGW3c/zU/xD+oyAD5porS1rRdT0C/m0/UItkqfNG65Mc8RPyyRt3B/z0rNoAKKKKACiiigAqa0urqxuba8tZWiubaVJoZEOCrqcg1DRQB9K+FfEVt4l0mC+j2pcpiG/gB/1NwBzgf3W6r/APWrer5x8GeJZfDWsRTuWNhdbbfUYxzmIniQD+8nUfiO9fRiPHKkcsbq8ciLJG6HKujDcGUjsaAHUUUUAFFFFABUtRVLQBG3U0lK3U0lABRRRQAVieKNeh8OaNeai+0zgeTZRt/y1uXB2DHoOWPsK268E+JHiH+2Nbaxt5M2GkF7aPaflkuc4mk49xtH+770AcXPPPczT3E8jSTzyPNNI5yzu53MxPvUdFFABRRRQAUUUUAFABJAAJJOABySTRXqfw18HCdovEepxZhjbOlQSDiWRTj7QwPZf4PfntyAbfw/8DrpMUOtarEDqsybrWBxkWUbD7xB/wCWh/QcdTXotFFABRRRQAUUUUAFFFFABRRRQAUUUUAFFFFABRRRQAUUUUAFFFFABRRRQAUUUUAFFFFABRRRQAUUUUAYXifw1p3ibT2tLkCO4jDPZXQGXt5SP1U/xD+oyPnXVNM1DR76606/iMVzbvtYdVZequjd1PUGvqeuR8ceEovEunmW3VV1eyRms5OB5ydTbufQ/wAPofYmgD56op0kckUkkUqMkkbtHIjghkdTgqwPcU2gAooooAKKKKACvaPhb4k+2Wcnh+7kzc2CGWxLHmS0J+aPnuhPHsf9mvF6vaTqd3o+pWGp2pxNaTLKBnAdejI3swyD9aAPqWiqun31rqdjZahatut7yBJ4j3AYcqfcHIP0q1QAUUUUAFS1FUtAEbdTSUrdTSUAFFFFAHOeM9dHh/QL67RgLucfY7Ed/PlBG8f7oy34e9fN5JJJJJJJJJ5JJ7k13/xR1s6hriaZE+bbR0MTAH5WupMNIfw4X8DXAUAFFFFABRRRQAUUU+GGa4mhggRpJp5EiiRRlndyFVQPegDpPBXhiXxNqyRSBl0602z6hIOPkz8sSn+8/T6ZPavomOOKGOKGFFjiiRY4o0GFREG1VUDsKxPCvh+Dw3o9rYKFNy37+/lX/lrcuBu59F+6v0963qACiiigAooooAKKKKACiig8Ak8AckngD6k0AFFY194o8KabkXms2EbjOY0lEsvH+xDub9K5m8+K3hC3yLWPULxh0McKwof+BTMG/wDHaAO/oryC6+MN4SRY6JboOzXVxJKfxWNVH61h3HxS8bzbvLlsbYHp5FqhI/GYtQB73Rg+h/Kvm+bxx45nzv129UHtCUhH/kJRWdLr/iWY5l1nVG+t5cY/INQB9Q4PoaTj1H5ivlZr/U35e9u2P+1PKf5tUf2q8/5+J/8Av6/+NAH1dgnp+lGG9D+VfKYvdQX7t3cj6TSD+Rqwms6/Fjy9V1JMdNl3cD+TUAfUnNFfNMPjHxpb48vXdS47STtIPykyK1bf4l+PIMBr+GcDtc2sDZ+pRVP60AfQNFeL2vxe11NovNK0+cDqYWmt2P5lx+lb9n8XPD0pUXunX9sTjLRGK4QfqrfpQB6TRXN2PjnwRqG0Q6xbxu2AEvA9s2fTMwC/rXQxSwzoJIJY5Yz0eF1kU/QoSKAH0UUUAFFFFABRRRQAUUUUAeSfFDwoBu8S2EfBKpq0aL0J+VbnA9eA/wCB7mvJ6+r5oYLiGe3njWSCeN4po3GVeNxtZSPevm7xZ4fm8N6zdWB3NbN+/sZW/wCWls5O3J9Ryp9x70AYNFFFABRRRQAUUUUAeu/CbXi6X3h64fmPdfafuP8ACTiaMfow+pr1avlzRdTn0bVdN1ODO+0uEkZQcb4+jofqMj8a+nreeC6t7a6gYPBcwxzwsOjRyKHU/rQBLRRRQAVLUVS0ARt1NJSt1NJQAVR1fUYdI0vU9TlxtsraSYA/xOBhE/E4H41erzT4taqbfTNN0iNsPqE5uZwOvkW+NoP1Yg/8BoA8bnnmuZ7i5mYvNcSyTSserPIxZj+tR0UUAFFFFABRRRQAV6Z8KvDwur241+5jzBYEwWIYcPdsvzOM/wBwH829q81jjaWSKJPvSOsa59WO0V9QaLpVroml6fpdsPktYgrt3klb5pJG9ycn/wDVQBo0UUUAFFFNdkjRpJGVI0GWdyFVQO5Y8UAOorjNY+I/hDSt8cNw+o3K5Hl2ADRgjj5p2wn5ZrzzV/il4pvt8dgsGmQHIBgHm3GPeWQY/JRQB7beX2n6fEZr67trWIAnfcypGOPTca43U/ij4RsdyWf2nUZRx/o6eVDn3lmwfyU14bdXd7eytPeXM9xMxJMlxI8jnPu5JqGgD0LUviv4nudy6fb2dhGcgMFNxN/33L8v/jlcff6/4i1Qk6hql7cA9UkmfyvwjUhP0rNooAKKKKACiiigAooooAKKKKACiiigAooooAKKKKACrFrfajYuJLK7ubZwc7raaSI/+OEVXooA7TTviX41sdizXMN/EDyt9EGcj08yPa/5k12mmfFzRZ9iarp9zZueGltmFxCPcqdrj8jXi9FAH0/pniDw7rAB03U7S4Y4Plq4SYfWKTD/AKVqV8mqzIysrFWU5VlJBBHcEV1WkfEDxlpGxFvjd264HkaiDOuB2VyRIP8AvqgD6IorzjR/ivoN3si1e2m0+Y4BljzcWxPqdo8wf98n6131lf6dqMK3Fhd291Cf47eRZAPZtvIP1oAs0UUUAFcZ8Q/Dw1zQ5LiBM6hpQe6t8D5pIQMyxfiBke6+9dnRQB8mUVteKrGHTfEev2UACww30vlKOipJ+8VR9M4rFoAKKKKACiiigAr3X4W6x9v0B9PkfM+kTeUuTybabLxn8DuX8BXhVdp8NdVOm+JrWB2xBqkb2EmTx5jfPEf++gB/wKgD3+iiigAqWoqloAjbqaSlbqaSgAr57+Iup/2l4p1JVbMOniPT4ucj9yMvj/gRavfLy5jsrO+vJMBLS2nuXz6RIX/pXyxPNJcz3FxKcy3E0k8h9XkYuT+tAEdFFFABRRRQAUUUUAKrMjI6nDIwZSOxByDX0r4X8RWPiTS7e7hkT7UkaJf2+R5kM4GGJXrtPVT/AFHHzTViyv8AUNOnS6sLqe2uE+7JA7I2PQ46j2oA+q6p6hqelaVAbjUry3tYR0adwpb2RfvE/QGvBT8RvHxi8r+1j0x5gt7bzf8AvrZXNXl9qGoTvc311Pczt1kuJGkb6AselAHrGt/Fq0i8yHQbIzvyBd3wKRD3SFTuP4kfSvNdX8SeItcctqWoTzJnKwg+Xbp/uxJhf0rJooAKKKKACiiigAooooAKKKKACiiigAooooAKKKKACiiigAooooAKKKKACiiigAooooAKKKKACrNlf6jp0y3FhdXFtOuMSW8jRtx2O08iq1FAHpWifFjV7by4dbtUvoRgG4g2w3QHqQP3bfkPrXpui+KvDOvqo06+jM5GTaz/ALq5X/tm3X8Ca+aKVWZGV0ZlZSGVlJDAjkEEUAfWVQXV1a2Ntc3l3IsVtbRNNNIxwFRRn8+wrwjSfiX4v0yBLZ5IL+JBtjOoI7zKB0HmowY/jmsvxB4x8SeJAsV/cIlorB1tLVfLg3DozDJYn0yTQBm6zqL6tquq6kw2m9u5p1U9VRm+VfwGBVCiigAooooAKKKKACpIJpbae3uIjtlgljmjPo8bBwf0qOigD6p0+8i1Gw0+/iI8u8tYLlcdvMQMR+FWq4j4Y6gb3wtBAzZk026nsz6iMkTJ/wChEfhXb0AFS1FUtAEbdTSUrdTSUAcl8RL37F4S1fBw94YLFPpK4LfoDXzzXsXxgu9lj4fsQ3+uurm6YeohRYxn/vo147QAUUUUAFFFFABRRRQAUUUUAFFFFABRRRQAUUUUAFFFFABRRRQAUUUUAFFFT2lne39zBaWcEk9zOwSKKJdzMT/nmgCCtPTNA8Qay23TNOurkZwZEQiFecfNK+EH516x4Y+GGm2KxXev7L28wGFoDmzhPo+Pvn9PY9a9FjjihjSKKNI4kG1I4lVEUDsqrxQB4jZ/CbxXMA11c6daA/wtI80g+oiUr/49WkPg7d4G7X7cHuBZSEfmZR/KvX6KAPFrj4Q68ik2uqadOR0WVZoCfxwwrl9U8FeMdIDPdaXM8C8me0xcRAepMWSPxAr6Ro5FAHyZRX0T4i8C+G/ECySNAtnfkEreWiKrFv8AptGMKw/X3rxDxD4a1nw1d/Z7+IGKQsba6iyYLhR3Vj39QeR+pAMWiiigAooooAKKKKACiiigAooooAKKKKACiiigAooooAKKKKACiiigAooooA9S+EF9tvNe05m4ntobyNf9qF/LbH4MPyr2Gvnr4c3f2TxdpAJwt2Lizf8A7aRMVH5gV9C0AFS1FUtAEbdTSUrdTSUAeJfFy58zXtNtQeLXTEY+zTSux/QCvOa7D4lT+d4v1YZ4gjs4B7bYEY/qTXH0AFFFFABRRRQAUUUUAFFFFABRRRQAUUUUAFFFFABRRRQAUUUUAFFFFAD4YZriWGCCNpJppEiijQZZ3c7QoHqa+g/Bfg+18M2SyTKkmsXMYN5PwfKB58iI+g7nufbAHFfCnw8k8914huo8paMbXTww4M7L+8lGf7oIA/3j6V7FQAUUUUAFFFFABRRRQAVR1XStN1qxuNP1CES28w+jxuPuyRt2Ydv/AK9XqKAPmXxJ4fvvDeqT6fc5ZP8AW2k4GFuIGJ2uPfsw7EfnjV9C+PvDya9oVw0SZ1DTVe8syB8zBRmWH/gQHHuBXz1QAUUUUAFFFFABRRRQAUUUUAFFFFABRRRQAUUUUAFFFFABRRRQAUUUUAaOhXJs9a0K6Bx5Go2chP8AsiVc/pX1Eep+pr5NVijI46qwYfUHNfVtvL51vaTf89reGX/vtA1AEtS1FUtAEbdTSUrdTSDqPrQB82+NpPN8WeJm9L+RP+/YCf0rnq2PFLF/EniVj31W+/SVhWPQAUUUUAFFFFABRRRQAUUUUAFFFFABRRRQAUUUUAFFFFABRRRQAUUVe0aAXWr6LbEZWfULOJh6q8yg0AfRvhnTF0fQdFsAoDxWkbz4GMzyjzZCfxJrYoPU/WigAooooAKKKKACiiigAooooAK+aPFumDSPEeuWKLthS6aa3HYQzgTIB9AcfhX0vXh/xatxH4hsbgD/AI+tLhLe7RSSJn8sUAeeUUUUAFFFFABRRRQAUUUUAFFFFABRRRQAUUUUAFFFFABRRRQAUUUUAFfUGgSedoXh6Xrv0qwP4+Sor5fr6X8IsX8L+F2P/QLtR+S4oA3KlqKpaAI26mkHUfUUrdTSDtQB8xeJePEXiT/sK33/AKOasmtvxcnl+J/E64xjVLw49mkLViUAFFFFABRRRQAUUUUAFFFFABRRRQAUUUUAFFFFABRRRQAUUUUAFa/hl1TxF4bZjhRqtjn8ZlFZFS207W1za3Kfet54Z1/3o3Dj+VAH1cep+poqKCeO5gtrmM5juIYp4yOhSRQ4P61LQAUUUUAFFFFABRRRQAUUUUAFeL/F9lOr6GufmXTXJ+jTvivaK8B+Jt6t34ru40bK2FtbWXtvCmVv1bH4UAcVRRRQAUUUUAFFFFABRRRQAUUUUAFFFFABRRRQAUUUUAFFFFABRRRQAV9K+Dv+RV8L/wDYMt/5Gvmqvprwsnl+GvDCYxjSrLj6xg0AbNS1FUtAEbdTSUrdTSUAfOXj2IxeL/Ean+K5SUfSSJH/AK1zNdx8UoPK8WTyYwLmxspvrhDD/wCy1w9ABRRRQAUUUUAFFFFABRRRQAUUUUAFFFFABRRRQAUUUUAFFFFABRRRQB758NNaXVPD0Vm75u9HYWkgJ+Y25y0L/TGV/wCA129fNfhLxFN4a1i3vRua1kH2e/iX/lpbsRkgf3l+8v096+j7e4truC3urWVJbe4jSaGSM5V0YZBFAEtFFFABRRRQAUUUUAFFFFAFTUr+20uwv9RuTiCzgknf/a2jhB7k4A+tfL17dz395e3s5zNd3EtxKevzSMXNej/E/wAVpeTDw7YShre1kEmpSIcrLcL92EEdk6n3/wB2vMaACiiigAooooAKKKKACiiigAooooAKKKKACiiigAooooAKKKKACiiigAr6m0mLydK0aH/nlp1lGfqsKCvl62iM9zawAZM08UQHqXcLX1aqiNUjX7qKqD6KNooAWpaiqWgCNuppKVuppKAPHfjBbFb7w9eAcTWlxbMfeGQOAf8AvqvLq9w+LNn5/h+xuwPmsdRTcfSOdGQ/qFrw+gAooooAKKKKACiiuh8FCxbxV4cW9VWgN6ow4BUy7W8rcD/tbaALdj8PPG9/bx3MenCGOQBoxdzRQSMpGQfLc7h+IFWG+GPjxQSLK2b2S8t8/qwr3/nvRQB85z+AfHkGd2iXLgd4Hhl/IRuT+lYt1pGt2Oftmm31uB1M9vKi/wDfTLivqag8gg8g9QeR+RoA+TKK+mr/AML+FNT3fbdHsZHOcyJEIZee/mQ7W/WuL1T4SaTMHfSNQntJOqw3YE8P0Drhx+tAHjNFdHrXgrxZoQeS6sWltV63VmTPBj1YqNw/FRXOUAFFFFABRRRQAUUUUAFdx4H8czeHXFhf75tGmfdhfmks3Y8yRDup/iX8Rz97h6KAPqy1urO9t4buznintplDxSwsGRgfcfrU9fM+geKNf8OTGTTrk+S7BprWbL20uP7yZ4PuCDXrGjfFLw1fLHHqaS6bcnAZmBmtWPtIg3D8V/GgD0CiqlpqOlX6LJY31pcowyDbzxyfopzVvDehoAKKjllggUvPLFCg5LTOkagfVyBXLat8QfBmlK4F8L2dcgQ6cBNkjsZeIx/31QB1teZeOPiHBZpcaRoMyyXrBorq9iIMdsDwyQsOC/v2+v3eO8SfEXxBrqy2tt/xLtOfKtDbuTNMvpNNwcewAH1riqAAkkkkkkkkk8kk9yaKKKACiiigAooooAKKKKACitLStC13W5fK0uwuLkggO6LiJP8AflbCD869D0n4RXDhJNb1JYgcE2+nr5j/AEaaQbfyU0AeVVNb2l9dtttbW4nb+7BFJIfyQGvofTvAngrTdpi0qGeRefNvyblifXbJ8n5LXRxRwwII4Y44kHRYkVFH0CgCgD5vt/BXje5AMWhX4B6GZBCP/IxWtGP4aePXGTp8Sf8AXS7th/JzX0FRQB4A3wx8dqrMLO2YgE7UvICx9hlhXJXlne6fcTWl7by29zCdskUylXU/Q9vSvqyvIfjALET+HWCr9uaK68xgOTbBl2bj9d2PxoA8qooooAKKKKACiiigDc8I2v2zxP4btyMg6jbysP8AZhPnH9Fr6XPU14R8K7M3HicXBXK2Fjcz59HfEC/+hGvd6ACpaiqWgCNuppKVuppKAMLxdYf2l4a8QWoXc5spJ4h/00t8Trj/AL5xXzTX1kQrAqwBVgVYHoVIwRXy9rmntpWsaxpxGPsl5PEnvGGJQ/iMGgDOooooAKKKKACnwzS280E8R2ywSxzRt6OjBgaZRQB9T6Zfxapp2m6jFjZe2sNwAP4S6gsv4HI/CrlecfCjWBd6PeaRI+ZtMm82EE8m2uCW4+jZ/MV6PQAUUUUAFFFFAB/Xg+9cf4g+H3hnXBJNHCNPv2yRcWahUdv+msIwp9yMH3rsKKAPm3xF4Q8QeG5CbyHzLNm2xXtvlrd8ngMeqn2P61z1fWEsUM8ckM8ccsMqlJI5VDo6nqGVuMV5L4v+GRQTal4aRmUbpJ9NyWZR1JtSeT/un8PSgDymilZWVmVlKspKsrAgqRwQQaSgAooooAKKKKACiiigBVZ0IZGZWHQqSD+Yq0up6uoCrqN8qjoFuZgPyDVUooAfJPcTHM00sh9ZXZz/AOPGmUUUAFFFFABRRRQAUUUUAFFFdp4R8Ban4jMd5dF7PSAeZyv725weVt1b9WPH16UAczpek6trN0lnptrLcTtjIjHyxqeN0jn5QPcmvW/Dvws0uzEVzr0gvrnhvssJZbSM9cO3DN+g+td3pWkaTolqlnplrHbwrjdt5klYDG+Vz8xP1q/QBHBBb20UcFtDFDBGNscUKLHGo9AqgCpKKKACiiigAooooAK+ePiFqg1TxRqZRt0Fjt06HByMQZDkfVi1e5+INVj0XRtW1NiA1tbuYQf4p3+SJfxJFfMLu8jvI7Fndmd2PJZmOSTQAlFFFABRRRQAUUUUAexfCCw2WWu6my83FxDZRE/3YV8x8fiw/KvUa5vwRpx0vwvocDLtlmg+2zA9d9yfNwfoCB+FdJQAVLUVS0ARt1NJSt1NJQAV4j8WNLNtrdlqaLiPU7UK5A4+0W2EbJ91KV7dXG/EfSf7U8M3kka7rjS3XUIsDnYg2yjj/ZJP/AaAPn6iiigAooooAKKKKAOj8Fa3/YPiHT7t222szfY73njyJiAWP+6cN+FfSH0OR2I6EetfJlfQPw88QDW9Bhgmfdf6UEs7jJyzxAfuZT9QMH3X3oA7KiiigAooooAKKKKACiiigDgfG/gK311JtT0tEh1hQWkQYWO+AHRuwk9D36H1HhssU0EssE8bxzRO0cscilXR1OCrA85FfWFef+P/AASmtQSavpkQGr26ZmjQY+3RIOmB/wAtB/D69PTAB4ZRQQQSCCCCQQRggjsRRQAUUUUAFFFFABRRRQAUUUUAFFFFABRRRQAUUV6N8PfBH9qyR63q0X/Eshf/AESBxxeyofvMD/yzU9fU8dAcgEvgX4fHURBrOuRMthxJZ2bZVrvHIklHUR+g7/T73syqiKiIqoiKEREAVVVRgKqjjApQAAAAAAAABwAB2ApaACiiigAooooAKKKKACiiquoX9rpdjfajdNtt7OB55PU7Rwo9ycAfWgDy34ta5l9O8PwvwmL++wf4mBWGM/QZb8RXlFXNU1G61bUb/Urk5mvJ3mb0UE/Kg9gMAfSqdABRRRQAUUUUAFaWg6a+r6zpGmqM/a7uKOT2iB3SN+ABNZtem/CTSfO1DU9ZkX5LGEWluT08+cZYj6KP/HqAPZQqoqogARFCIB0CqMACloooAKlqKpaAI26mkpW6mkoAKa6RypJFIoaORGjkU9GRxtINOooA+YPEOkyaHrOqaY4O22uGELH+OB/njb8QRWXXr/xa0PzINP8AEECfNARY3xA/5ZsS0Tn6HK/iK8goAKKKKACiiigArovB3iGTw5rVrdsW+xzYttQQc7rdyMsB6qcMPpjvXO0UAfWKPHKkcsbq8ciLJG6nKujDcGBHY06vMPhf4pF1b/8ACOXsn+kWqs+mM55ltxy0OT3Tqvt/u16fQAUUUUAFFFFABRRRQAUUUUAeOfE3witrI3iPTosW9xIF1OJBxFO5wJwB2bo3v/vceX19W3NtbXlvc2lzGstvcxPDNGwyHjcbSK+a/E2hXHh3WL3TZNzRK3m2kpH+utnyUb69j7g0AY1FFFABRRRQAUUUUAFFFFABRRRQAUUVJBBPczQW8CNJNPIkMSKMs7uQqqPrQB0fgvwvN4m1VYnDrp1ptm1CVePkzxEh/vP0Htk9ufoiGGC3iht4I0ighjWKGOMYVEUYCqB6Vj+FtAt/Dej2unoFNwQJ76UD/W3Lgbjn0H3V9h71uUAFFFFABRRRQAUUUUAFFFFABXkHxV8SCWWHw5aSZSBkuNTKngy4zHCcf3fvH3I9K9A8WeIrfw1pFxesVa7kzBp8Lf8ALS4I4JH91erfl3r5vnnnuZp7i4kaSeeR5ZpHOWd3O5mJoAjooooAKKKKACiiigAr6R8GaN/Yfh3S7R123Msf2y89fPnAcqf90YX8K8Z8A6H/AG34islkTdZ2BF/d5HylYiNkZ/3mwPpmvoigAooooAKlqKpaAI26mkpW6mkoAKKKKAKmo2FrqlhfaddLmC8geCT1XcOGHuDgj6V8x6np91pOoX+nXS4ns53hf0baeHHsRgj619T15X8VvDplit/EdrHl4AlrqQUdYicRTHHoflP1HpQB5BRRRQAUUUUAFFFFAE1rdXVlc213aytFcW0qTQyIcFXQ5Br6N8KeJLTxNpcV5HtS7h2xahbg8xTY+8B12t1X8u1fNlbPhvxBf+G9Thv7Ulk/1d3ASQlxATko3v3U9j+oB9NUVR0rVNP1mwtdRsJRJb3C5H9+Nx96OQdmHQ//AF6vUAFFFFABRRRQAUUUUAFcH8TNAGqaIdSgTN7o+6bIHzPaN/rV/wCA8MPofWu8prokiPHIoaORWR1YZDIw2kEe9AHydRWv4l0h9D1zVdNIPlwTs1uT/FbyfvIz+RGfpWRQAUUUUAFFFFABRRRQAUUUUAFel/CnQBdX1zr1wmYdOzBZ7hw126/M4z/cU/mw9K81VXdkRFLO7BVUcksTgAV9NeG9Ij0LRNK01QBJDAr3JH8dzJ88h/M4H0oA2KKKKACiiigAooooAKKKKACobq6tbK2ubu6lWK2to2mmkc4VEUZJ/wAKlJABLEBQCSScAAckkmvDfiF40/tudtJ02Q/2TayZlkU4F7Op+9/uL/D69fTABz/i3xLc+JtVlu23JZw7odPgJ/1UAP3mHTc3Vvy7Vz9FFABRRRQAUUUUAFFFdX4D8OnxBrkImTOn2Gy7viR8rhT8kP8AwI9fYGgD1X4d6B/YugxTzJtvtV2XlxkYZIsfuYz9Adx929q7Oj/IA6CigAooooAKlqKpaAI26mkpW6mkoAKKKKACori3t7u3ubW5jWS3uYngmjYZDxuNpFS0UAfMvibQbnw5q95p0u5olPm2cpHE1s5JR/r2PuDWNX0N468Lr4k0ljboP7UsA81icDMoxl7cn/a7e4HrXz0ysjMrKVZSVZWBBUg4IINACUUUUAFFFFABRRRQB03hDxbfeF73cN02m3DKL61z94DjzY88Bx29eh9R9B2F/YapaW99YTpNa3C7o3T9VYdQR0Ir5WrpfCfi7UvC93uTdPp07D7ZZs2A3bzIiejj179D7AH0dRVDStW0vW7KK/02dZreTg9pInxkxyp1DCr9ABRRRQAUUUUAFFFFAHkfxe0sB9F1qNfvh9OuSB3XMsRP4bh+FeUV9F+PdPGo+FNbQLmS2jS/iwMkNbsHbH/Adwr50oAKKKKACiiigAooooAKKKKAOr+H2ljVfFGmK67oLItqMwIyMQYKA/VitfRFeVfCCwC2+v6oy8ySwWERP91B5z4/Nfyr1WgAooooAKKKKACiiigApKRmRFeSRlSNFZ3dyFVFUZLMx4AFeNeOfiE1+LjR9ClZbE5ju71CVe6HQxxdwnqe/wBPvAEvxA8eC7+0aFos2bUEx6hdxn/j4I4MMLD+D+8e/Tp97y6iigAooooAKKKKACiiigB0ccs0kcUSM8srrHGijLO7HaFAHc19H+D/AA7H4b0W3tGCm9nxc6g453TsPuA+iD5R+J71wPwu8KmaX/hJL6L91AzR6Ujjh5hw1xg9l6L75/u17BQAUUUUAFFFFABUtRVLQBG3U0lK3U0lABRRRQAUUUUAFeO/E3wiYJX8SadF+4mYDVI0HEUzcC4AHZuje/P8XHsVRyxQ3EU0E8aSQzRtFLHIMo6OMFWB7GgD5QorrPG3hKfwzqBaEO+k3jM1jKedh6mCQ/3l7eo59ccnQAUUUUAFFFFABRRRQBr6B4i1jw5eLd6fNgNgXFvJkwXCD+GRf5HqP5+8+GfF2i+J4AbZxDfoubixlYeamOrRn+JfcfiBXzfUlvcXNpNFcW00kM8LB4pYWKOjDurLzQB9X0V5V4X+KUUghsvEoEcnCJqMS/I3b/SI16H3A/Ada9RhmguIop4JY5YZVDxyxMHjdT3Vl4oAkooooAKKKKAIriFLm3urZ+UuIJoGB9JEKH+dfKk0TQTTwv8Aehlkib/eRipr6wHUfWvmTxTbi18R+JIAMBNUvCv+60hcfzoAx6KKKACiiigAooooAKKKKAPoT4cWn2XwjpRIw13JdXbe++Uop/JRXX1keGYBbeHfDcP93SrIn6vErn+da9ABRRRQAUUUUAFUtS1PTNItJb7UbmO3toxyzn5nbskajksewArmPE/xB0LQBLbWzJqGqLlfIhf9zC2P+W8q8cegyfpXimta9rXiC6N3qdy0rDIiiXKwQL/dij6D+fqTQB0PjDx7qPiJpLOz8y00cHAhBxLc46NcMvb0Xp9e3FUUUAFFFFABRRRQAUUUUAFdF4Q8M3PibVI7YbksYNs2oTj/AJZw5+4p/vN0X8+1ZOl6Zf6xfWunWERkubhwqj+FF6s7nsoHJNfR/hzQLDw3pkGn2oDPxJdzkYe4nIwzn27KOw/UA07e3t7SC3tbaJYre3iSGGNBhUjQbQBUtFFABRRRQAUUUUAFS1FUtAEbdTSUrdTSUAFFFFABRRRQAUUUUAUdV0vT9ZsLrTr+ISW1wuD2eNxyskZ7MOo/+vXzr4l8Oaj4a1GSyugXifMlncqCI7iHOAw9x0YdvxyfpisrXtB0vxFp8un36fKcvBMgHm202MCSMn9R3FAHzDRWv4g8P6p4cv5LG+T1e2nQHyrmLOBJGf5jt/PIoAKKKKACiiigAooooAK3NB8VeIfDkm7T7k/Z2bdLaT5ktpPqhPB9wQaw6KAPedA+JfhzVhFBqB/sy9bC4nbdau3+xN2/4EB9TXcqyuqujKyMAyspDKwPcEcV8m1t6N4q8TaCw/s6/lWHOWtpf3ts31jfgfhigD6Yory7SPi3YS7I9b0+S3fobixPmxE+rROd4/Amu903xB4d1hQdN1O0uGOP3QkCTj6xSYf9KANSvnLx8gTxf4kA73Mb/wDfcEbf1r6MYhFZnIVVBZ2c4VVAySSeMV81eLtRttW8Sa5f2rbrea52wuOjpEiwhx7HGR9aAMKiiigAooooAKKKKACiiigD6o01Qum6So6LYWaj6CFRVusfw1qdpq+h6ReWrqw+ywQzKCC0U8SBHjYDuCPy+tX7u+0/T4zNfXdtaxAEl7mVIhx6bzQBZorgdW+KXhax3pp6z6lOMgGIGG3z7yyDd+SmvOta+Ini3WBJElwLC0fI8mwyjFT2eYnzD+Y+lAHsWu+MfDHh8Ot5drJdgHbZ2mJbgnsGAO1fxIryPxH8RvEOtiW2tD/ZuntlTFbOfPlX0lm4P4AAfWuJJJJJJJJJJJySTzkk0UAFFFFABRRRQAUUUUAFFFFABUttbXN5PBa2sTzXFxIsUMUYy7uxwABSQQXF1NDb28TyzzOscUcalnd2OAqgV7z4H8EweHIFvr1Ul1qePDtwy2aMOYoj/e/vH8Bx94AteC/CFv4Ysi02yTVrtF+2TLyI16iCI/3R3Pc+wGOsoooAKKKKACiiigAooooAKlqKpaAI26mkpW6mkoAKKKKACiiigAooooAKKKKAMrXdC0vxDYSWGoR5U5eCZMCa3lxgSRsf1Hevn3xJ4Z1bwzeG2vE3wSFjaXUYPk3CD0PZh3Hb6cn6XqlqemabrFnPYajbpPbTDlW4ZG7PGw5DDsRQB8s0V1/i7wNqnhqRriLfdaQ74iulX5oc9EuFHQ+h6H26DkKACiiigAooooAKKKKACiiigAoBZSGUkMDkEHBB9QRRRQBoy674hntPsM2q6hJZ4wYJLmVoyPQgnke1Z1FFABRRRQAUUUUAFFFFABRRRQBcsNV1jS2kbTr+7tDIMSfZpnjD/wC8FODUFxc3d3I011cTTytktJPI8jnP+05JqKigAooooAKKKKACiiigAooooAKKKKACp7SzvL+5gs7OCSe5ncJFFEMsxP8AT1NXNF0LV/EF4llpsBkfhpZGysMCdN8r9AP59s1734V8IaT4XtsRAT6jKgF1euoDt3McQ/hT279/YAoeC/A9p4aiW8u/Ln1qVMSSjmO1VhzFBnv/AHm7/Tr2lFFABRRRQAUUUUAFFFFABRRRQAVLUVS0ARt1NJSt1NJQAUUUUAFFFFABRRRQAUUUUAFFFFADJI4pY5IpY0kikUpJHIoZHUjBVlbgivJvFvwxdfO1Dw0hZSWebTSfmXuTas3Uf7JOfTPSvXKKAPk50kid45EZJEYq6OpVlYcEMp5zTa+i/E3grQfEqNJKn2XUQuI723UbzjoJ16MP1968T8Q+EvEHhuUi+g32rNiG8t8vbyc8AtjIPscfjQBgUUUUAFFFFABRRRQAUUUUAFFFFABRRRQAUUUUAFFFFABRRRQAUUUUAFFFFABRRRQAUUUUAFFFW9O0zVNWuUs9OtZrm4fokS52j+87dAPckUAVK7Lwp4B1fxEY7q432Wk5BNw6/vJx6W6N1+p4+vSu58L/AAx0/TzDe68Y728GHS1Xmzhbr8+fvkfl9etejgABVAAVQFUAYAA4AAFAFDSdH0nQ7NLHTLZYYVwXPWSV8Y3yv1JrQoooAKKKKACiiigAooooAKKKKACiiigAqWoqloAjbqaSlbqaSgAooooAKKKKACiiigAooooAKKKKACiiigApksUM8ckM0ccsMilJI5VDxup7MrcGn0UAeaeIvhXp155lzoEq2VwcsbSYs1o564jbll/UfSvKNW0TW9EnNvqllNbvkhGcZikA7xyLlD+Br6iqG5tbO9hktry3huLeQYeK4RZEP/AWFAHylRXtWufCjR7vzJtEuWsJjki3n3TWpPXCt/rF/wDHq8z1nwh4p0Isb7T5TAOlzbfv7cj1Lp0/ECgDBooooAKKKKACiiigAooooAKKKKACiiigAooooAKKKKACiiigAooq9p2kazq8oh02xubp84Pkxkqv++5+UfiaAKNSW9vdXU0dvawyzzyHbHFCjPIx9AqjNen6J8JbuQpNr96sCcE2tiRJKR6PMfkH4Bq9N0jQdC0KLytLsYbfIAeUDdPJ/vytlz+dAHlfh74VajdGK51+Y2cBw32SAq10464duUX9T9K9Y0vSNI0a2FrplpFbQ8bvLGXkI43SOfmJ+pq/RQAUUUUAFFFFABRRRQAUUUUAFFFFABRRRQAUUUUAFS1FUtAEbdTSUrdTSUAFFFFABRRRQAUUUUAFFFFABRRRQAUUUUAFFFFABRRRQAUdiOx4IPQj3FFFAHM6t4G8H6xvefTkguGyTcWBFvISe7BRsP4qa4TU/hFfJvfR9ThnXqsN8phk+nmR5U/kK9hooA+adR8IeL9K3G70i7Ean/WwJ58WPXfDuH51hEFSQwII4IIwR+Br6zyR0rPvdG0HUgRf6ZY3JP8AFNBGX/B8bv1oA+XKK9+vPhl4Huixjtrq0Y97S4fA+izbxWDc/B6yOTZa3Onot1bJJ+bRsv8AKgDx+ivSJ/hF4kTJt9R0yYdg5niY/gUI/Ws6T4X+Oo/u29lL/wBcruIf+jNtAHEUV1b/AA78fJn/AIk7tj+5cWp/9qVH/wAID49/6Adz/wB/Lf8A+OUAcxRXUp8PfHz/APMFlX/fmth/7Uq1H8MvHkmM2MEf/XW7txj8FYmgDjKK9Cg+Evi2Q/vrrSoR7zSyH8kjrWtvg8/BvNdQDutrasT+DSOP5UAeT0V7pafCnwfBg3Mmo3ZHUSTLEh/CFQf/AB6uksfCnhHTtptNGsFdekkkQmk+u+bcaAPnew0PX9UYLp+m3tzn+KKFzGPq5G0fnXZab8KPFF1tfUJ7TT4zglWb7ROB/uRfL/4/XuAwoCqAFAwAowAPYCloA4fSvhl4Q07ZJcxzalOvObxtsOfaGPA/MmuzggtrWJILaGKCFBhY4EWONR7KgAqWigAooooAKKKKACiiigAooooAKKKKACiiigAooooAKKKKACiiigAqWoqloAjbqaSlbqaSgAooooAKKKKACiiigAooooAKKKKACiiigAooooAKKKKACiiigAooooAKKKKACiiigAooooAKKKKACiiigAooooAKKKKACiiigAooooAKKKKACiiigAooooAKKKKACiiigAooooAKKKKACiiigAooooAKlqKpaAI26mkpxBJyOnFJtb0oASil2t6UbW9KAEopdrelG1vSgBKKXa3pRtb0oASil2t6UbW9KAEopdrelG1vSgBKKXa3pRtb0oASil2t6UbW9KAEopdrelG1vSgBKKXa3pRtb0oASil2t6UbW9KAEopdrelG1vSgBKKXa3pRtb0oASil2t6UbW9KAEopdrelG1vSgBKKXa3pRtb0oASil2t6UbW9KAEopdrelG1vSgBKKXa3pRtb0oASil2t6UbW9KAEopdrelG1vSgBKKXa3pRtb0oASil2t6UbW9KAEopdrelG1vSgBKKXa3pRtb0oASil2t6UbW9KAEopdrelG1vSgBKKXa3pRtb0oASil2t6UbW9KAEqWo9relP3L60Af//Z;" parent="1" vertex="1">
          <mxGeometry x="291" y="10" width="71.67" height="75" as="geometry" />
        </mxCell>
        <mxCell id="GAuoqcm1p_Jp_WaCX0y3-6" value="Velocity" style="text;html=1;strokeColor=none;fillColor=none;align=center;verticalAlign=middle;whiteSpace=wrap;rounded=0;fontSize=20;strokeWidth=2;rotation=-55;" parent="1" vertex="1">
          <mxGeometry x="511" y="55" width="60" height="30" as="geometry" />
        </mxCell>
      </root>
    </mxGraphModel>
  </diagram>
</mxfile>
